{
.appVersion = "1342";
DisplayStrings = (
"/nbspace zaji/scaron t/tcaron ujících\012zaji/scaron/dcaron ujících\012zaji/scaron l/lcaron ujnjících\012nn/Placeholder no/Placeholder oo\012F;/space H;/space FAnAnHnnHHAtrFAtivonnnHH\012HH/Placeholder HHA/Placeholder B/Placeholder C/Placeholder D/Placeholder E/Placeholder F/Placeholder G/Placeholder H/Placeholder J/Placeholder K/Placeholder L/Placeholder O/Placeholder R/Placeholder S/Placeholder \012T/Placeholder U/Placeholder V/Placeholder W/Placeholder X/Placeholder Y/Placeholder Z/Placeholder HHH/space HHHHTRUJANOHH\012O.J.O/space W.,;:'/quotedblleft/quotedblright/quoteleft/quoteright ¿?HH/space MAL/Placeholder/space A/space OAHUMO/Placeholder/space AF/Placeholder/space HV/Placeholder \012AMAN/Placeholder/space AWA/Placeholder/space AMAR/Placeholder/space MAMAS/Placeholder/space VAV/Placeholder/space VAYAN",
"HH/Placeholder HO/Placeholder OO/space FÓSFORO/space VIVIANA/space KILO/space TOTORO\012HOAOSOBCDEFGHIJKOLOHMNOPRHOTOYOTAHALTANERANARSOHOHTROASUNOTOARHHOWOHH\012RSOTOVOWOXOHOYOHOZONOAZARHOLLWYWOOD/space HALAVAROHANTENAHHATAMEHZARAGOZA\012OXOHOYOHOHZHAVATARHAWARD/space MATADORHOYO/space AWESOME/space ALLANAMIENTOHHH\012HMARJORAMHAVAROHALAYAHAYALA/space/space HHATAMEHHALTOHHOYOHYingHYaconHYolanda\012LYON/space LÝ/space L/Ydotaccent ON/space LYME/space V/g.ss01 on/space Volcano/space Velocidad/space Vacuna/space Vyl/space \012\012HH/Placeholder HO/Placeholder OO/space OVOIDE/space HOYO\012ARROWROOTO/space FLOW/space BAOARLEY/space CHERVIL/space DUMPLING/space ENDIVE/space FLAGXSEED/space GARBANZO/space HIJIKI/space ISHTU/space JICAMA/space KALEHOYOHOXOHLYCHEE/space HOYO/space MARJORAM/space SXS/space NECTARINE/space OXATAIL/space PIZZA/space QUINOA/space ROQUEFORT/space SQUASH/space TOFU/space UPPUMA/space VANILLA/space WHEAT/space XERGIS/space OXO/space YOGURT/space ZWEIBACK/space 0/space 1/space 2/space 3/space 4/space 5/space 6/space 7/space 8/space 9/space !/space ?",

glyphs = (
{
glyphname = .notdef;
layers = (
{
background = {
paths = (
{
closed = 1;
nodes = (
"954 0 LINE",
"954 1600 LINE",
"140 1600 LINE",
"140 0 LINE"
);
},
{
closed = 1;
nodes = (
"541 705 LINE",
"826 76 LINE",
"256 76 LINE"
);
},
{
closed = 1;
nodes = (
"220 1411 LINE",
"497 801 LINE",
"220 191 LINE"
);
},
{
closed = 1;
nodes = (
"584 802 LINE",
"874 1440 LINE",
"874 163 LINE"
);
},
{
closed = 1;
nodes = (
"257 1524 LINE",
"824 1524 LINE",
"541 898 LINE"
);
}
);
};
layerId = "3B122060-26E0-4730-9241-82784E6CB359";
paths = (
{
closed = 1;
nodes = (
"954 0 LINE",
"954 1600 LINE",
"140 1600 LINE",
"140 0 LINE"
);
},
{
closed = 1;
nodes = (
"541 705 LINE",
"826 76 LINE",
"256 76 LINE"
);
},
{
closed = 1;
nodes = (
"220 1411 LINE",
"497 801 LINE",
"220 191 LINE"
);
},
{
closed = 1;
nodes = (
"584 802 LINE",
"874 1440 LINE",
"874 163 LINE"
);
},
{
closed = 1;
nodes = (
"257 1524 LINE",
"824 1524 LINE",
"541 898 LINE"
);
}
);
width = 1094;
},
{
background = {
paths = (
{
closed = 1;
nodes = (
"1570 0 LINE",
"1570 1600 LINE",
"80 1600 LINE",
"80 0 LINE"
);
},
{
closed = 1;
nodes = (
"826 566 LINE",
"1083 264 LINE",
"569 264 LINE"
);
},
{
closed = 1;
nodes = (
"380 1090 LINE",
"628 798 LINE",
"380 506 LINE"
);
},
{
closed = 1;
nodes = (
"1023 798 LINE",
"1270 1089 LINE",
"1270 507 LINE"
);
},
{
closed = 1;
nodes = (
"565 1336 LINE",
"1085 1336 LINE",
"825 1030 LINE"
);
}
);
};
layerId = "1DFA7D5B-2E97-4B89-827F-FB43F8066DC1";
paths = (
{
closed = 1;
nodes = (
"1570 0 LINE",
"1570 1600 LINE",
"80 1600 LINE",
"80 0 LINE"
);
},
{
closed = 1;
nodes = (
"826 566 LINE",
"1083 264 LINE",
"569 264 LINE"
);
},
{
closed = 1;
nodes = (
"380 1090 LINE",
"628 798 LINE",
"380 506 LINE"
);
},
{
closed = 1;
nodes = (
"1023 798 LINE",
"1270 1089 LINE",
"1270 507 LINE"
);
},
{
closed = 1;
nodes = (
"565 1336 LINE",
"1085 1336 LINE",
"825 1030 LINE"
);
}
);
width = 1650;
},
{
background = {
paths = (
{
closed = 1;
nodes = (
"380 0 LINE",
"380 492 LINE",
"324 1336 LINE",
"376 1336 LINE",
"462 472 LINE",
"584 0 LINE",
"906 0 LINE",
"1030 472 LINE",
"1114 1336 LINE",
"1168 1336 LINE",
"1110 492 LINE",
"1110 0 LINE",
"1410 0 LINE",
"1410 1600 LINE",
"930 1600 LINE",
"796 994 LINE",
"772 264 LINE",
"720 264 LINE",
"694 994 LINE",
"562 1600 LINE",
"80 1600 LINE",
"80 0 LINE"
);
}
);
};
layerId = "5013C991-8699-46CB-BB1C-82E334DBD38B";
paths = (
{
closed = 1;
nodes = (
"1410 0 LINE",
"1410 1600 LINE",
"80 1600 LINE",
"80 0 LINE"
);
},
{
closed = 1;
nodes = (
"746 525 LINE",
"918 264 LINE",
"573 264 LINE"
);
},
{
closed = 1;
nodes = (
"380 1080 LINE",
"566 798 LINE",
"380 516 LINE"
);
},
{
closed = 1;
nodes = (
"925 798 LINE",
"1110 1078 LINE",
"1110 517 LINE"
);
},
{
closed = 1;
nodes = (
"571 1336 LINE",
"920 1336 LINE",
"746 1071 LINE"
);
}
);
width = 1490;
},
{
background = {
paths = (
{
closed = 1;
nodes = (
"694 0 LINE",
"694 1600 LINE",
"120 1600 LINE",
"120 0 LINE"
);
},
{
closed = 1;
nodes = (
"407 739 LINE",
"636 40 LINE",
"178 40 LINE"
);
},
{
closed = 1;
nodes = (
"160 1494 LINE",
"386 804 LINE",
"160 114 LINE"
);
},
{
closed = 1;
nodes = (
"428 804 LINE",
"654 1494 LINE",
"654 114 LINE"
);
},
{
closed = 1;
nodes = (
"180 1560 LINE",
"634 1560 LINE",
"407 868 LINE"
);
}
);
};
layerId = "3D06B89B-468F-44E0-A3D7-A5BC6911123E";
paths = (
{
closed = 1;
nodes = (
"694 0 LINE",
"694 1600 LINE",
"120 1600 LINE",
"120 0 LINE"
);
},
{
closed = 1;
nodes = (
"407 739 LINE",
"636 40 LINE",
"178 40 LINE"
);
},
{
closed = 1;
nodes = (
"160 1494 LINE",
"386 804 LINE",
"160 114 LINE"
);
},
{
closed = 1;
nodes = (
"428 804 LINE",
"654 1494 LINE",
"654 114 LINE"
);
},
{
closed = 1;
nodes = (
"180 1560 LINE",
"634 1560 LINE",
"407 868 LINE"
);
}
);
width = 814;
},
{
background = {
paths = (
{
closed = 1;
nodes = (
"874 0 LINE",
"874 1600 LINE",
"110 1600 LINE",
"110 0 LINE"
);
},
{
closed = 1;
nodes = (
"492 657 LINE",
"716 96 LINE",
"268 96 LINE"
);
},
{
closed = 1;
nodes = (
"215 1350 LINE",
"435 800 LINE",
"215 249 LINE"
);
},
{
closed = 1;
nodes = (
"549 799 LINE",
"769 1350 LINE",
"769 249 LINE"
);
},
{
closed = 1;
nodes = (
"267 1504 LINE",
"717 1504 LINE",
"492 942 LINE"
);
}
);
};
layerId = "C9EB94EC-C68D-4931-B320-068DCAB9FADA";
paths = (
{
closed = 1;
nodes = (
"874 0 LINE",
"874 1600 LINE",
"110 1600 LINE",
"110 0 LINE"
);
},
{
closed = 1;
nodes = (
"492 657 LINE",
"716 96 LINE",
"268 96 LINE"
);
},
{
closed = 1;
nodes = (
"215 1350 LINE",
"435 800 LINE",
"215 249 LINE"
);
},
{
closed = 1;
nodes = (
"549 799 LINE",
"769 1350 LINE",
"769 249 LINE"
);
},
{
closed = 1;
nodes = (
"267 1504 LINE",
"717 1504 LINE",
"492 942 LINE"
);
}
);
width = 984;
},
{
background = {
paths = (
{
closed = 1;
nodes = (
"1108 0 LINE",
"1108 1600 LINE",
"125 1600 LINE",
"125 0 LINE"
);
},
{
closed = 1;
nodes = (
"617 642 LINE",
"900 123 LINE",
"334 123 LINE"
);
},
{
closed = 1;
nodes = (
"260 1297 LINE",
"540 783 LINE",
"260 271 LINE"
);
},
{
closed = 1;
nodes = (
"694 783 LINE",
"973 1295 LINE",
"973 273 LINE"
);
},
{
closed = 1;
nodes = (
"315 1477 LINE",
"919 1477 LINE",
"617 924 LINE"
);
}
);
};
layerId = "6F82CFD7-79D5-473B-9D61-BE5DF154BBF2";
paths = (
{
closed = 1;
nodes = (
"1108 0 LINE",
"1108 1600 LINE",
"125 1600 LINE",
"125 0 LINE"
);
},
{
closed = 1;
nodes = (
"617 642 LINE",
"900 123 LINE",
"334 123 LINE"
);
},
{
closed = 1;
nodes = (
"260 1297 LINE",
"540 783 LINE",
"260 271 LINE"
);
},
{
closed = 1;
nodes = (
"694 783 LINE",
"973 1295 LINE",
"973 273 LINE"
);
},
{
closed = 1;
nodes = (
"315 1477 LINE",
"919 1477 LINE",
"617 924 LINE"
);
}
);
width = 1233;
}
);
},
{
glyphname = A;
layers = (
{
anchors = (
{
name = bottom;
position = "{322, 0}";
},
{
name = ogonek;
position = "{538, 0}";
},
{
name = top;
position = "{322, 1600}";
}
);
background = {
anchors = (
{
name = bottom;
position = "{322, 0}";
},
{
name = ogonek;
position = "{538, 0}";
},
{
name = top;
position = "{322, 1600}";
}
);
paths = (
{
closed = 1;
nodes = (
"148 0 LINE",
"192 518 LINE",
"452 518 LINE",
"496 0 LINE",
"578 0 LINE",
"434 1600 LINE",
"210 1600 LINE",
"66 0 LINE"
);
},
{
closed = 1;
nodes = (
"226 922 LINE",
"282 1524 LINE",
"362 1524 LINE",
"418 924 LINE",
"446 594 LINE",
"198 594 LINE"
);
}
);
};
layerId = "3B122060-26E0-4730-9241-82784E6CB359";
paths = (
{
closed = 1;
nodes = (
"148 0 LINE",
"192 518 LINE",
"452 518 LINE",
"496 0 LINE",
"578 0 LINE",
"434 1600 LINE",
"210 1600 LINE",
"66 0 LINE"
);
},
{
closed = 1;
nodes = (
"226 922 LINE",
"282 1524 LINE",
"362 1524 LINE",
"418 924 LINE",
"446 594 LINE",
"198 594 LINE"
);
}
);
width = 644;
},
{
anchors = (
{
name = bottom;
position = "{514, 0}";
},
{
name = ogonek;
position = "{762, 0}";
},
{
name = top;
position = "{514, 1600}";
}
);
background = {
anchors = (
{
name = bottom;
position = "{514, 0}";
},
{
name = ogonek;
position = "{762, 0}";
},
{
name = top;
position = "{514, 1600}";
}
);
paths = (
{
closed = 1;
nodes = (
"344 0 LINE",
"378 334 LINE",
"650 334 LINE",
"684 0 LINE",
"992 0 LINE",
"770 1600 LINE",
"258 1600 LINE",
"36 0 LINE"
);
},
{
closed = 1;
nodes = (
"442 952 LINE",
"466 1336 LINE",
"562 1336 LINE",
"586 952 LINE",
"622 598 LINE",
"406 598 LINE"
);
}
);
};
color = -1;
layerId = "1DFA7D5B-2E97-4B89-827F-FB43F8066DC1";
paths = (
{
closed = 1;
nodes = (
"344 0 LINE",
"378 334 LINE",
"650 334 LINE",
"684 0 LINE",
"992 0 LINE",
"770 1600 LINE",
"258 1600 LINE",
"36 0 LINE"
);
},
{
closed = 1;
nodes = (
"442 952 LINE",
"466 1336 LINE",
"562 1336 LINE",
"586 952 LINE",
"622 598 LINE",
"406 598 LINE"
);
}
);
width = 1028;
},
{
anchors = (
{
name = bottom;
position = "{478, 0}";
},
{
name = ogonek;
position = "{704, 0}";
},
{
name = top;
position = "{478, 1600}";
}
);
color = -1;
layerId = "5013C991-8699-46CB-BB1C-82E334DBD38B";
paths = (
{
closed = 1;
nodes = (
"328 0 LINE",
"362 334 LINE",
"594 334 LINE",
"628 0 LINE",
"936 0 LINE",
"714 1600 LINE",
"242 1600 LINE",
"20 0 LINE"
);
},
{
closed = 1;
nodes = (
"426 952 LINE",
"450 1336 LINE",
"506 1336 LINE",
"530 952 LINE",
"566 598 LINE",
"390 598 LINE"
);
}
);
width = 956;
},
{
anchors = (
{
name = bottom;
position = "{266, 0}";
},
{
name = ogonek;
position = "{448, 2}";
},
{
name = top;
position = "{266, 1600}";
}
);
background = {
anchors = (
{
name = bottom;
position = "{266, 0}";
},
{
name = ogonek;
position = "{448, 2}";
},
{
name = top;
position = "{266, 1600}";
}
);
paths = (
{
closed = 1;
nodes = (
"100 0 LINE",
"146 536 LINE",
"382 536 LINE",
"428 0 LINE",
"468 0 LINE",
"326 1600 LINE",
"202 1600 LINE",
"60 0 LINE"
);
},
{
closed = 1;
nodes = (
"180 922 LINE",
"236 1560 LINE",
"292 1560 LINE",
"348 924 LINE",
"378 576 LINE",
"150 576 LINE"
);
}
);
};
layerId = "3D06B89B-468F-44E0-A3D7-A5BC6911123E";
paths = (
{
closed = 1;
nodes = (
"100 0 LINE",
"146 536 LINE",
"382 536 LINE",
"428 0 LINE",
"468 0 LINE",
"326 1600 LINE",
"202 1600 LINE",
"60 0 LINE"
);
},
{
closed = 1;
nodes = (
"180 922 LINE",
"236 1560 LINE",
"292 1560 LINE",
"348 924 LINE",
"378 576 LINE",
"150 576 LINE"
);
}
);
width = 528;
},
{
anchors = (
{
name = bottom;
position = "{317, 0}";
},
{
name = ogonek;
position = "{510, 2}";
},
{
name = top;
position = "{317, 1600}";
}
);
background = {
anchors = (
{
name = bottom;
position = "{317, 0}";
},
{
name = ogonek;
position = "{510, 2}";
},
{
name = top;
position = "{317, 1600}";
}
);
paths = (
{
closed = 1;
nodes = (
"155 0 LINE",
"198 486 LINE",
"433 486 LINE",
"476 0 LINE",
"583 0 LINE",
"421 1600 LINE",
"210 1600 LINE",
"48 0 LINE"
);
},
{
closed = 1;
nodes = (
"240 930 LINE",
"288 1504 LINE",
"344 1504 LINE",
"392 931 LINE",
"423 582 LINE",
"208 582 LINE"
);
}
);
};
color = -1;
layerId = "C9EB94EC-C68D-4931-B320-068DCAB9FADA";
paths = (
{
closed = 1;
nodes = (
"155 0 LINE",
"198 486 LINE",
"433 486 LINE",
"476 0 LINE",
"583 0 LINE",
"421 1600 LINE",
"210 1600 LINE",
"48 0 LINE"
);
},
{
closed = 1;
nodes = (
"240 930 LINE",
"288 1504 LINE",
"344 1504 LINE",
"392 931 LINE",
"423 582 LINE",
"208 582 LINE"
);
}
);
width = 631;
},
{
anchors = (
{
name = bottom;
position = "{368, 0}";
},
{
name = ogonek;
position = "{592, 0}";
},
{
name = top;
position = "{368, 1600}";
}
);
background = {
anchors = (
{
name = bottom;
position = "{368, 0}";
},
{
name = ogonek;
position = "{592, 0}";
},
{
name = top;
position = "{368, 1600}";
}
);
paths = (
{
closed = 1;
nodes = (
"195 0 LINE",
"236 472 LINE",
"499 472 LINE",
"541 0 LINE",
"679 0 LINE",
"516 1600 LINE",
"220 1600 LINE",
"56 0 LINE"
);
},
{
closed = 1;
nodes = (
"278 930 LINE",
"326 1477 LINE",
"410 1477 LINE",
"458 931 LINE",
"488 595 LINE",
"248 595 LINE"
);
}
);
};
layerId = "6F82CFD7-79D5-473B-9D61-BE5DF154BBF2";
paths = (
{
closed = 1;
nodes = (
"195 0 LINE",
"236 472 LINE",
"499 472 LINE",
"541 0 LINE",
"679 0 LINE",
"516 1600 LINE",
"220 1600 LINE",
"56 0 LINE"
);
},
{
closed = 1;
nodes = (
"278 930 LINE",
"326 1477 LINE",
"410 1477 LINE",
"458 931 LINE",
"488 595 LINE",
"248 595 LINE"
);
}
);
width = 735;
}
);
leftKerningGroup = A;
rightKerningGroup = A;
unicode = 0041;
},
{
glyphname = AE;
layers = (
{
anchors = (
{
name = bottom;
position = "{460, 0}";
},
{
name = ogonek;
position = "{854, 0}";
},
{
name = top;
position = "{544, 1600}";
},
{
name = topleft;
position = "{213, 1847}";
}
);
background = {
anchors = (
{
name = bottom;
position = "{460, 0}";
},
{
name = ogonek;
position = "{854, 0}";
},
{
name = top;
position = "{544, 1600}";
},
{
name = topleft;
position = "{213, 1847}";
}
);
paths = (
{
closed = 1;
nodes = (
"150 0 LINE",
"234 504 LINE",
"476 504 LINE",
"476 0 LINE",
"894 0 LINE",
"894 76 LINE",
"556 76 LINE",
"556 762 LINE",
"874 762 LINE",
"874 838 LINE",
"556 838 LINE",
"556 1524 LINE",
"894 1524 LINE",
"894 1600 LINE",
"334 1600 LINE",
"66 0 LINE"
);
},
{
closed = 1;
nodes = (
"304 914 LINE",
"400 1526 LINE",
"476 1526 LINE",
"476 580 LINE",
"248 580 LINE"
);
}
);
};
layerId = "3B122060-26E0-4730-9241-82784E6CB359";
paths = (
{
closed = 1;
nodes = (
"150 0 LINE",
"234 504 LINE",
"476 504 LINE",
"476 0 LINE",
"894 0 LINE",
"894 76 LINE",
"556 76 LINE",
"556 762 LINE",
"874 762 LINE",
"874 838 LINE",
"556 838 LINE",
"556 1524 LINE",
"894 1524 LINE",
"894 1600 LINE",
"334 1600 LINE",
"66 0 LINE"
);
},
{
closed = 1;
nodes = (
"304 914 LINE",
"400 1526 LINE",
"476 1526 LINE",
"476 580 LINE",
"248 580 LINE"
);
}
);
width = 964;
},
{
anchors = (
{
name = bottom;
position = "{758, 0}";
},
{
name = ogonek;
position = "{1158, 0}";
},
{
name = top;
position = "{858, 1600}";
},
{
name = topleft;
position = "{688, 1600}";
}
);
background = {
anchors = (
{
name = bottom;
position = "{758, 0}";
},
{
name = ogonek;
position = "{1158, 0}";
},
{
name = top;
position = "{858, 1600}";
},
{
name = topleft;
position = "{688, 1600}";
}
);
paths = (
{
closed = 1;
nodes = (
"364 0 LINE",
"436 334 LINE",
"688 334 LINE",
"688 0 LINE",
"1420 0 LINE",
"1420 264 LINE",
"988 264 LINE",
"988 682 LINE",
"1400 682 LINE",
"1400 946 LINE",
"988 946 LINE",
"988 1336 LINE",
"1420 1336 LINE",
"1420 1600 LINE",
"368 1600 LINE",
"36 0 LINE"
);
},
{
closed = 1;
nodes = (
"552 872 LINE",
"596 1336 LINE",
"688 1336 LINE",
"688 598 LINE",
"492 598 LINE"
);
}
);
};
color = -1;
layerId = "1DFA7D5B-2E97-4B89-827F-FB43F8066DC1";
paths = (
{
closed = 1;
nodes = (
"364 0 LINE",
"436 334 LINE",
"688 334 LINE",
"688 0 LINE",
"1420 0 LINE",
"1420 264 LINE",
"988 264 LINE",
"988 682 LINE",
"1400 682 LINE",
"1400 946 LINE",
"988 946 LINE",
"988 1336 LINE",
"1420 1336 LINE",
"1420 1600 LINE",
"368 1600 LINE",
"36 0 LINE"
);
},
{
closed = 1;
nodes = (
"552 872 LINE",
"596 1336 LINE",
"688 1336 LINE",
"688 598 LINE",
"492 598 LINE"
);
}
);
width = 1476;
},
{
anchors = (
{
name = bottom;
position = "{702, 0}";
},
{
name = ogonek;
position = "{1090, 0}";
},
{
name = top;
position = "{802, 1600}";
},
{
name = topleft;
position = "{592, 1600}";
}
);
color = -1;
layerId = "5013C991-8699-46CB-BB1C-82E334DBD38B";
paths = (
{
closed = 1;
nodes = (
"348 0 LINE",
"420 334 LINE",
"632 334 LINE",
"632 0 LINE",
"1324 0 LINE",
"1324 264 LINE",
"932 264 LINE",
"932 682 LINE",
"1304 682 LINE",
"1304 946 LINE",
"932 946 LINE",
"932 1336 LINE",
"1324 1336 LINE",
"1324 1600 LINE",
"352 1600 LINE",
"20 0 LINE"
);
},
{
closed = 1;
nodes = (
"536 872 LINE",
"580 1336 LINE",
"632 1336 LINE",
"632 598 LINE",
"476 598 LINE"
);
}
);
width = 1368;
},
{
anchors = (
{
name = bottom;
position = "{340, 0}";
},
{
name = ogonek;
position = "{574, 0}";
},
{
name = top;
position = "{410, 1600}";
},
{
name = topleft;
position = "{316, 1600}";
}
);
background = {
anchors = (
{
name = bottom;
position = "{340, 0}";
},
{
name = ogonek;
position = "{574, 0}";
},
{
name = top;
position = "{410, 1600}";
},
{
name = topleft;
position = "{316, 1600}";
}
);
paths = (
{
closed = 1;
nodes = (
"100 0 LINE",
"174 536 LINE",
"356 536 LINE",
"356 0 LINE",
"674 0 LINE",
"674 40 LINE",
"396 40 LINE",
"396 780 LINE",
"654 780 LINE",
"654 820 LINE",
"396 820 LINE",
"396 1560 LINE",
"674 1560 LINE",
"674 1600 LINE",
"282 1600 LINE",
"60 0 LINE"
);
},
{
closed = 1;
nodes = (
"226 922 LINE",
"316 1560 LINE",
"356 1560 LINE",
"356 576 LINE",
"178 576 LINE"
);
}
);
};
layerId = "3D06B89B-468F-44E0-A3D7-A5BC6911123E";
paths = (
{
closed = 1;
nodes = (
"100 0 LINE",
"174 536 LINE",
"356 536 LINE",
"356 0 LINE",
"674 0 LINE",
"674 40 LINE",
"396 40 LINE",
"396 780 LINE",
"654 780 LINE",
"654 820 LINE",
"396 820 LINE",
"396 1560 LINE",
"674 1560 LINE",
"674 1600 LINE",
"282 1600 LINE",
"60 0 LINE"
);
},
{
closed = 1;
nodes = (
"226 922 LINE",
"316 1560 LINE",
"356 1560 LINE",
"356 576 LINE",
"178 576 LINE"
);
}
);
width = 724;
},
{
anchors = (
{
name = bottom;
position = "{429, 0}";
},
{
name = ogonek;
position = "{701, 0}";
},
{
name = top;
position = "{506, 1600}";
},
{
name = topleft;
position = "{383, 1600}";
}
);
background = {
anchors = (
{
name = bottom;
position = "{429, 0}";
},
{
name = ogonek;
position = "{701, 0}";
},
{
name = top;
position = "{506, 1600}";
},
{
name = topleft;
position = "{383, 1600}";
}
);
paths = (
{
closed = 1;
nodes = (
"160 0 LINE",
"234 486 LINE",
"423 486 LINE",
"423 0 LINE",
"835 0 LINE",
"835 96 LINE",
"528 96 LINE",
"528 756 LINE",
"815 756 LINE",
"815 852 LINE",
"528 852 LINE",
"528 1504 LINE",
"835 1504 LINE",
"835 1600 LINE",
"298 1600 LINE",
"48 0 LINE"
);
},
{
closed = 1;
nodes = (
"302 910 LINE",
"380 1504 LINE",
"423 1504 LINE",
"423 582 LINE",
"251 582 LINE"
);
}
);
};
color = -1;
layerId = "C9EB94EC-C68D-4931-B320-068DCAB9FADA";
paths = (
{
closed = 1;
nodes = (
"160 0 LINE",
"234 486 LINE",
"423 486 LINE",
"423 0 LINE",
"835 0 LINE",
"835 96 LINE",
"528 96 LINE",
"528 756 LINE",
"815 756 LINE",
"815 852 LINE",
"528 852 LINE",
"528 1504 LINE",
"835 1504 LINE",
"835 1600 LINE",
"298 1600 LINE",
"48 0 LINE"
);
},
{
closed = 1;
nodes = (
"302 910 LINE",
"380 1504 LINE",
"423 1504 LINE",
"423 582 LINE",
"251 582 LINE"
);
}
);
width = 881;
},
{
anchors = (
{
name = bottom;
position = "{532, 0}";
},
{
name = ogonek;
position = "{928, 0}";
},
{
name = top;
position = "{620, 1600}";
},
{
name = topleft;
position = "{542, 1600}";
}
);
background = {
anchors = (
{
name = bottom;
position = "{532, 0}";
},
{
name = ogonek;
position = "{928, 0}";
},
{
name = top;
position = "{620, 1600}";
},
{
name = topleft;
position = "{542, 1600}";
}
);
paths = (
{
closed = 1;
nodes = (
"201 0 LINE",
"282 462 LINE",
"527 462 LINE",
"527 0 LINE",
"1023 0 LINE",
"1023 123 LINE",
"662 123 LINE",
"662 742 LINE",
"1003 742 LINE",
"1003 865 LINE",
"662 865 LINE",
"662 1477 LINE",
"1023 1477 LINE",
"1023 1600 LINE",
"340 1600 LINE",
"56 0 LINE"
);
},
{
closed = 1;
nodes = (
"364 904 LINE",
"447 1479 LINE",
"527 1479 LINE",
"527 585 LINE",
"307 585 LINE"
);
}
);
};
layerId = "6F82CFD7-79D5-473B-9D61-BE5DF154BBF2";
paths = (
{
closed = 1;
nodes = (
"201 0 LINE",
"282 462 LINE",
"527 462 LINE",
"527 0 LINE",
"1023 0 LINE",
"1023 123 LINE",
"662 123 LINE",
"662 742 LINE",
"1003 742 LINE",
"1003 865 LINE",
"662 865 LINE",
"662 1477 LINE",
"1023 1477 LINE",
"1023 1600 LINE",
"340 1600 LINE",
"56 0 LINE"
);
},
{
closed = 1;
nodes = (
"364 904 LINE",
"447 1479 LINE",
"527 1479 LINE",
"527 585 LINE",
"307 585 LINE"
);
}
);
width = 1079;
}
);
leftKerningGroup = A;
leftMetricsKey = A;
rightKerningGroup = E;
rightMetricsKey = E;
unicode = 00C6;
},
{
glyphname = B;
layers = (
{
background = {
paths = (
{
closed = 1;
nodes = (
"386 0 LINE SMOOTH",
"548 0 OFFCURVE",
"614 56 OFFCURVE",
"618 196 CURVE SMOOTH",
"622 352 OFFCURVE",
"624 466 OFFCURVE",
"618 624 CURVE SMOOTH",
"614 718 OFFCURVE",
"578 770 OFFCURVE",
"490 790 CURVE",
"490 810 LINE",
"574 828 OFFCURVE",
"606 880 OFFCURVE",
"610 976 CURVE SMOOTH",
"614 1102 OFFCURVE",
"612 1218 OFFCURVE",
"610 1404 CURVE SMOOTH",
"608 1544 OFFCURVE",
"542 1600 OFFCURVE",
"378 1600 CURVE SMOOTH",
"140 1600 LINE",
"140 0 LINE"
);
},
{
closed = 1;
nodes = (
"220 760 LINE",
"394 760 LINE SMOOTH",
"502 760 OFFCURVE",
"534 730 OFFCURVE",
"538 624 CURVE SMOOTH",
"544 468 OFFCURVE",
"544 352 OFFCURVE",
"538 196 CURVE SMOOTH",
"534 104 OFFCURVE",
"504 80 OFFCURVE",
"386 80 CURVE SMOOTH",
"220 80 LINE"
);
},
{
closed = 1;
nodes = (
"220 1524 LINE",
"378 1524 LINE SMOOTH",
"496 1524 OFFCURVE",
"528 1498 OFFCURVE",
"530 1404 CURVE SMOOTH",
"534 1248 OFFCURVE",
"536 1132 OFFCURVE",
"530 976 CURVE SMOOTH",
"526 870 OFFCURVE",
"502 840 OFFCURVE",
"402 840 CURVE SMOOTH",
"220 840 LINE"
);
}
);
};
layerId = "3B122060-26E0-4730-9241-82784E6CB359";
paths = (
{
closed = 1;
nodes = (
"386 0 LINE SMOOTH",
"548 0 OFFCURVE",
"614 56 OFFCURVE",
"618 196 CURVE SMOOTH",
"622 352 OFFCURVE",
"624 466 OFFCURVE",
"618 624 CURVE SMOOTH",
"614 718 OFFCURVE",
"578 770 OFFCURVE",
"490 790 CURVE",
"490 810 LINE",
"574 828 OFFCURVE",
"606 880 OFFCURVE",
"610 976 CURVE SMOOTH",
"614 1102 OFFCURVE",
"612 1218 OFFCURVE",
"610 1404 CURVE SMOOTH",
"608 1544 OFFCURVE",
"542 1600 OFFCURVE",
"378 1600 CURVE SMOOTH",
"140 1600 LINE",
"140 0 LINE"
);
},
{
closed = 1;
nodes = (
"220 760 LINE",
"394 760 LINE SMOOTH",
"502 760 OFFCURVE",
"534 730 OFFCURVE",
"538 624 CURVE SMOOTH",
"544 468 OFFCURVE",
"544 352 OFFCURVE",
"538 196 CURVE SMOOTH",
"534 104 OFFCURVE",
"504 80 OFFCURVE",
"386 80 CURVE SMOOTH",
"220 80 LINE"
);
},
{
closed = 1;
nodes = (
"220 1524 LINE",
"378 1524 LINE SMOOTH",
"496 1524 OFFCURVE",
"528 1498 OFFCURVE",
"530 1404 CURVE SMOOTH",
"534 1248 OFFCURVE",
"536 1132 OFFCURVE",
"530 976 CURVE SMOOTH",
"526 870 OFFCURVE",
"502 840 OFFCURVE",
"402 840 CURVE SMOOTH",
"220 840 LINE"
);
}
);
width = 734;
},
{
background = {
paths = (
{
closed = 1;
nodes = (
"510 0 LINE SMOOTH",
"808 0 OFFCURVE",
"928 112 OFFCURVE",
"940 390 CURVE SMOOTH",
"942 436 OFFCURVE",
"942 470 OFFCURVE",
"940 514 CURVE SMOOTH",
"934 664 OFFCURVE",
"880 748 OFFCURVE",
"758 788 CURVE",
"758 836 LINE",
"876 876 OFFCURVE",
"928 958 OFFCURVE",
"938 1104 CURVE SMOOTH",
"940 1138 OFFCURVE",
"940 1172 OFFCURVE",
"940 1210 CURVE SMOOTH",
"940 1488 OFFCURVE",
"808 1600 OFFCURVE",
"510 1600 CURVE SMOOTH",
"100 1600 LINE",
"100 0 LINE"
);
},
{
closed = 1;
nodes = (
"400 682 LINE",
"510 682 LINE SMOOTH",
"602 682 OFFCURVE",
"640 632 OFFCURVE",
"640 500 CURVE SMOOTH",
"640 464 OFFCURVE",
"640 430 OFFCURVE",
"640 394 CURVE SMOOTH",
"640 310 OFFCURVE",
"594 264 OFFCURVE",
"510 264 CURVE SMOOTH",
"400 264 LINE"
);
},
{
closed = 1;
nodes = (
"400 1336 LINE",
"510 1336 LINE SMOOTH",
"594 1336 OFFCURVE",
"640 1296 OFFCURVE",
"640 1226 CURVE SMOOTH",
"640 1188 OFFCURVE",
"640 1150 OFFCURVE",
"640 1112 CURVE SMOOTH",
"640 1006 OFFCURVE",
"594 946 OFFCURVE",
"510 946 CURVE SMOOTH",
"400 946 LINE"
);
}
);
};
layerId = "1DFA7D5B-2E97-4B89-827F-FB43F8066DC1";
paths = (
{
closed = 1;
nodes = (
"510 0 LINE SMOOTH",
"808 0 OFFCURVE",
"928 112 OFFCURVE",
"940 390 CURVE SMOOTH",
"942 436 OFFCURVE",
"942 470 OFFCURVE",
"940 514 CURVE SMOOTH",
"934 664 OFFCURVE",
"880 748 OFFCURVE",
"758 788 CURVE",
"758 836 LINE",
"876 876 OFFCURVE",
"928 958 OFFCURVE",
"938 1104 CURVE SMOOTH",
"940 1138 OFFCURVE",
"940 1172 OFFCURVE",
"940 1210 CURVE SMOOTH",
"940 1488 OFFCURVE",
"808 1600 OFFCURVE",
"510 1600 CURVE SMOOTH",
"100 1600 LINE",
"100 0 LINE"
);
},
{
closed = 1;
nodes = (
"400 682 LINE",
"510 682 LINE SMOOTH",
"602 682 OFFCURVE",
"640 632 OFFCURVE",
"640 500 CURVE SMOOTH",
"640 464 OFFCURVE",
"640 430 OFFCURVE",
"640 394 CURVE SMOOTH",
"640 310 OFFCURVE",
"594 264 OFFCURVE",
"510 264 CURVE SMOOTH",
"400 264 LINE"
);
},
{
closed = 1;
nodes = (
"400 1336 LINE",
"510 1336 LINE SMOOTH",
"594 1336 OFFCURVE",
"640 1296 OFFCURVE",
"640 1226 CURVE SMOOTH",
"640 1188 OFFCURVE",
"640 1150 OFFCURVE",
"640 1112 CURVE SMOOTH",
"640 1006 OFFCURVE",
"594 946 OFFCURVE",
"510 946 CURVE SMOOTH",
"400 946 LINE"
);
}
);
width = 1007;
},
{
layerId = "5013C991-8699-46CB-BB1C-82E334DBD38B";
paths = (
{
closed = 1;
nodes = (
"450 0 LINE SMOOTH",
"748 0 OFFCURVE",
"868 112 OFFCURVE",
"880 390 CURVE SMOOTH",
"882 436 OFFCURVE",
"882 470 OFFCURVE",
"880 514 CURVE SMOOTH",
"874 664 OFFCURVE",
"820 748 OFFCURVE",
"698 788 CURVE",
"698 836 LINE",
"816 876 OFFCURVE",
"868 958 OFFCURVE",
"878 1104 CURVE SMOOTH",
"880 1138 OFFCURVE",
"880 1172 OFFCURVE",
"880 1210 CURVE SMOOTH",
"880 1488 OFFCURVE",
"748 1600 OFFCURVE",
"450 1600 CURVE SMOOTH",
"80 1600 LINE",
"80 0 LINE"
);
},
{
closed = 1;
nodes = (
"380 682 LINE",
"450 682 LINE SMOOTH",
"542 682 OFFCURVE",
"580 632 OFFCURVE",
"580 500 CURVE SMOOTH",
"580 464 OFFCURVE",
"580 430 OFFCURVE",
"580 394 CURVE SMOOTH",
"580 310 OFFCURVE",
"534 264 OFFCURVE",
"450 264 CURVE SMOOTH",
"380 264 LINE"
);
},
{
closed = 1;
nodes = (
"380 1336 LINE",
"450 1336 LINE SMOOTH",
"534 1336 OFFCURVE",
"580 1296 OFFCURVE",
"580 1226 CURVE SMOOTH",
"580 1188 OFFCURVE",
"580 1150 OFFCURVE",
"580 1112 CURVE SMOOTH",
"580 1006 OFFCURVE",
"534 946 OFFCURVE",
"450 946 CURVE SMOOTH",
"380 946 LINE"
);
}
);
width = 945;
},
{
background = {
paths = (
{
closed = 1;
nodes = (
"286 0 LINE SMOOTH",
"404 0 OFFCURVE",
"454 54 OFFCURVE",
"458 186 CURVE SMOOTH",
"462 342 OFFCURVE",
"462 466 OFFCURVE",
"458 624 CURVE SMOOTH",
"456 714 OFFCURVE",
"430 764 OFFCURVE",
"370 784 CURVE",
"370 814 LINE",
"428 836 OFFCURVE",
"454 884 OFFCURVE",
"456 976 CURVE SMOOTH",
"460 1102 OFFCURVE",
"460 1228 OFFCURVE",
"456 1414 CURVE SMOOTH",
"452 1546 OFFCURVE",
"402 1600 OFFCURVE",
"284 1600 CURVE SMOOTH",
"120 1600 LINE",
"120 0 LINE"
);
},
{
closed = 1;
nodes = (
"160 780 LINE",
"274 780 LINE SMOOTH",
"372 780 OFFCURVE",
"414 736 OFFCURVE",
"418 624 CURVE SMOOTH",
"424 468 OFFCURVE",
"424 342 OFFCURVE",
"418 186 CURVE SMOOTH",
"414 82 OFFCURVE",
"376 40 OFFCURVE",
"286 40 CURVE SMOOTH",
"160 40 LINE"
);
},
{
closed = 1;
nodes = (
"160 1560 LINE",
"284 1560 LINE SMOOTH",
"374 1560 OFFCURVE",
"412 1518 OFFCURVE",
"416 1414 CURVE SMOOTH",
"422 1258 OFFCURVE",
"422 1132 OFFCURVE",
"416 976 CURVE SMOOTH",
"412 864 OFFCURVE",
"374 820 OFFCURVE",
"282 820 CURVE SMOOTH",
"160 820 LINE"
);
}
);
};
layerId = "3D06B89B-468F-44E0-A3D7-A5BC6911123E";
paths = (
{
closed = 1;
nodes = (
"286 0 LINE SMOOTH",
"404 0 OFFCURVE",
"454 54 OFFCURVE",
"458 186 CURVE SMOOTH",
"462 342 OFFCURVE",
"462 466 OFFCURVE",
"458 624 CURVE SMOOTH",
"456 714 OFFCURVE",
"430 764 OFFCURVE",
"370 784 CURVE",
"370 814 LINE",
"428 836 OFFCURVE",
"454 884 OFFCURVE",
"456 976 CURVE SMOOTH",
"460 1102 OFFCURVE",
"460 1228 OFFCURVE",
"456 1414 CURVE SMOOTH",
"452 1546 OFFCURVE",
"402 1600 OFFCURVE",
"284 1600 CURVE SMOOTH",
"120 1600 LINE",
"120 0 LINE"
);
},
{
closed = 1;
nodes = (
"160 780 LINE",
"274 780 LINE SMOOTH",
"372 780 OFFCURVE",
"414 736 OFFCURVE",
"418 624 CURVE SMOOTH",
"424 468 OFFCURVE",
"424 342 OFFCURVE",
"418 186 CURVE SMOOTH",
"414 82 OFFCURVE",
"376 40 OFFCURVE",
"286 40 CURVE SMOOTH",
"160 40 LINE"
);
},
{
closed = 1;
nodes = (
"160 1560 LINE",
"284 1560 LINE SMOOTH",
"374 1560 OFFCURVE",
"412 1518 OFFCURVE",
"416 1414 CURVE SMOOTH",
"422 1258 OFFCURVE",
"422 1132 OFFCURVE",
"416 976 CURVE SMOOTH",
"412 864 OFFCURVE",
"374 820 OFFCURVE",
"282 820 CURVE SMOOTH",
"160 820 LINE"
);
}
);
width = 559;
},
{
background = {
paths = (
{
closed = 1;
nodes = (
"327 0 LINE SMOOTH",
"490 0 OFFCURVE",
"558 69 OFFCURVE",
"564 237 CURVE SMOOTH",
"567 366 OFFCURVE",
"567 467 OFFCURVE",
"564 597 CURVE SMOOTH",
"561 702 OFFCURVE",
"528 760 OFFCURVE",
"452 785 CURVE",
"452 820 LINE",
"525 846 OFFCURVE",
"558 903 OFFCURVE",
"562 1008 CURVE SMOOTH",
"565 1111 OFFCURVE",
"565 1214 OFFCURVE",
"562 1363 CURVE SMOOTH",
"559 1532 OFFCURVE",
"489 1600 OFFCURVE",
"326 1600 CURVE SMOOTH",
"110 1600 LINE",
"110 0 LINE"
);
},
{
closed = 1;
nodes = (
"215 756 LINE",
"318 756 LINE SMOOTH",
"415 756 OFFCURVE",
"456 710 OFFCURVE",
"459 593 CURVE SMOOTH",
"463 467 OFFCURVE",
"463 364 OFFCURVE",
"459 238 CURVE SMOOTH",
"456 139 OFFCURVE",
"416 96 OFFCURVE",
"327 96 CURVE SMOOTH",
"215 96 LINE"
);
},
{
closed = 1;
nodes = (
"215 1504 LINE",
"326 1504 LINE SMOOTH",
"414 1504 OFFCURVE",
"454 1463 OFFCURVE",
"457 1367 CURVE SMOOTH",
"462 1241 OFFCURVE",
"462 1137 OFFCURVE",
"457 1010 CURVE SMOOTH",
"454 900 OFFCURVE",
"414 852 OFFCURVE",
"324 852 CURVE SMOOTH",
"215 852 LINE"
);
}
);
};
layerId = "C9EB94EC-C68D-4931-B320-068DCAB9FADA";
paths = (
{
closed = 1;
nodes = (
"327 0 LINE SMOOTH",
"490 0 OFFCURVE",
"558 69 OFFCURVE",
"564 237 CURVE SMOOTH",
"567 366 OFFCURVE",
"567 467 OFFCURVE",
"564 597 CURVE SMOOTH",
"561 702 OFFCURVE",
"528 760 OFFCURVE",
"452 785 CURVE",
"452 820 LINE",
"525 846 OFFCURVE",
"558 903 OFFCURVE",
"562 1008 CURVE SMOOTH",
"565 1111 OFFCURVE",
"565 1214 OFFCURVE",
"562 1363 CURVE SMOOTH",
"559 1532 OFFCURVE",
"489 1600 OFFCURVE",
"326 1600 CURVE SMOOTH",
"110 1600 LINE",
"110 0 LINE"
);
},
{
closed = 1;
nodes = (
"215 756 LINE",
"318 756 LINE SMOOTH",
"415 756 OFFCURVE",
"456 710 OFFCURVE",
"459 593 CURVE SMOOTH",
"463 467 OFFCURVE",
"463 364 OFFCURVE",
"459 238 CURVE SMOOTH",
"456 139 OFFCURVE",
"416 96 OFFCURVE",
"327 96 CURVE SMOOTH",
"215 96 LINE"
);
},
{
closed = 1;
nodes = (
"215 1504 LINE",
"326 1504 LINE SMOOTH",
"414 1504 OFFCURVE",
"454 1463 OFFCURVE",
"457 1367 CURVE SMOOTH",
"462 1241 OFFCURVE",
"462 1137 OFFCURVE",
"457 1010 CURVE SMOOTH",
"454 900 OFFCURVE",
"414 852 OFFCURVE",
"324 852 CURVE SMOOTH",
"215 852 LINE"
);
}
);
width = 651;
},
{
background = {
paths = (
{
closed = 1;
nodes = (
"412 0 LINE SMOOTH",
"608 0 OFFCURVE",
"688 70 OFFCURVE",
"694 245 CURVE SMOOTH",
"697 373 OFFCURVE",
"699 467 OFFCURVE",
"694 597 CURVE SMOOTH",
"689 705 OFFCURVE",
"649 765 OFFCURVE",
"552 790 CURVE",
"552 817 LINE",
"645 840 OFFCURVE",
"682 900 OFFCURVE",
"687 1008 CURVE SMOOTH",
"691 1111 OFFCURVE",
"689 1207 OFFCURVE",
"688 1356 CURVE SMOOTH",
"686 1530 OFFCURVE",
"604 1600 OFFCURVE",
"406 1600 CURVE SMOOTH",
"125 1600 LINE",
"125 0 LINE"
);
},
{
closed = 1;
nodes = (
"260 741 LINE",
"418 741 LINE SMOOTH",
"522 741 OFFCURVE",
"556 706 OFFCURVE",
"559 593 CURVE SMOOTH",
"563 467 OFFCURVE",
"563 372 OFFCURVE",
"559 246 CURVE SMOOTH",
"556 156 OFFCURVE",
"522 126 OFFCURVE",
"412 126 CURVE SMOOTH",
"260 126 LINE"
);
},
{
closed = 1;
nodes = (
"260 1477 LINE",
"406 1477 LINE SMOOTH",
"516 1477 OFFCURVE",
"551 1448 OFFCURVE",
"553 1360 CURVE SMOOTH",
"556 1233 OFFCURVE",
"557 1137 OFFCURVE",
"553 1010 CURVE SMOOTH",
"550 904 OFFCURVE",
"520 867 OFFCURVE",
"424 867 CURVE SMOOTH",
"260 867 LINE"
);
}
);
};
layerId = "6F82CFD7-79D5-473B-9D61-BE5DF154BBF2";
paths = (
{
closed = 1;
nodes = (
"412 0 LINE SMOOTH",
"608 0 OFFCURVE",
"688 70 OFFCURVE",
"694 245 CURVE SMOOTH",
"697 373 OFFCURVE",
"699 467 OFFCURVE",
"694 597 CURVE SMOOTH",
"689 705 OFFCURVE",
"649 765 OFFCURVE",
"552 790 CURVE",
"552 817 LINE",
"645 840 OFFCURVE",
"682 900 OFFCURVE",
"687 1008 CURVE SMOOTH",
"691 1111 OFFCURVE",
"689 1207 OFFCURVE",
"688 1356 CURVE SMOOTH",
"686 1530 OFFCURVE",
"604 1600 OFFCURVE",
"406 1600 CURVE SMOOTH",
"125 1600 LINE",
"125 0 LINE"
);
},
{
closed = 1;
nodes = (
"260 741 LINE",
"418 741 LINE SMOOTH",
"522 741 OFFCURVE",
"556 706 OFFCURVE",
"559 593 CURVE SMOOTH",
"563 467 OFFCURVE",
"563 372 OFFCURVE",
"559 246 CURVE SMOOTH",
"556 156 OFFCURVE",
"522 126 OFFCURVE",
"412 126 CURVE SMOOTH",
"260 126 LINE"
);
},
{
closed = 1;
nodes = (
"260 1477 LINE",
"406 1477 LINE SMOOTH",
"516 1477 OFFCURVE",
"551 1448 OFFCURVE",
"553 1360 CURVE SMOOTH",
"556 1233 OFFCURVE",
"557 1137 OFFCURVE",
"553 1010 CURVE SMOOTH",
"550 904 OFFCURVE",
"520 867 OFFCURVE",
"424 867 CURVE SMOOTH",
"260 867 LINE"
);
}
);
width = 794;
}
);
leftKerningGroup = H;
leftMetricsKey = H;
rightKerningGroup = B;
unicode = 0042;
},
{
glyphname = C;
layers = (
{
anchors = (
{
name = bottom;
position = "{352, 0}";
},
{
name = top;
position = "{352, 1600}";
}
);
background = {
anchors = (
{
name = bottom;
position = "{352, 0}";
},
{
name = top;
position = "{352, 1600}";
}
);
paths = (
{
closed = 1;
nodes = (
"522 -12 OFFCURVE",
"598 46 OFFCURVE",
"606 194 CURVE SMOOTH",
"612 308 OFFCURVE",
"610 400 OFFCURVE",
"604 564 CURVE",
"524 564 LINE",
"528 378 OFFCURVE",
"530 286 OFFCURVE",
"526 194 CURVE SMOOTH",
"522 92 OFFCURVE",
"478 64 OFFCURVE",
"352 64 CURVE SMOOTH",
"238 64 OFFCURVE",
"196 92 OFFCURVE",
"194 194 CURVE SMOOTH",
"184 686 OFFCURVE",
"184 912 OFFCURVE",
"194 1402 CURVE SMOOTH",
"196 1504 OFFCURVE",
"238 1532 OFFCURVE",
"350 1532 CURVE SMOOTH",
"472 1532 OFFCURVE",
"514 1504 OFFCURVE",
"518 1402 CURVE SMOOTH",
"522 1276 OFFCURVE",
"522 1194 OFFCURVE",
"518 1068 CURVE",
"598 1068 LINE",
"604 1194 OFFCURVE",
"604 1276 OFFCURVE",
"598 1402 CURVE SMOOTH",
"590 1550 OFFCURVE",
"516 1608 OFFCURVE",
"350 1608 CURVE SMOOTH",
"190 1608 OFFCURVE",
"116 1550 OFFCURVE",
"114 1402 CURVE SMOOTH",
"108 958 OFFCURVE",
"108 640 OFFCURVE",
"114 194 CURVE SMOOTH",
"116 46 OFFCURVE",
"192 -12 OFFCURVE",
"352 -12 CURVE SMOOTH"
);
}
);
};
layerId = "3B122060-26E0-4730-9241-82784E6CB359";
paths = (
{
closed = 1;
nodes = (
"522 -12 OFFCURVE",
"598 46 OFFCURVE",
"606 194 CURVE SMOOTH",
"612 308 OFFCURVE",
"610 400 OFFCURVE",
"604 564 CURVE",
"524 564 LINE",
"528 378 OFFCURVE",
"530 286 OFFCURVE",
"526 194 CURVE SMOOTH",
"522 92 OFFCURVE",
"478 64 OFFCURVE",
"352 64 CURVE SMOOTH",
"238 64 OFFCURVE",
"196 92 OFFCURVE",
"194 194 CURVE SMOOTH",
"184 686 OFFCURVE",
"184 912 OFFCURVE",
"194 1402 CURVE SMOOTH",
"196 1504 OFFCURVE",
"238 1532 OFFCURVE",
"350 1532 CURVE SMOOTH",
"472 1532 OFFCURVE",
"514 1504 OFFCURVE",
"518 1402 CURVE SMOOTH",
"522 1276 OFFCURVE",
"522 1194 OFFCURVE",
"518 1068 CURVE",
"598 1068 LINE",
"604 1194 OFFCURVE",
"604 1276 OFFCURVE",
"598 1402 CURVE SMOOTH",
"590 1550 OFFCURVE",
"516 1608 OFFCURVE",
"350 1608 CURVE SMOOTH",
"190 1608 OFFCURVE",
"116 1550 OFFCURVE",
"114 1402 CURVE SMOOTH",
"108 958 OFFCURVE",
"108 640 OFFCURVE",
"114 194 CURVE SMOOTH",
"116 46 OFFCURVE",
"192 -12 OFFCURVE",
"352 -12 CURVE SMOOTH"
);
}
);
width = 690;
},
{
anchors = (
{
name = bottom;
position = "{520, 0}";
},
{
name = top;
position = "{520, 1600}";
}
);
background = {
anchors = (
{
name = bottom;
position = "{520, 0}";
},
{
name = top;
position = "{520, 1600}";
}
);
paths = (
{
closed = 1;
nodes = (
"838 -20 OFFCURVE",
"964 94 OFFCURVE",
"972 382 CURVE SMOOTH",
"974 446 OFFCURVE",
"974 536 OFFCURVE",
"972 600 CURVE",
"672 600 LINE",
"676 510 OFFCURVE",
"676 452 OFFCURVE",
"672 366 CURVE SMOOTH",
"668 264 OFFCURVE",
"628 224 OFFCURVE",
"528 224 CURVE SMOOTH",
"430 224 OFFCURVE",
"388 264 OFFCURVE",
"386 366 CURVE SMOOTH",
"378 658 OFFCURVE",
"378 942 OFFCURVE",
"386 1236 CURVE SMOOTH",
"388 1336 OFFCURVE",
"430 1376 OFFCURVE",
"528 1376 CURVE SMOOTH",
"622 1376 OFFCURVE",
"662 1336 OFFCURVE",
"664 1236 CURVE SMOOTH",
"666 1162 OFFCURVE",
"664 1074 OFFCURVE",
"662 1000 CURVE",
"962 1000 LINE",
"964 1066 OFFCURVE",
"966 1154 OFFCURVE",
"964 1220 CURVE SMOOTH",
"956 1492 OFFCURVE",
"822 1620 OFFCURVE",
"528 1620 CURVE SMOOTH",
"226 1620 OFFCURVE",
"90 1498 OFFCURVE",
"86 1222 CURVE SMOOTH",
"80 920 OFFCURVE",
"80 680 OFFCURVE",
"86 382 CURVE SMOOTH",
"92 94 OFFCURVE",
"218 -20 OFFCURVE",
"528 -20 CURVE SMOOTH"
);
}
);
};
layerId = "1DFA7D5B-2E97-4B89-827F-FB43F8066DC1";
paths = (
{
closed = 1;
nodes = (
"838 -20 OFFCURVE",
"964 94 OFFCURVE",
"972 382 CURVE SMOOTH",
"974 446 OFFCURVE",
"974 536 OFFCURVE",
"972 600 CURVE",
"672 600 LINE",
"676 510 OFFCURVE",
"676 452 OFFCURVE",
"672 366 CURVE SMOOTH",
"668 264 OFFCURVE",
"628 224 OFFCURVE",
"528 224 CURVE SMOOTH",
"430 224 OFFCURVE",
"388 264 OFFCURVE",
"386 366 CURVE SMOOTH",
"378 658 OFFCURVE",
"378 942 OFFCURVE",
"386 1236 CURVE SMOOTH",
"388 1336 OFFCURVE",
"430 1376 OFFCURVE",
"528 1376 CURVE SMOOTH",
"622 1376 OFFCURVE",
"662 1336 OFFCURVE",
"664 1236 CURVE SMOOTH",
"666 1162 OFFCURVE",
"664 1074 OFFCURVE",
"662 1000 CURVE",
"962 1000 LINE",
"964 1066 OFFCURVE",
"966 1154 OFFCURVE",
"964 1220 CURVE SMOOTH",
"956 1492 OFFCURVE",
"822 1620 OFFCURVE",
"528 1620 CURVE SMOOTH",
"226 1620 OFFCURVE",
"90 1498 OFFCURVE",
"86 1222 CURVE SMOOTH",
"80 920 OFFCURVE",
"80 680 OFFCURVE",
"86 382 CURVE SMOOTH",
"92 94 OFFCURVE",
"218 -20 OFFCURVE",
"528 -20 CURVE SMOOTH"
);
}
);
width = 1035;
},
{
anchors = (
{
name = bottom;
position = "{487, 0}";
},
{
name = top;
position = "{487, 1600}";
}
);
layerId = "5013C991-8699-46CB-BB1C-82E334DBD38B";
paths = (
{
closed = 1;
nodes = (
"789 -20 OFFCURVE",
"911 94 OFFCURVE",
"919 382 CURVE SMOOTH",
"921 446 OFFCURVE",
"921 536 OFFCURVE",
"919 600 CURVE",
"619 600 LINE",
"621 528 OFFCURVE",
"621 398 OFFCURVE",
"619 326 CURVE SMOOTH",
"617 260 OFFCURVE",
"573 224 OFFCURVE",
"495 224 CURVE SMOOTH",
"419 224 OFFCURVE",
"375 260 OFFCURVE",
"373 326 CURVE SMOOTH",
"363 604 OFFCURVE",
"363 996 OFFCURVE",
"373 1276 CURVE SMOOTH",
"375 1340 OFFCURVE",
"419 1376 OFFCURVE",
"495 1376 CURVE SMOOTH",
"567 1376 OFFCURVE",
"609 1340 OFFCURVE",
"611 1276 CURVE SMOOTH",
"613 1202 OFFCURVE",
"611 1074 OFFCURVE",
"609 1000 CURVE",
"909 1000 LINE",
"911 1066 OFFCURVE",
"913 1154 OFFCURVE",
"911 1220 CURVE SMOOTH",
"903 1506 OFFCURVE",
"783 1620 OFFCURVE",
"495 1620 CURVE SMOOTH",
"201 1620 OFFCURVE",
"77 1466 OFFCURVE",
"73 1222 CURVE SMOOTH",
"69 996 OFFCURVE",
"69 604 OFFCURVE",
"73 382 CURVE SMOOTH",
"79 94 OFFCURVE",
"193 -20 OFFCURVE",
"495 -20 CURVE SMOOTH"
);
}
);
width = 980;
},
{
anchors = (
{
name = bottom;
position = "{274, 0}";
},
{
name = top;
position = "{274, 1600}";
}
);
background = {
anchors = (
{
name = bottom;
position = "{274, 0}";
},
{
name = top;
position = "{274, 1600}";
}
);
paths = (
{
closed = 1;
nodes = (
"406 -12 OFFCURVE",
"458 42 OFFCURVE",
"462 174 CURVE SMOOTH",
"466 314 OFFCURVE",
"464 424 OFFCURVE",
"460 564 CURVE",
"420 564 LINE",
"422 434 OFFCURVE",
"424 304 OFFCURVE",
"422 174 CURVE SMOOTH",
"420 66 OFFCURVE",
"384 28 OFFCURVE",
"278 28 CURVE SMOOTH",
"184 28 OFFCURVE",
"152 66 OFFCURVE",
"150 174 CURVE SMOOTH",
"142 636 OFFCURVE",
"142 962 OFFCURVE",
"150 1422 CURVE SMOOTH",
"152 1532 OFFCURVE",
"184 1568 OFFCURVE",
"276 1568 CURVE SMOOTH",
"378 1568 OFFCURVE",
"412 1532 OFFCURVE",
"414 1422 CURVE SMOOTH",
"416 1304 OFFCURVE",
"416 1186 OFFCURVE",
"414 1068 CURVE",
"454 1068 LINE",
"456 1150 OFFCURVE",
"456 1340 OFFCURVE",
"454 1422 CURVE SMOOTH",
"450 1554 OFFCURVE",
"398 1608 OFFCURVE",
"276 1608 CURVE SMOOTH",
"160 1608 OFFCURVE",
"112 1556 OFFCURVE",
"110 1422 CURVE SMOOTH",
"102 962 OFFCURVE",
"102 636 OFFCURVE",
"110 174 CURVE SMOOTH",
"112 42 OFFCURVE",
"160 -12 OFFCURVE",
"278 -12 CURVE SMOOTH"
);
}
);
};
layerId = "3D06B89B-468F-44E0-A3D7-A5BC6911123E";
paths = (
{
closed = 1;
nodes = (
"406 -12 OFFCURVE",
"458 42 OFFCURVE",
"462 174 CURVE SMOOTH",
"466 314 OFFCURVE",
"464 424 OFFCURVE",
"460 564 CURVE",
"420 564 LINE",
"422 434 OFFCURVE",
"424 304 OFFCURVE",
"422 174 CURVE SMOOTH",
"420 66 OFFCURVE",
"384 28 OFFCURVE",
"278 28 CURVE SMOOTH",
"184 28 OFFCURVE",
"152 66 OFFCURVE",
"150 174 CURVE SMOOTH",
"142 636 OFFCURVE",
"142 962 OFFCURVE",
"150 1422 CURVE SMOOTH",
"152 1532 OFFCURVE",
"184 1568 OFFCURVE",
"276 1568 CURVE SMOOTH",
"378 1568 OFFCURVE",
"412 1532 OFFCURVE",
"414 1422 CURVE SMOOTH",
"416 1304 OFFCURVE",
"416 1186 OFFCURVE",
"414 1068 CURVE",
"454 1068 LINE",
"456 1150 OFFCURVE",
"456 1340 OFFCURVE",
"454 1422 CURVE SMOOTH",
"450 1554 OFFCURVE",
"398 1608 OFFCURVE",
"276 1608 CURVE SMOOTH",
"160 1608 OFFCURVE",
"112 1556 OFFCURVE",
"110 1422 CURVE SMOOTH",
"102 962 OFFCURVE",
"102 636 OFFCURVE",
"110 174 CURVE SMOOTH",
"112 42 OFFCURVE",
"160 -12 OFFCURVE",
"278 -12 CURVE SMOOTH"
);
}
);
width = 548;
},
{
anchors = (
{
name = bottom;
position = "{327, 0}";
},
{
name = top;
position = "{327, 1600}";
}
);
background = {
anchors = (
{
name = bottom;
position = "{327, 0}";
},
{
name = top;
position = "{327, 1600}";
}
);
paths = (
{
closed = 1;
nodes = (
"501 -14 OFFCURVE",
"571 55 OFFCURVE",
"576 226 CURVE SMOOTH",
"579 347 OFFCURVE",
"578 452 OFFCURVE",
"574 573 CURVE",
"469 573 LINE",
"471 458 OFFCURVE",
"473 328 OFFCURVE",
"471 212 CURVE SMOOTH",
"469 115 OFFCURVE",
"431 77 OFFCURVE",
"332 77 CURVE SMOOTH",
"242 77 OFFCURVE",
"207 115 OFFCURVE",
"205 212 CURVE SMOOTH",
"197 628 OFFCURVE",
"197 971 OFFCURVE",
"205 1386 CURVE SMOOTH",
"207 1484 OFFCURVE",
"242 1520 OFFCURVE",
"330 1520 CURVE SMOOTH",
"425 1520 OFFCURVE",
"461 1484 OFFCURVE",
"463 1386 CURVE SMOOTH",
"465 1279 OFFCURVE",
"464 1158 OFFCURVE",
"462 1051 CURVE",
"567 1051 LINE",
"569 1129 OFFCURVE",
"570 1294 OFFCURVE",
"568 1372 CURVE SMOOTH",
"563 1542 OFFCURVE",
"494 1611 OFFCURVE",
"330 1611 CURVE SMOOTH",
"170 1611 OFFCURVE",
"103 1534 OFFCURVE",
"100 1372 CURVE SMOOTH",
"93 971 OFFCURVE",
"93 628 OFFCURVE",
"100 226 CURVE SMOOTH",
"103 55 OFFCURVE",
"168 -14 OFFCURVE",
"332 -14 CURVE SMOOTH"
);
}
);
};
layerId = "C9EB94EC-C68D-4931-B320-068DCAB9FADA";
paths = (
{
closed = 1;
nodes = (
"501 -14 OFFCURVE",
"571 55 OFFCURVE",
"576 226 CURVE SMOOTH",
"579 347 OFFCURVE",
"578 452 OFFCURVE",
"574 573 CURVE",
"469 573 LINE",
"471 458 OFFCURVE",
"473 328 OFFCURVE",
"471 212 CURVE SMOOTH",
"469 115 OFFCURVE",
"431 77 OFFCURVE",
"332 77 CURVE SMOOTH",
"242 77 OFFCURVE",
"207 115 OFFCURVE",
"205 212 CURVE SMOOTH",
"197 628 OFFCURVE",
"197 971 OFFCURVE",
"205 1386 CURVE SMOOTH",
"207 1484 OFFCURVE",
"242 1520 OFFCURVE",
"330 1520 CURVE SMOOTH",
"425 1520 OFFCURVE",
"461 1484 OFFCURVE",
"463 1386 CURVE SMOOTH",
"465 1279 OFFCURVE",
"464 1158 OFFCURVE",
"462 1051 CURVE",
"567 1051 LINE",
"569 1129 OFFCURVE",
"570 1294 OFFCURVE",
"568 1372 CURVE SMOOTH",
"563 1542 OFFCURVE",
"494 1611 OFFCURVE",
"330 1611 CURVE SMOOTH",
"170 1611 OFFCURVE",
"103 1534 OFFCURVE",
"100 1372 CURVE SMOOTH",
"93 971 OFFCURVE",
"93 628 OFFCURVE",
"100 226 CURVE SMOOTH",
"103 55 OFFCURVE",
"168 -14 OFFCURVE",
"332 -14 CURVE SMOOTH"
);
}
);
width = 653;
},
{
anchors = (
{
name = bottom;
position = "{401, 0}";
},
{
name = top;
position = "{401, 1600}";
}
);
background = {
anchors = (
{
name = bottom;
position = "{401, 0}";
},
{
name = top;
position = "{401, 1600}";
}
);
paths = (
{
closed = 1;
nodes = (
"608 -14 OFFCURVE",
"697 58 OFFCURVE",
"705 241 CURVE SMOOTH",
"710 343 OFFCURVE",
"708 434 OFFCURVE",
"703 573 CURVE",
"568 573 LINE",
"572 411 OFFCURVE",
"574 328 OFFCURVE",
"570 237 CURVE SMOOTH",
"566 135 OFFCURVE",
"523 104 OFFCURVE",
"403 104 CURVE SMOOTH",
"293 104 OFFCURVE",
"251 135 OFFCURVE",
"249 237 CURVE SMOOTH",
"240 679 OFFCURVE",
"240 920 OFFCURVE",
"249 1361 CURVE SMOOTH",
"251 1462 OFFCURVE",
"293 1493 OFFCURVE",
"402 1493 CURVE SMOOTH",
"517 1493 OFFCURVE",
"558 1462 OFFCURVE",
"562 1361 CURVE SMOOTH",
"565 1248 OFFCURVE",
"565 1164 OFFCURVE",
"561 1051 CURVE",
"696 1051 LINE",
"701 1162 OFFCURVE",
"702 1246 OFFCURVE",
"697 1357 CURVE SMOOTH",
"689 1536 OFFCURVE",
"600 1611 OFFCURVE",
"402 1611 CURVE SMOOTH",
"206 1611 OFFCURVE",
"117 1537 OFFCURVE",
"114 1357 CURVE SMOOTH",
"108 949 OFFCURVE",
"108 650 OFFCURVE",
"114 241 CURVE SMOOTH",
"117 58 OFFCURVE",
"206 -14 OFFCURVE",
"403 -14 CURVE SMOOTH"
);
}
);
};
layerId = "6F82CFD7-79D5-473B-9D61-BE5DF154BBF2";
paths = (
{
closed = 1;
nodes = (
"608 -14 OFFCURVE",
"697 58 OFFCURVE",
"705 241 CURVE SMOOTH",
"710 343 OFFCURVE",
"708 434 OFFCURVE",
"703 573 CURVE",
"568 573 LINE",
"572 411 OFFCURVE",
"574 328 OFFCURVE",
"570 237 CURVE SMOOTH",
"566 135 OFFCURVE",
"523 104 OFFCURVE",
"403 104 CURVE SMOOTH",
"293 104 OFFCURVE",
"251 135 OFFCURVE",
"249 237 CURVE SMOOTH",
"240 679 OFFCURVE",
"240 920 OFFCURVE",
"249 1361 CURVE SMOOTH",
"251 1462 OFFCURVE",
"293 1493 OFFCURVE",
"402 1493 CURVE SMOOTH",
"517 1493 OFFCURVE",
"558 1462 OFFCURVE",
"562 1361 CURVE SMOOTH",
"565 1248 OFFCURVE",
"565 1164 OFFCURVE",
"561 1051 CURVE",
"696 1051 LINE",
"701 1162 OFFCURVE",
"702 1246 OFFCURVE",
"697 1357 CURVE SMOOTH",
"689 1536 OFFCURVE",
"600 1611 OFFCURVE",
"402 1611 CURVE SMOOTH",
"206 1611 OFFCURVE",
"117 1537 OFFCURVE",
"114 1357 CURVE SMOOTH",
"108 949 OFFCURVE",
"108 650 OFFCURVE",
"114 241 CURVE SMOOTH",
"117 58 OFFCURVE",
"206 -14 OFFCURVE",
"403 -14 CURVE SMOOTH"
);
}
);
width = 802;
}
);
leftKerningGroup = O;
leftMetricsKey = O;
rightKerningGroup = C;
unicode = 0043;
},
{
glyphname = D;
layers = (
{
anchors = (
{
name = bottom;
position = "{370, 0}";
},
{
name = center;
position = "{374, 800}";
},
{
name = top;
position = "{352, 1600}";
}
);
background = {
anchors = (
{
name = bottom;
position = "{370, 0}";
},
{
name = center;
position = "{374, 800}";
},
{
name = top;
position = "{352, 1600}";
}
);
paths = (
{
closed = 1;
nodes = (
"390 0 LINE SMOOTH",
"540 0 OFFCURVE",
"602 54 OFFCURVE",
"604 186 CURVE SMOOTH",
"610 624 OFFCURVE",
"610 974 OFFCURVE",
"604 1414 CURVE SMOOTH",
"602 1546 OFFCURVE",
"536 1600 OFFCURVE",
"372 1600 CURVE SMOOTH",
"140 1600 LINE",
"140 0 LINE"
);
},
{
closed = 1;
nodes = (
"220 1524 LINE",
"372 1524 LINE SMOOTH",
"490 1524 OFFCURVE",
"522 1498 OFFCURVE",
"524 1414 CURVE SMOOTH",
"534 932 OFFCURVE",
"534 668 OFFCURVE",
"524 186 CURVE SMOOTH",
"522 102 OFFCURVE",
"494 76 OFFCURVE",
"390 76 CURVE SMOOTH",
"220 76 LINE"
);
}
);
};
layerId = "3B122060-26E0-4730-9241-82784E6CB359";
paths = (
{
closed = 1;
nodes = (
"390 0 LINE SMOOTH",
"540 0 OFFCURVE",
"602 54 OFFCURVE",
"604 186 CURVE SMOOTH",
"610 624 OFFCURVE",
"610 974 OFFCURVE",
"604 1414 CURVE SMOOTH",
"602 1546 OFFCURVE",
"536 1600 OFFCURVE",
"372 1600 CURVE SMOOTH",
"140 1600 LINE",
"140 0 LINE"
);
},
{
closed = 1;
nodes = (
"220 1524 LINE",
"372 1524 LINE SMOOTH",
"490 1524 OFFCURVE",
"522 1498 OFFCURVE",
"524 1414 CURVE SMOOTH",
"534 932 OFFCURVE",
"534 668 OFFCURVE",
"524 186 CURVE SMOOTH",
"522 102 OFFCURVE",
"494 76 OFFCURVE",
"390 76 CURVE SMOOTH",
"220 76 LINE"
);
}
);
width = 718;
},
{
anchors = (
{
name = bottom;
position = "{480, 0}";
},
{
name = center;
position = "{520, 800}";
},
{
name = top;
position = "{520, 1600}";
}
);
background = {
anchors = (
{
name = bottom;
position = "{480, 0}";
},
{
name = center;
position = "{520, 800}";
},
{
name = top;
position = "{520, 1600}";
}
);
paths = (
{
closed = 1;
nodes = (
"526 0 LINE SMOOTH",
"826 0 OFFCURVE",
"950 118 OFFCURVE",
"956 412 CURVE SMOOTH",
"962 690 OFFCURVE",
"962 912 OFFCURVE",
"956 1190 CURVE SMOOTH",
"950 1482 OFFCURVE",
"826 1600 OFFCURVE",
"526 1600 CURVE SMOOTH",
"100 1600 LINE",
"100 0 LINE"
);
},
{
closed = 1;
nodes = (
"400 1336 LINE",
"526 1336 LINE SMOOTH",
"610 1336 OFFCURVE",
"654 1296 OFFCURVE",
"656 1226 CURVE SMOOTH",
"664 942 OFFCURVE",
"664 660 OFFCURVE",
"656 376 CURVE SMOOTH",
"654 304 OFFCURVE",
"610 264 OFFCURVE",
"526 264 CURVE SMOOTH",
"400 264 LINE"
);
}
);
};
layerId = "1DFA7D5B-2E97-4B89-827F-FB43F8066DC1";
paths = (
{
closed = 1;
nodes = (
"526 0 LINE SMOOTH",
"826 0 OFFCURVE",
"950 118 OFFCURVE",
"956 412 CURVE SMOOTH",
"962 690 OFFCURVE",
"962 912 OFFCURVE",
"956 1190 CURVE SMOOTH",
"950 1482 OFFCURVE",
"826 1600 OFFCURVE",
"526 1600 CURVE SMOOTH",
"100 1600 LINE",
"100 0 LINE"
);
},
{
closed = 1;
nodes = (
"400 1336 LINE",
"526 1336 LINE SMOOTH",
"610 1336 OFFCURVE",
"654 1296 OFFCURVE",
"656 1226 CURVE SMOOTH",
"664 942 OFFCURVE",
"664 660 OFFCURVE",
"656 376 CURVE SMOOTH",
"654 304 OFFCURVE",
"610 264 OFFCURVE",
"526 264 CURVE SMOOTH",
"400 264 LINE"
);
}
);
width = 1042;
},
{
anchors = (
{
name = bottom;
position = "{460, 0}";
},
{
name = center;
position = "{500, 800}";
},
{
name = top;
position = "{500, 1600}";
}
);
layerId = "5013C991-8699-46CB-BB1C-82E334DBD38B";
paths = (
{
closed = 1;
nodes = (
"486 0 LINE SMOOTH",
"786 0 OFFCURVE",
"910 118 OFFCURVE",
"916 412 CURVE SMOOTH",
"922 690 OFFCURVE",
"922 912 OFFCURVE",
"916 1190 CURVE SMOOTH",
"910 1482 OFFCURVE",
"786 1600 OFFCURVE",
"486 1600 CURVE SMOOTH",
"80 1600 LINE",
"80 0 LINE"
);
},
{
closed = 1;
nodes = (
"380 1336 LINE",
"486 1336 LINE SMOOTH",
"570 1336 OFFCURVE",
"614 1296 OFFCURVE",
"616 1226 CURVE SMOOTH",
"624 942 OFFCURVE",
"624 660 OFFCURVE",
"616 376 CURVE SMOOTH",
"614 304 OFFCURVE",
"570 264 OFFCURVE",
"486 264 CURVE SMOOTH",
"380 264 LINE"
);
}
);
width = 990;
},
{
anchors = (
{
name = bottom;
position = "{290, 0}";
},
{
name = center;
position = "{294, 800}";
},
{
name = top;
position = "{274, 1600}";
}
);
background = {
anchors = (
{
name = bottom;
position = "{290, 0}";
},
{
name = center;
position = "{294, 800}";
},
{
name = top;
position = "{274, 1600}";
}
);
paths = (
{
closed = 1;
nodes = (
"290 0 LINE SMOOTH",
"412 0 OFFCURVE",
"462 54 OFFCURVE",
"464 186 CURVE SMOOTH",
"470 624 OFFCURVE",
"470 974 OFFCURVE",
"464 1414 CURVE SMOOTH",
"462 1546 OFFCURVE",
"412 1600 OFFCURVE",
"292 1600 CURVE SMOOTH",
"120 1600 LINE",
"120 0 LINE"
);
},
{
closed = 1;
nodes = (
"160 1560 LINE",
"292 1560 LINE SMOOTH",
"386 1560 OFFCURVE",
"422 1518 OFFCURVE",
"424 1414 CURVE SMOOTH",
"428 1004 OFFCURVE",
"428 596 OFFCURVE",
"424 186 CURVE SMOOTH",
"422 82 OFFCURVE",
"386 40 OFFCURVE",
"290 40 CURVE SMOOTH",
"160 40 LINE"
);
}
);
};
layerId = "3D06B89B-468F-44E0-A3D7-A5BC6911123E";
paths = (
{
closed = 1;
nodes = (
"290 0 LINE SMOOTH",
"412 0 OFFCURVE",
"462 54 OFFCURVE",
"464 186 CURVE SMOOTH",
"470 624 OFFCURVE",
"470 974 OFFCURVE",
"464 1414 CURVE SMOOTH",
"462 1546 OFFCURVE",
"412 1600 OFFCURVE",
"292 1600 CURVE SMOOTH",
"120 1600 LINE",
"120 0 LINE"
);
},
{
closed = 1;
nodes = (
"160 1560 LINE",
"292 1560 LINE SMOOTH",
"386 1560 OFFCURVE",
"422 1518 OFFCURVE",
"424 1414 CURVE SMOOTH",
"428 1004 OFFCURVE",
"428 596 OFFCURVE",
"424 186 CURVE SMOOTH",
"422 82 OFFCURVE",
"386 40 OFFCURVE",
"290 40 CURVE SMOOTH",
"160 40 LINE"
);
}
);
width = 572;
},
{
anchors = (
{
name = bottom;
position = "{333, 0}";
},
{
name = center;
position = "{346, 800}";
},
{
name = top;
position = "{331, 1600}";
}
);
background = {
anchors = (
{
name = bottom;
position = "{333, 0}";
},
{
name = center;
position = "{346, 800}";
},
{
name = top;
position = "{331, 1600}";
}
);
paths = (
{
closed = 1;
nodes = (
"339 0 LINE SMOOTH",
"506 0 OFFCURVE",
"574 70 OFFCURVE",
"577 243 CURVE SMOOTH",
"583 641 OFFCURVE",
"583 959 OFFCURVE",
"577 1358 CURVE SMOOTH",
"574 1530 OFFCURVE",
"506 1600 OFFCURVE",
"341 1600 CURVE SMOOTH",
"110 1600 LINE",
"110 0 LINE"
);
},
{
closed = 1;
nodes = (
"215 1504 LINE",
"341 1504 LINE SMOOTH",
"432 1504 OFFCURVE",
"470 1463 OFFCURVE",
"472 1367 CURVE SMOOTH",
"477 989 OFFCURVE",
"477 612 OFFCURVE",
"472 234 CURVE SMOOTH",
"470 138 OFFCURVE",
"432 96 OFFCURVE",
"339 96 CURVE SMOOTH",
"215 96 LINE"
);
}
);
};
layerId = "C9EB94EC-C68D-4931-B320-068DCAB9FADA";
paths = (
{
closed = 1;
nodes = (
"339 0 LINE SMOOTH",
"506 0 OFFCURVE",
"574 70 OFFCURVE",
"577 243 CURVE SMOOTH",
"583 641 OFFCURVE",
"583 959 OFFCURVE",
"577 1358 CURVE SMOOTH",
"574 1530 OFFCURVE",
"506 1600 OFFCURVE",
"341 1600 CURVE SMOOTH",
"110 1600 LINE",
"110 0 LINE"
);
},
{
closed = 1;
nodes = (
"215 1504 LINE",
"341 1504 LINE SMOOTH",
"432 1504 OFFCURVE",
"470 1463 OFFCURVE",
"472 1367 CURVE SMOOTH",
"477 989 OFFCURVE",
"477 612 OFFCURVE",
"472 234 CURVE SMOOTH",
"470 138 OFFCURVE",
"432 96 OFFCURVE",
"339 96 CURVE SMOOTH",
"215 96 LINE"
);
}
);
width = 676;
},
{
anchors = (
{
name = bottom;
position = "{393, 0}";
},
{
name = center;
position = "{406, 800}";
},
{
name = top;
position = "{389, 1600}";
}
);
background = {
anchors = (
{
name = bottom;
position = "{393, 0}";
},
{
name = center;
position = "{406, 800}";
},
{
name = top;
position = "{389, 1600}";
}
);
paths = (
{
closed = 1;
nodes = (
"419 0 LINE SMOOTH",
"607 0 OFFCURVE",
"684 70 OFFCURVE",
"687 243 CURVE SMOOTH",
"693 641 OFFCURVE",
"693 959 OFFCURVE",
"687 1358 CURVE SMOOTH",
"684 1530 OFFCURVE",
"604 1600 OFFCURVE",
"406 1600 CURVE SMOOTH",
"125 1600 LINE",
"125 0 LINE"
);
},
{
closed = 1;
nodes = (
"260 1477 LINE",
"406 1477 LINE SMOOTH",
"515 1477 OFFCURVE",
"550 1448 OFFCURVE",
"552 1367 CURVE SMOOTH",
"562 935 OFFCURVE",
"562 666 OFFCURVE",
"552 234 CURVE SMOOTH",
"550 153 OFFCURVE",
"518 123 OFFCURVE",
"419 123 CURVE SMOOTH",
"260 123 LINE"
);
}
);
};
layerId = "6F82CFD7-79D5-473B-9D61-BE5DF154BBF2";
paths = (
{
closed = 1;
nodes = (
"419 0 LINE SMOOTH",
"607 0 OFFCURVE",
"684 70 OFFCURVE",
"687 243 CURVE SMOOTH",
"693 641 OFFCURVE",
"693 959 OFFCURVE",
"687 1358 CURVE SMOOTH",
"684 1530 OFFCURVE",
"604 1600 OFFCURVE",
"406 1600 CURVE SMOOTH",
"125 1600 LINE",
"125 0 LINE"
);
},
{
closed = 1;
nodes = (
"260 1477 LINE",
"406 1477 LINE SMOOTH",
"515 1477 OFFCURVE",
"550 1448 OFFCURVE",
"552 1367 CURVE SMOOTH",
"562 935 OFFCURVE",
"562 666 OFFCURVE",
"552 234 CURVE SMOOTH",
"550 153 OFFCURVE",
"518 123 OFFCURVE",
"419 123 CURVE SMOOTH",
"260 123 LINE"
);
}
);
width = 801;
}
);
leftKerningGroup = H;
leftMetricsKey = H;
rightKerningGroup = O;
rightMetricsKey = O;
unicode = 0044;
},
{
glyphname = Eth;
layers = (
{
background = {
components = (
{
name = D;
transform = "{1, 0, 0, 1, 18, 0}";
}
);
paths = (
{
closed = 1;
nodes = (
"100 886 LINE",
"340 886 LINE",
"340 946 LINE",
"100 946 LINE"
);
}
);
};
components = (
{
name = D;
transform = "{1, 0, 0, 1, 18, 0}";
}
);
layerId = "3B122060-26E0-4730-9241-82784E6CB359";
paths = (
{
closed = 1;
nodes = (
"100 886 LINE",
"340 886 LINE",
"340 946 LINE",
"100 946 LINE"
);
}
);
width = 736;
},
{
background = {
components = (
{
name = D;
transform = "{1, 0, 0, 1, 98, 0}";
}
);
paths = (
{
closed = 1;
nodes = (
"100 802 LINE",
"616 802 LINE",
"616 946 LINE",
"100 946 LINE"
);
}
);
};
components = (
{
name = D;
transform = "{1, 0, 0, 1, 98, 0}";
}
);
layerId = "1DFA7D5B-2E97-4B89-827F-FB43F8066DC1";
paths = (
{
closed = 1;
nodes = (
"100 802 LINE",
"616 802 LINE",
"616 946 LINE",
"100 946 LINE"
);
}
);
width = 1140;
},
{
components = (
{
name = D;
transform = "{1, 0, 0, 1, 98, 0}";
}
);
layerId = "5013C991-8699-46CB-BB1C-82E334DBD38B";
paths = (
{
closed = 1;
nodes = (
"100 802 LINE",
"616 802 LINE",
"616 946 LINE",
"100 946 LINE"
);
}
);
width = 1088;
},
{
background = {
components = (
{
name = D;
transform = "{1, 0, 0, 1, 58, 0}";
}
);
paths = (
{
closed = 1;
nodes = (
"100 906 LINE",
"340 906 LINE",
"340 946 LINE",
"100 946 LINE"
);
}
);
};
components = (
{
name = D;
transform = "{1, 0, 0, 1, 58, 0}";
}
);
layerId = "3D06B89B-468F-44E0-A3D7-A5BC6911123E";
paths = (
{
closed = 1;
nodes = (
"100 906 LINE",
"340 906 LINE",
"340 946 LINE",
"100 946 LINE"
);
}
);
width = 630;
},
{
background = {
components = (
{
alignment = -1;
name = D;
transform = "{1, 0, 0, 1, 68, 0}";
}
);
paths = (
{
closed = 1;
nodes = (
"100 880 LINE",
"409 880 LINE",
"409 946 LINE",
"100 946 LINE"
);
}
);
};
components = (
{
alignment = -1;
name = D;
transform = "{1, 0, 0, 1, 68, 0}";
}
);
layerId = "C9EB94EC-C68D-4931-B320-068DCAB9FADA";
paths = (
{
closed = 1;
nodes = (
"100 880 LINE",
"409 880 LINE",
"409 946 LINE",
"100 946 LINE"
);
}
);
width = 744;
},
{
background = {
components = (
{
alignment = -1;
name = D;
transform = "{1, 0, 0, 1, 38, 0}";
}
);
paths = (
{
closed = 1;
nodes = (
"100 865 LINE",
"409 865 LINE",
"409 946 LINE",
"100 946 LINE"
);
}
);
};
components = (
{
alignment = -1;
name = D;
transform = "{1, 0, 0, 1, 38, 0}";
}
);
layerId = "6F82CFD7-79D5-473B-9D61-BE5DF154BBF2";
paths = (
{
closed = 1;
nodes = (
"100 865 LINE",
"409 865 LINE",
"409 946 LINE",
"100 946 LINE"
);
}
);
width = 839;
}
);
leftKerningGroup = H;
rightKerningGroup = O;
rightMetricsKey = D;
unicode = 00D0;
},
{
glyphname = E;
layers = (
{
anchors = (
{
name = bottom;
position = "{362, 0}";
},
{
name = ogonek;
position = "{518, 0}";
},
{
name = top;
position = "{342, 1596}";
},
{
name = topleft;
position = "{160, 1600}";
}
);
background = {
anchors = (
{
name = bottom;
position = "{362, 0}";
},
{
name = ogonek;
position = "{518, 0}";
},
{
name = top;
position = "{342, 1596}";
},
{
name = topleft;
position = "{160, 1600}";
}
);
paths = (
{
closed = 1;
nodes = (
"558 0 LINE",
"558 76 LINE",
"220 76 LINE",
"220 762 LINE",
"538 762 LINE",
"538 838 LINE",
"220 838 LINE",
"220 1524 LINE",
"558 1524 LINE",
"558 1600 LINE",
"140 1600 LINE",
"140 0 LINE"
);
}
);
};
layerId = "3B122060-26E0-4730-9241-82784E6CB359";
paths = (
{
closed = 1;
nodes = (
"558 0 LINE",
"558 76 LINE",
"220 76 LINE",
"220 762 LINE",
"538 762 LINE",
"538 838 LINE",
"220 838 LINE",
"220 1524 LINE",
"558 1524 LINE",
"558 1600 LINE",
"140 1600 LINE",
"140 0 LINE"
);
}
);
width = 628;
},
{
anchors = (
{
name = bottom;
position = "{496, 0}";
},
{
name = ogonek;
position = "{570, 0}";
},
{
name = top;
position = "{468, 1600}";
},
{
name = topleft;
position = "{100, 1600}";
}
);
background = {
anchors = (
{
name = bottom;
position = "{496, 0}";
},
{
name = ogonek;
position = "{570, 0}";
},
{
name = top;
position = "{468, 1600}";
},
{
name = topleft;
position = "{100, 1600}";
}
);
paths = (
{
closed = 1;
nodes = (
"832 0 LINE",
"832 264 LINE",
"400 264 LINE",
"400 682 LINE",
"812 682 LINE",
"812 946 LINE",
"400 946 LINE",
"400 1336 LINE",
"832 1336 LINE",
"832 1600 LINE",
"100 1600 LINE",
"100 0 LINE"
);
}
);
};
layerId = "1DFA7D5B-2E97-4B89-827F-FB43F8066DC1";
paths = (
{
closed = 1;
nodes = (
"832 0 LINE",
"832 264 LINE",
"400 264 LINE",
"400 682 LINE",
"812 682 LINE",
"812 946 LINE",
"400 946 LINE",
"400 1336 LINE",
"832 1336 LINE",
"832 1600 LINE",
"100 1600 LINE",
"100 0 LINE"
);
}
);
width = 888;
},
{
anchors = (
{
name = bottom;
position = "{406, 0}";
},
{
name = ogonek;
position = "{731, 10}";
},
{
name = top;
position = "{406, 1600}";
},
{
name = topleft;
position = "{20, 1600}";
}
);
layerId = "5013C991-8699-46CB-BB1C-82E334DBD38B";
paths = (
{
closed = 1;
nodes = (
"772 0 LINE",
"772 264 LINE",
"380 264 LINE",
"380 682 LINE",
"752 682 LINE",
"752 946 LINE",
"380 946 LINE",
"380 1336 LINE",
"772 1336 LINE",
"772 1600 LINE",
"80 1600 LINE",
"80 0 LINE"
);
}
);
width = 816;
},
{
anchors = (
{
name = bottom;
position = "{270, 0}";
},
{
name = ogonek;
position = "{338, 0}";
},
{
name = top;
position = "{270, 1600}";
},
{
name = topleft;
position = "{80, 1600}";
}
);
background = {
anchors = (
{
name = bottom;
position = "{270, 0}";
},
{
name = ogonek;
position = "{338, 0}";
},
{
name = top;
position = "{270, 1600}";
},
{
name = topleft;
position = "{80, 1600}";
}
);
paths = (
{
closed = 1;
nodes = (
"438 0 LINE",
"438 40 LINE",
"160 40 LINE",
"160 780 LINE",
"418 780 LINE",
"418 820 LINE",
"160 820 LINE",
"160 1560 LINE",
"438 1560 LINE",
"438 1600 LINE",
"120 1600 LINE",
"120 0 LINE"
);
}
);
};
layerId = "3D06B89B-468F-44E0-A3D7-A5BC6911123E";
paths = (
{
closed = 1;
nodes = (
"438 0 LINE",
"438 40 LINE",
"160 40 LINE",
"160 780 LINE",
"418 780 LINE",
"418 820 LINE",
"160 820 LINE",
"160 1560 LINE",
"438 1560 LINE",
"438 1600 LINE",
"120 1600 LINE",
"120 0 LINE"
);
}
);
width = 488;
},
{
anchors = (
{
name = bottom;
position = "{312, 0}";
},
{
name = ogonek;
position = "{388, 0}";
},
{
name = top;
position = "{310, 1600}";
},
{
name = topleft;
position = "{70, 1600}";
}
);
background = {
anchors = (
{
name = bottom;
position = "{312, 0}";
},
{
name = ogonek;
position = "{388, 0}";
},
{
name = top;
position = "{310, 1600}";
},
{
name = topleft;
position = "{70, 1600}";
}
);
paths = (
{
closed = 1;
nodes = (
"522 0 LINE",
"522 96 LINE",
"215 96 LINE",
"215 756 LINE",
"502 756 LINE",
"502 852 LINE",
"215 852 LINE",
"215 1504 LINE",
"522 1504 LINE",
"522 1600 LINE",
"110 1600 LINE",
"110 0 LINE"
);
}
);
};
layerId = "C9EB94EC-C68D-4931-B320-068DCAB9FADA";
paths = (
{
closed = 1;
nodes = (
"522 0 LINE",
"522 96 LINE",
"215 96 LINE",
"215 756 LINE",
"502 756 LINE",
"502 852 LINE",
"215 852 LINE",
"215 1504 LINE",
"522 1504 LINE",
"522 1600 LINE",
"110 1600 LINE",
"110 0 LINE"
);
}
);
width = 568;
},
{
anchors = (
{
name = bottom;
position = "{391, 0}";
},
{
name = ogonek;
position = "{526, 0}";
},
{
name = top;
position = "{369, 1597}";
},
{
name = topleft;
position = "{140, 1600}";
}
);
background = {
anchors = (
{
name = bottom;
position = "{391, 0}";
},
{
name = ogonek;
position = "{526, 0}";
},
{
name = top;
position = "{369, 1597}";
},
{
name = topleft;
position = "{140, 1600}";
}
);
paths = (
{
closed = 1;
nodes = (
"622 0 LINE",
"622 123 LINE",
"260 123 LINE",
"260 742 LINE",
"602 742 LINE",
"602 865 LINE",
"260 865 LINE",
"260 1477 LINE",
"622 1477 LINE",
"622 1600 LINE",
"125 1600 LINE",
"125 0 LINE"
);
}
);
};
layerId = "6F82CFD7-79D5-473B-9D61-BE5DF154BBF2";
paths = (
{
closed = 1;
nodes = (
"622 0 LINE",
"622 123 LINE",
"260 123 LINE",
"260 742 LINE",
"602 742 LINE",
"602 865 LINE",
"260 865 LINE",
"260 1477 LINE",
"622 1477 LINE",
"622 1600 LINE",
"125 1600 LINE",
"125 0 LINE"
);
}
);
width = 678;
}
);
leftKerningGroup = H;
leftMetricsKey = H;
rightKerningGroup = E;
unicode = 0045;
},
{
glyphname = F;
layers = (
{
background = {
paths = (
{
closed = 1;
nodes = (
"220 0 LINE",
"220 762 LINE",
"558 762 LINE",
"558 838 LINE",
"220 838 LINE",
"220 1524 LINE",
"578 1524 LINE",
"578 1600 LINE",
"140 1600 LINE",
"140 0 LINE"
);
}
);
};
layerId = "3B122060-26E0-4730-9241-82784E6CB359";
paths = (
{
closed = 1;
nodes = (
"220 0 LINE",
"220 762 LINE",
"558 762 LINE",
"558 838 LINE",
"220 838 LINE",
"220 1524 LINE",
"578 1524 LINE",
"578 1600 LINE",
"140 1600 LINE",
"140 0 LINE"
);
}
);
width = 623;
},
{
background = {
paths = (
{
closed = 1;
nodes = (
"400 0 LINE",
"400 682 LINE",
"812 682 LINE",
"812 946 LINE",
"400 946 LINE",
"400 1336 LINE",
"832 1336 LINE",
"832 1600 LINE",
"100 1600 LINE",
"100 0 LINE"
);
}
);
};
layerId = "1DFA7D5B-2E97-4B89-827F-FB43F8066DC1";
paths = (
{
closed = 1;
nodes = (
"400 0 LINE",
"400 682 LINE",
"812 682 LINE",
"812 946 LINE",
"400 946 LINE",
"400 1336 LINE",
"832 1336 LINE",
"832 1600 LINE",
"100 1600 LINE",
"100 0 LINE"
);
}
);
width = 872;
},
{
layerId = "5013C991-8699-46CB-BB1C-82E334DBD38B";
paths = (
{
closed = 1;
nodes = (
"380 0 LINE",
"380 682 LINE",
"752 682 LINE",
"752 946 LINE",
"380 946 LINE",
"380 1336 LINE",
"772 1336 LINE",
"772 1600 LINE",
"80 1600 LINE",
"80 0 LINE"
);
}
);
width = 812;
},
{
background = {
paths = (
{
closed = 1;
nodes = (
"160 0 LINE",
"160 780 LINE",
"418 780 LINE",
"418 820 LINE",
"160 820 LINE",
"160 1560 LINE",
"438 1560 LINE",
"438 1600 LINE",
"120 1600 LINE",
"120 0 LINE"
);
}
);
};
layerId = "3D06B89B-468F-44E0-A3D7-A5BC6911123E";
paths = (
{
closed = 1;
nodes = (
"160 0 LINE",
"160 780 LINE",
"418 780 LINE",
"418 820 LINE",
"160 820 LINE",
"160 1560 LINE",
"438 1560 LINE",
"438 1600 LINE",
"120 1600 LINE",
"120 0 LINE"
);
}
);
width = 478;
},
{
background = {
paths = (
{
closed = 1;
nodes = (
"215 0 LINE",
"215 756 LINE",
"502 756 LINE",
"502 852 LINE",
"215 852 LINE",
"215 1504 LINE",
"522 1504 LINE",
"522 1600 LINE",
"110 1600 LINE",
"110 0 LINE"
);
}
);
};
layerId = "C9EB94EC-C68D-4931-B320-068DCAB9FADA";
paths = (
{
closed = 1;
nodes = (
"215 0 LINE",
"215 756 LINE",
"502 756 LINE",
"502 852 LINE",
"215 852 LINE",
"215 1504 LINE",
"522 1504 LINE",
"522 1600 LINE",
"110 1600 LINE",
"110 0 LINE"
);
}
);
width = 552;
},
{
background = {
paths = (
{
closed = 1;
nodes = (
"260 0 LINE",
"260 742 LINE",
"617 742 LINE",
"617 865 LINE",
"260 865 LINE",
"260 1477 LINE",
"637 1477 LINE",
"637 1600 LINE",
"125 1600 LINE",
"125 0 LINE"
);
}
);
};
layerId = "6F82CFD7-79D5-473B-9D61-BE5DF154BBF2";
paths = (
{
closed = 1;
nodes = (
"260 0 LINE",
"260 742 LINE",
"617 742 LINE",
"617 865 LINE",
"260 865 LINE",
"260 1477 LINE",
"637 1477 LINE",
"637 1600 LINE",
"125 1600 LINE",
"125 0 LINE"
);
}
);
width = 673;
}
);
leftKerningGroup = H;
leftMetricsKey = H;
rightKerningGroup = F;
unicode = 0046;
},
{
glyphname = G;
layers = (
{
anchors = (
{
name = bottom;
position = "{356, 0}";
},
{
name = top;
position = "{356, 1600}";
}
);
background = {
anchors = (
{
name = bottom;
position = "{356, 0}";
},
{
name = top;
position = "{356, 1600}";
}
);
paths = (
{
closed = 1;
nodes = (
"540 -10 OFFCURVE",
"604 48 OFFCURVE",
"606 196 CURVE SMOOTH",
"608 318 OFFCURVE",
"608 422 OFFCURVE",
"606 614 CURVE",
"340 614 LINE",
"340 534 LINE",
"526 534 LINE",
"528 406 OFFCURVE",
"528 324 OFFCURVE",
"526 196 CURVE SMOOTH",
"524 94 OFFCURVE",
"496 66 OFFCURVE",
"358 66 CURVE SMOOTH",
"224 66 OFFCURVE",
"196 94 OFFCURVE",
"194 196 CURVE SMOOTH",
"186 670 OFFCURVE",
"186 930 OFFCURVE",
"194 1404 CURVE SMOOTH",
"196 1506 OFFCURVE",
"224 1534 OFFCURVE",
"356 1534 CURVE SMOOTH",
"486 1534 OFFCURVE",
"514 1506 OFFCURVE",
"518 1404 CURVE SMOOTH",
"522 1278 OFFCURVE",
"522 1196 OFFCURVE",
"518 1070 CURVE",
"598 1070 LINE",
"602 1196 OFFCURVE",
"602 1278 OFFCURVE",
"598 1404 CURVE SMOOTH",
"594 1552 OFFCURVE",
"532 1610 OFFCURVE",
"356 1610 CURVE SMOOTH",
"178 1610 OFFCURVE",
"116 1552 OFFCURVE",
"114 1404 CURVE SMOOTH",
"108 972 OFFCURVE",
"108 628 OFFCURVE",
"114 196 CURVE SMOOTH",
"116 48 OFFCURVE",
"178 -10 OFFCURVE",
"358 -10 CURVE SMOOTH"
);
}
);
};
layerId = "3B122060-26E0-4730-9241-82784E6CB359";
paths = (
{
closed = 1;
nodes = (
"540 -10 OFFCURVE",
"604 48 OFFCURVE",
"606 196 CURVE SMOOTH",
"608 318 OFFCURVE",
"608 422 OFFCURVE",
"606 614 CURVE",
"340 614 LINE",
"340 534 LINE",
"526 534 LINE",
"528 406 OFFCURVE",
"528 324 OFFCURVE",
"526 196 CURVE SMOOTH",
"524 94 OFFCURVE",
"496 66 OFFCURVE",
"358 66 CURVE SMOOTH",
"224 66 OFFCURVE",
"196 94 OFFCURVE",
"194 196 CURVE SMOOTH",
"186 670 OFFCURVE",
"186 930 OFFCURVE",
"194 1404 CURVE SMOOTH",
"196 1506 OFFCURVE",
"224 1534 OFFCURVE",
"356 1534 CURVE SMOOTH",
"486 1534 OFFCURVE",
"514 1506 OFFCURVE",
"518 1404 CURVE SMOOTH",
"522 1278 OFFCURVE",
"522 1196 OFFCURVE",
"518 1070 CURVE",
"598 1070 LINE",
"602 1196 OFFCURVE",
"602 1278 OFFCURVE",
"598 1404 CURVE SMOOTH",
"594 1552 OFFCURVE",
"532 1610 OFFCURVE",
"356 1610 CURVE SMOOTH",
"178 1610 OFFCURVE",
"116 1552 OFFCURVE",
"114 1404 CURVE SMOOTH",
"108 972 OFFCURVE",
"108 628 OFFCURVE",
"114 196 CURVE SMOOTH",
"116 48 OFFCURVE",
"178 -10 OFFCURVE",
"358 -10 CURVE SMOOTH"
);
}
);
width = 699;
},
{
anchors = (
{
name = bottom;
position = "{522, 0}";
},
{
name = top;
position = "{522, 1600}";
}
);
background = {
anchors = (
{
name = bottom;
position = "{522, 0}";
},
{
name = top;
position = "{522, 1600}";
}
);
paths = (
{
closed = 1;
nodes = (
"830 -20 OFFCURVE",
"956 94 OFFCURVE",
"970 382 CURVE SMOOTH",
"976 504 OFFCURVE",
"978 660 OFFCURVE",
"972 782 CURVE",
"570 782 LINE",
"570 522 LINE",
"680 522 LINE",
"684 476 OFFCURVE",
"684 392 OFFCURVE",
"680 346 CURVE SMOOTH",
"672 258 OFFCURVE",
"630 224 OFFCURVE",
"530 224 CURVE SMOOTH",
"434 224 OFFCURVE",
"394 258 OFFCURVE",
"388 346 CURVE SMOOTH",
"372 626 OFFCURVE",
"372 976 OFFCURVE",
"388 1256 CURVE SMOOTH",
"394 1342 OFFCURVE",
"434 1376 OFFCURVE",
"530 1376 CURVE SMOOTH",
"622 1376 OFFCURVE",
"660 1342 OFFCURVE",
"666 1256 CURVE SMOOTH",
"670 1168 OFFCURVE",
"670 1088 OFFCURVE",
"666 1000 CURVE",
"966 1000 LINE",
"970 1062 OFFCURVE",
"970 1158 OFFCURVE",
"966 1220 CURVE SMOOTH",
"948 1506 OFFCURVE",
"824 1620 OFFCURVE",
"530 1620 CURVE SMOOTH",
"226 1620 OFFCURVE",
"100 1500 OFFCURVE",
"88 1202 CURVE SMOOTH",
"80 986 OFFCURVE",
"80 606 OFFCURVE",
"88 382 CURVE SMOOTH",
"98 94 OFFCURVE",
"224 -20 OFFCURVE",
"530 -20 CURVE SMOOTH"
);
}
);
};
layerId = "1DFA7D5B-2E97-4B89-827F-FB43F8066DC1";
paths = (
{
closed = 1;
nodes = (
"830 -20 OFFCURVE",
"956 94 OFFCURVE",
"970 382 CURVE SMOOTH",
"976 504 OFFCURVE",
"978 660 OFFCURVE",
"972 782 CURVE",
"570 782 LINE",
"570 522 LINE",
"680 522 LINE",
"684 476 OFFCURVE",
"684 392 OFFCURVE",
"680 346 CURVE SMOOTH",
"672 258 OFFCURVE",
"630 224 OFFCURVE",
"530 224 CURVE SMOOTH",
"434 224 OFFCURVE",
"394 258 OFFCURVE",
"388 346 CURVE SMOOTH",
"372 626 OFFCURVE",
"372 976 OFFCURVE",
"388 1256 CURVE SMOOTH",
"394 1342 OFFCURVE",
"434 1376 OFFCURVE",
"530 1376 CURVE SMOOTH",
"622 1376 OFFCURVE",
"660 1342 OFFCURVE",
"666 1256 CURVE SMOOTH",
"670 1168 OFFCURVE",
"670 1088 OFFCURVE",
"666 1000 CURVE",
"966 1000 LINE",
"970 1062 OFFCURVE",
"970 1158 OFFCURVE",
"966 1220 CURVE SMOOTH",
"948 1506 OFFCURVE",
"824 1620 OFFCURVE",
"530 1620 CURVE SMOOTH",
"226 1620 OFFCURVE",
"100 1500 OFFCURVE",
"88 1202 CURVE SMOOTH",
"80 986 OFFCURVE",
"80 606 OFFCURVE",
"88 382 CURVE SMOOTH",
"98 94 OFFCURVE",
"224 -20 OFFCURVE",
"530 -20 CURVE SMOOTH"
);
}
);
width = 1046;
},
{
anchors = (
{
name = bottom;
position = "{490, 0}";
},
{
name = top;
position = "{490, 1600}";
}
);
background = {
paths = (
{
closed = 1;
nodes = (
"510 -20 OFFCURVE",
"636 108 OFFCURVE",
"636 280 CURVE SMOOTH",
"636 600 LINE",
"436 600 LINE",
"436 280 LINE SMOOTH",
"436 222 OFFCURVE",
"396 180 OFFCURVE",
"344 180 CURVE SMOOTH",
"294 180 OFFCURVE",
"256 222 OFFCURVE",
"256 280 CURVE SMOOTH",
"256 1320 LINE SMOOTH",
"256 1378 OFFCURVE",
"294 1420 OFFCURVE",
"344 1420 CURVE SMOOTH",
"396 1420 OFFCURVE",
"436 1378 OFFCURVE",
"436 1320 CURVE SMOOTH",
"436 1000 LINE",
"636 1000 LINE",
"636 1320 LINE SMOOTH",
"636 1492 OFFCURVE",
"510 1620 OFFCURVE",
"344 1620 CURVE SMOOTH",
"180 1620 OFFCURVE",
"56 1492 OFFCURVE",
"56 1320 CURVE SMOOTH",
"56 280 LINE SMOOTH",
"56 108 OFFCURVE",
"180 -20 OFFCURVE",
"344 -20 CURVE SMOOTH"
);
},
{
closed = 1;
nodes = (
"342 600 LINE",
"636 600 LINE",
"636 800 LINE",
"342 800 LINE"
);
}
);
};
layerId = "5013C991-8699-46CB-BB1C-82E334DBD38B";
paths = (
{
closed = 1;
nodes = (
"784 -20 OFFCURVE",
"904 94 OFFCURVE",
"918 382 CURVE SMOOTH",
"924 504 OFFCURVE",
"926 660 OFFCURVE",
"920 782 CURVE",
"518 782 LINE",
"518 522 LINE",
"628 522 LINE",
"632 476 OFFCURVE",
"632 372 OFFCURVE",
"628 326 CURVE SMOOTH",
"622 260 OFFCURVE",
"574 224 OFFCURVE",
"498 224 CURVE SMOOTH",
"420 224 OFFCURVE",
"380 260 OFFCURVE",
"376 326 CURVE SMOOTH",
"360 606 OFFCURVE",
"360 996 OFFCURVE",
"376 1276 CURVE SMOOTH",
"380 1340 OFFCURVE",
"420 1376 OFFCURVE",
"498 1376 CURVE SMOOTH",
"568 1376 OFFCURVE",
"610 1340 OFFCURVE",
"614 1276 CURVE SMOOTH",
"618 1202 OFFCURVE",
"618 1074 OFFCURVE",
"614 1000 CURVE",
"914 1000 LINE",
"918 1062 OFFCURVE",
"918 1158 OFFCURVE",
"914 1220 CURVE SMOOTH",
"896 1506 OFFCURVE",
"778 1620 OFFCURVE",
"498 1620 CURVE SMOOTH",
"202 1620 OFFCURVE",
"88 1506 OFFCURVE",
"76 1202 CURVE SMOOTH",
"68 986 OFFCURVE",
"68 606 OFFCURVE",
"76 382 CURVE SMOOTH",
"86 94 OFFCURVE",
"196 -20 OFFCURVE",
"498 -20 CURVE SMOOTH"
);
}
);
width = 986;
},
{
anchors = (
{
name = bottom;
position = "{274, 0}";
},
{
name = top;
position = "{274, 1600}";
}
);
background = {
anchors = (
{
name = bottom;
position = "{274, 0}";
},
{
name = top;
position = "{274, 1600}";
}
);
paths = (
{
closed = 1;
nodes = (
"406 -10 OFFCURVE",
"458 44 OFFCURVE",
"460 176 CURVE SMOOTH",
"462 398 OFFCURVE",
"462 522 OFFCURVE",
"460 614 CURVE",
"274 614 LINE",
"274 574 LINE",
"420 574 LINE",
"422 432 OFFCURVE",
"422 318 OFFCURVE",
"420 176 CURVE SMOOTH",
"418 72 OFFCURVE",
"378 30 OFFCURVE",
"282 30 CURVE SMOOTH",
"186 30 OFFCURVE",
"148 72 OFFCURVE",
"148 176 CURVE SMOOTH",
"144 622 OFFCURVE",
"144 978 OFFCURVE",
"148 1424 CURVE SMOOTH",
"150 1528 OFFCURVE",
"188 1570 OFFCURVE",
"280 1570 CURVE SMOOTH",
"370 1570 OFFCURVE",
"408 1528 OFFCURVE",
"412 1424 CURVE SMOOTH",
"416 1298 OFFCURVE",
"416 1196 OFFCURVE",
"412 1070 CURVE",
"452 1070 LINE",
"456 1196 OFFCURVE",
"456 1298 OFFCURVE",
"452 1424 CURVE SMOOTH",
"448 1556 OFFCURVE",
"398 1610 OFFCURVE",
"280 1610 CURVE SMOOTH",
"160 1610 OFFCURVE",
"110 1556 OFFCURVE",
"108 1424 CURVE SMOOTH",
"102 978 OFFCURVE",
"102 622 OFFCURVE",
"108 176 CURVE SMOOTH",
"110 44 OFFCURVE",
"160 -10 OFFCURVE",
"282 -10 CURVE SMOOTH"
);
}
);
};
layerId = "3D06B89B-468F-44E0-A3D7-A5BC6911123E";
paths = (
{
closed = 1;
nodes = (
"406 -10 OFFCURVE",
"458 44 OFFCURVE",
"460 176 CURVE SMOOTH",
"462 398 OFFCURVE",
"462 522 OFFCURVE",
"460 614 CURVE",
"274 614 LINE",
"274 574 LINE",
"420 574 LINE",
"422 432 OFFCURVE",
"422 318 OFFCURVE",
"420 176 CURVE SMOOTH",
"418 72 OFFCURVE",
"378 30 OFFCURVE",
"282 30 CURVE SMOOTH",
"186 30 OFFCURVE",
"148 72 OFFCURVE",
"148 176 CURVE SMOOTH",
"144 622 OFFCURVE",
"144 978 OFFCURVE",
"148 1424 CURVE SMOOTH",
"150 1528 OFFCURVE",
"188 1570 OFFCURVE",
"280 1570 CURVE SMOOTH",
"370 1570 OFFCURVE",
"408 1528 OFFCURVE",
"412 1424 CURVE SMOOTH",
"416 1298 OFFCURVE",
"416 1196 OFFCURVE",
"412 1070 CURVE",
"452 1070 LINE",
"456 1196 OFFCURVE",
"456 1298 OFFCURVE",
"452 1424 CURVE SMOOTH",
"448 1556 OFFCURVE",
"398 1610 OFFCURVE",
"280 1610 CURVE SMOOTH",
"160 1610 OFFCURVE",
"110 1556 OFFCURVE",
"108 1424 CURVE SMOOTH",
"102 978 OFFCURVE",
"102 622 OFFCURVE",
"108 176 CURVE SMOOTH",
"110 44 OFFCURVE",
"160 -10 OFFCURVE",
"282 -10 CURVE SMOOTH"
);
}
);
width = 545;
},
{
anchors = (
{
name = bottom;
position = "{328, 0}";
},
{
name = top;
position = "{328, 1600}";
}
);
background = {
anchors = (
{
name = bottom;
position = "{328, 0}";
},
{
name = top;
position = "{328, 1600}";
}
);
paths = (
{
closed = 1;
nodes = (
"500 -13 OFFCURVE",
"569 57 OFFCURVE",
"574 228 CURVE SMOOTH",
"577 425 OFFCURVE",
"578 557 OFFCURVE",
"575 656 CURVE",
"335 656 LINE",
"335 561 LINE",
"472 561 LINE",
"474 443 OFFCURVE",
"474 332 OFFCURVE",
"472 214 CURVE SMOOTH",
"469 119 OFFCURVE",
"427 79 OFFCURVE",
"336 79 CURVE SMOOTH",
"244 79 OFFCURVE",
"206 119 OFFCURVE",
"205 214 CURVE SMOOTH",
"198 618 OFFCURVE",
"198 983 OFFCURVE",
"205 1387 CURVE SMOOTH",
"207 1481 OFFCURVE",
"246 1522 OFFCURVE",
"334 1522 CURVE SMOOTH",
"419 1522 OFFCURVE",
"458 1481 OFFCURVE",
"462 1387 CURVE SMOOTH",
"466 1274 OFFCURVE",
"466 1166 OFFCURVE",
"462 1053 CURVE",
"567 1053 LINE",
"571 1163 OFFCURVE",
"571 1263 OFFCURVE",
"567 1373 CURVE SMOOTH",
"560 1544 OFFCURVE",
"493 1613 OFFCURVE",
"334 1613 CURVE SMOOTH",
"170 1613 OFFCURVE",
"104 1544 OFFCURVE",
"100 1369 CURVE SMOOTH",
"93 980 OFFCURVE",
"93 618 OFFCURVE",
"100 228 CURVE SMOOTH",
"104 57 OFFCURVE",
"169 -13 OFFCURVE",
"336 -13 CURVE SMOOTH"
);
}
);
};
layerId = "C9EB94EC-C68D-4931-B320-068DCAB9FADA";
paths = (
{
closed = 1;
nodes = (
"500 -13 OFFCURVE",
"569 57 OFFCURVE",
"574 228 CURVE SMOOTH",
"577 425 OFFCURVE",
"578 557 OFFCURVE",
"575 656 CURVE",
"335 656 LINE",
"335 561 LINE",
"472 561 LINE",
"474 443 OFFCURVE",
"474 332 OFFCURVE",
"472 214 CURVE SMOOTH",
"469 119 OFFCURVE",
"427 79 OFFCURVE",
"336 79 CURVE SMOOTH",
"244 79 OFFCURVE",
"206 119 OFFCURVE",
"205 214 CURVE SMOOTH",
"198 618 OFFCURVE",
"198 983 OFFCURVE",
"205 1387 CURVE SMOOTH",
"207 1481 OFFCURVE",
"246 1522 OFFCURVE",
"334 1522 CURVE SMOOTH",
"419 1522 OFFCURVE",
"458 1481 OFFCURVE",
"462 1387 CURVE SMOOTH",
"466 1274 OFFCURVE",
"466 1166 OFFCURVE",
"462 1053 CURVE",
"567 1053 LINE",
"571 1163 OFFCURVE",
"571 1263 OFFCURVE",
"567 1373 CURVE SMOOTH",
"560 1544 OFFCURVE",
"493 1613 OFFCURVE",
"334 1613 CURVE SMOOTH",
"170 1613 OFFCURVE",
"104 1544 OFFCURVE",
"100 1369 CURVE SMOOTH",
"93 980 OFFCURVE",
"93 618 OFFCURVE",
"100 228 CURVE SMOOTH",
"104 57 OFFCURVE",
"169 -13 OFFCURVE",
"336 -13 CURVE SMOOTH"
);
}
);
width = 651;
},
{
anchors = (
{
name = bottom;
position = "{405, 0}";
},
{
name = top;
position = "{405, 1600}";
}
);
background = {
anchors = (
{
name = bottom;
position = "{405, 0}";
},
{
name = top;
position = "{405, 1600}";
}
);
paths = (
{
closed = 1;
nodes = (
"620 -13 OFFCURVE",
"699 60 OFFCURVE",
"704 243 CURVE SMOOTH",
"707 365 OFFCURVE",
"708 482 OFFCURVE",
"705 656 CURVE",
"405 656 LINE",
"405 531 LINE",
"572 531 LINE",
"574 424 OFFCURVE",
"574 341 OFFCURVE",
"572 234 CURVE SMOOTH",
"568 135 OFFCURVE",
"537 106 OFFCURVE",
"408 106 CURVE SMOOTH",
"284 106 OFFCURVE",
"253 135 OFFCURVE",
"250 234 CURVE SMOOTH",
"240 659 OFFCURVE",
"240 942 OFFCURVE",
"250 1367 CURVE SMOOTH",
"253 1465 OFFCURVE",
"284 1495 OFFCURVE",
"407 1495 CURVE SMOOTH",
"527 1495 OFFCURVE",
"558 1465 OFFCURVE",
"562 1367 CURVE SMOOTH",
"566 1251 OFFCURVE",
"566 1169 OFFCURVE",
"562 1053 CURVE",
"697 1053 LINE",
"701 1163 OFFCURVE",
"701 1248 OFFCURVE",
"697 1358 CURVE SMOOTH",
"690 1541 OFFCURVE",
"612 1613 OFFCURVE",
"407 1613 CURVE SMOOTH",
"197 1613 OFFCURVE",
"119 1539 OFFCURVE",
"115 1354 CURVE SMOOTH",
"108 976 OFFCURVE",
"108 623 OFFCURVE",
"115 243 CURVE SMOOTH",
"119 60 OFFCURVE",
"197 -13 OFFCURVE",
"408 -13 CURVE SMOOTH"
);
}
);
};
layerId = "6F82CFD7-79D5-473B-9D61-BE5DF154BBF2";
paths = (
{
closed = 1;
nodes = (
"620 -13 OFFCURVE",
"699 60 OFFCURVE",
"704 243 CURVE SMOOTH",
"707 365 OFFCURVE",
"708 482 OFFCURVE",
"705 656 CURVE",
"405 656 LINE",
"405 531 LINE",
"572 531 LINE",
"574 424 OFFCURVE",
"574 341 OFFCURVE",
"572 234 CURVE SMOOTH",
"568 135 OFFCURVE",
"537 106 OFFCURVE",
"408 106 CURVE SMOOTH",
"284 106 OFFCURVE",
"253 135 OFFCURVE",
"250 234 CURVE SMOOTH",
"240 659 OFFCURVE",
"240 942 OFFCURVE",
"250 1367 CURVE SMOOTH",
"253 1465 OFFCURVE",
"284 1495 OFFCURVE",
"407 1495 CURVE SMOOTH",
"527 1495 OFFCURVE",
"558 1465 OFFCURVE",
"562 1367 CURVE SMOOTH",
"566 1251 OFFCURVE",
"566 1169 OFFCURVE",
"562 1053 CURVE",
"697 1053 LINE",
"701 1163 OFFCURVE",
"701 1248 OFFCURVE",
"697 1358 CURVE SMOOTH",
"690 1541 OFFCURVE",
"612 1613 OFFCURVE",
"407 1613 CURVE SMOOTH",
"197 1613 OFFCURVE",
"119 1539 OFFCURVE",
"115 1354 CURVE SMOOTH",
"108 976 OFFCURVE",
"108 623 OFFCURVE",
"115 243 CURVE SMOOTH",
"119 60 OFFCURVE",
"197 -13 OFFCURVE",
"408 -13 CURVE SMOOTH"
);
}
);
width = 797;
}
);
leftKerningGroup = O;
leftMetricsKey = O;
rightKerningGroup = G;
unicode = 0047;
},
{
glyphname = H;
layers = (
{
anchors = (
{
name = bottom;
position = "{380, 0}";
},
{
name = center;
position = "{380, 800}";
},
{
name = top;
position = "{380, 1600}";
},
{
name = topleft;
position = "{100, 1600}";
}
);
background = {
anchors = (
{
name = bottom;
position = "{380, 0}";
},
{
name = center;
position = "{380, 800}";
},
{
name = top;
position = "{380, 1600}";
},
{
name = topleft;
position = "{100, 1600}";
}
);
paths = (
{
closed = 1;
nodes = (
"220 0 LINE",
"220 762 LINE",
"540 762 LINE",
"540 0 LINE",
"620 0 LINE",
"620 1600 LINE",
"540 1600 LINE",
"540 838 LINE",
"220 838 LINE",
"220 1600 LINE",
"140 1600 LINE",
"140 0 LINE"
);
}
);
};
layerId = "3B122060-26E0-4730-9241-82784E6CB359";
paths = (
{
closed = 1;
nodes = (
"220 0 LINE",
"220 762 LINE",
"540 762 LINE",
"540 0 LINE",
"620 0 LINE",
"620 1600 LINE",
"540 1600 LINE",
"540 838 LINE",
"220 838 LINE",
"220 1600 LINE",
"140 1600 LINE",
"140 0 LINE"
);
}
);
width = 760;
},
{
anchors = (
{
name = bottom;
position = "{526, 0}";
},
{
name = center;
position = "{526, 800}";
},
{
name = top;
position = "{526, 1600}";
},
{
name = topleft;
position = "{60, 1600}";
}
);
background = {
anchors = (
{
name = bottom;
position = "{526, 0}";
},
{
name = center;
position = "{526, 800}";
},
{
name = top;
position = "{526, 1600}";
},
{
name = topleft;
position = "{60, 1600}";
}
);
paths = (
{
closed = 1;
nodes = (
"400 0 LINE",
"400 682 LINE",
"650 682 LINE",
"650 0 LINE",
"950 0 LINE",
"950 1600 LINE",
"650 1600 LINE",
"650 946 LINE",
"400 946 LINE",
"400 1600 LINE",
"100 1600 LINE",
"100 0 LINE"
);
}
);
};
layerId = "1DFA7D5B-2E97-4B89-827F-FB43F8066DC1";
paths = (
{
closed = 1;
nodes = (
"400 0 LINE",
"400 682 LINE",
"650 682 LINE",
"650 0 LINE",
"950 0 LINE",
"950 1600 LINE",
"650 1600 LINE",
"650 946 LINE",
"400 946 LINE",
"400 1600 LINE",
"100 1600 LINE",
"100 0 LINE"
);
}
);
width = 1050;
},
{
anchors = (
{
name = bottom;
position = "{486, 0}";
},
{
name = center;
position = "{486, 800}";
},
{
name = top;
position = "{486, 1600}";
},
{
name = topleft;
position = "{40, 1600}";
}
);
layerId = "5013C991-8699-46CB-BB1C-82E334DBD38B";
paths = (
{
closed = 1;
nodes = (
"380 0 LINE",
"380 682 LINE",
"590 682 LINE",
"590 0 LINE",
"890 0 LINE",
"890 1600 LINE",
"590 1600 LINE",
"590 946 LINE",
"380 946 LINE",
"380 1600 LINE",
"80 1600 LINE",
"80 0 LINE"
);
}
);
width = 970;
},
{
anchors = (
{
name = bottom;
position = "{300, 0}";
},
{
name = center;
position = "{300, 800}";
},
{
name = top;
position = "{300, 1600}";
},
{
name = topleft;
position = "{80, 1600}";
}
);
background = {
anchors = (
{
name = bottom;
position = "{300, 0}";
},
{
name = center;
position = "{300, 800}";
},
{
name = top;
position = "{300, 1600}";
},
{
name = topleft;
position = "{80, 1600}";
}
);
paths = (
{
closed = 1;
nodes = (
"160 0 LINE",
"160 780 LINE",
"440 780 LINE",
"440 0 LINE",
"480 0 LINE",
"480 1600 LINE",
"440 1600 LINE",
"440 820 LINE",
"160 820 LINE",
"160 1600 LINE",
"120 1600 LINE",
"120 0 LINE"
);
}
);
};
layerId = "3D06B89B-468F-44E0-A3D7-A5BC6911123E";
paths = (
{
closed = 1;
nodes = (
"160 0 LINE",
"160 780 LINE",
"440 780 LINE",
"440 0 LINE",
"480 0 LINE",
"480 1600 LINE",
"440 1600 LINE",
"440 820 LINE",
"160 820 LINE",
"160 1600 LINE",
"120 1600 LINE",
"120 0 LINE"
);
}
);
width = 600;
},
{
anchors = (
{
name = bottom;
position = "{347, 0}";
},
{
name = center;
position = "{347, 800}";
},
{
name = top;
position = "{347, 1600}";
},
{
name = topleft;
position = "{70, 1600}";
}
);
background = {
anchors = (
{
name = bottom;
position = "{347, 0}";
},
{
name = center;
position = "{347, 800}";
},
{
name = top;
position = "{347, 1600}";
},
{
name = topleft;
position = "{70, 1600}";
}
);
paths = (
{
closed = 1;
nodes = (
"215 0 LINE",
"215 756 LINE",
"478 756 LINE",
"478 0 LINE",
"583 0 LINE",
"583 1600 LINE",
"478 1600 LINE",
"478 852 LINE",
"215 852 LINE",
"215 1600 LINE",
"110 1600 LINE",
"110 0 LINE"
);
}
);
};
layerId = "C9EB94EC-C68D-4931-B320-068DCAB9FADA";
paths = (
{
closed = 1;
nodes = (
"215 0 LINE",
"215 756 LINE",
"478 756 LINE",
"478 0 LINE",
"583 0 LINE",
"583 1600 LINE",
"478 1600 LINE",
"478 852 LINE",
"215 852 LINE",
"215 1600 LINE",
"110 1600 LINE",
"110 0 LINE"
);
}
);
width = 693;
},
{
anchors = (
{
name = bottom;
position = "{412, 0}";
},
{
name = center;
position = "{412, 800}";
},
{
name = top;
position = "{412, 1600}";
},
{
name = topleft;
position = "{85, 1600}";
}
);
background = {
anchors = (
{
name = bottom;
position = "{412, 0}";
},
{
name = center;
position = "{412, 800}";
},
{
name = top;
position = "{412, 1600}";
},
{
name = topleft;
position = "{85, 1600}";
}
);
paths = (
{
closed = 1;
nodes = (
"260 0 LINE",
"260 742 LINE",
"563 742 LINE",
"563 0 LINE",
"698 0 LINE",
"698 1600 LINE",
"563 1600 LINE",
"563 865 LINE",
"260 865 LINE",
"260 1600 LINE",
"125 1600 LINE",
"125 0 LINE"
);
}
);
};
layerId = "6F82CFD7-79D5-473B-9D61-BE5DF154BBF2";
paths = (
{
closed = 1;
nodes = (
"260 0 LINE",
"260 742 LINE",
"563 742 LINE",
"563 0 LINE",
"698 0 LINE",
"698 1600 LINE",
"563 1600 LINE",
"563 865 LINE",
"260 865 LINE",
"260 1600 LINE",
"125 1600 LINE",
"125 0 LINE"
);
}
);
width = 823;
}
);
leftKerningGroup = H;
rightKerningGroup = H;
unicode = 0048;
},
{
glyphname = Hbar;
layers = (
{
background = {
components = (
{
name = H;
transform = "{1, 0, 0, 1, -59, 0}";
}
);
paths = (
{
closed = 1;
nodes = (
"15 1150 LINE",
"627 1150 LINE",
"627 1210 LINE",
"15 1210 LINE"
);
}
);
};
components = (
{
name = H;
transform = "{1, 0, 0, 1, -59, 0}";
}
);
layerId = "3B122060-26E0-4730-9241-82784E6CB359";
leftMetricsKey = "=15";
rightMetricsKey = "=15";
paths = (
{
closed = 1;
nodes = (
"15 1150 LINE",
"627 1150 LINE",
"627 1210 LINE",
"15 1210 LINE"
);
}
);
width = 642;
},
{
background = {
components = (
{
name = H;
transform = "{1, 0, 0, 1, 26, 0}";
}
);
paths = (
{
closed = 1;
nodes = (
"-10 1136 LINE",
"1032 1136 LINE",
"1032 1280 LINE",
"-10 1280 LINE"
);
}
);
};
components = (
{
name = H;
transform = "{1, 0, 0, 1, 26, 0}";
}
);
layerId = "1DFA7D5B-2E97-4B89-827F-FB43F8066DC1";
leftMetricsKey = "=30";
rightMetricsKey = "=30";
paths = (
{
closed = 1;
nodes = (
"30 1136 LINE",
"1072 1136 LINE",
"1072 1280 LINE",
"30 1280 LINE"
);
}
);
width = 1102;
},
{
components = (
{
name = H;
transform = "{1, 0, 0, 1, 66, 0}";
}
);
layerId = "5013C991-8699-46CB-BB1C-82E334DBD38B";
leftMetricsKey = "=30";
rightMetricsKey = "=30";
paths = (
{
closed = 1;
nodes = (
"30 1136 LINE",
"1072 1136 LINE",
"1072 1280 LINE",
"30 1280 LINE"
);
}
);
width = 1102;
},
{
background = {
components = (
{
name = H;
transform = "{1, 0, 0, 1, -19, 0}";
}
);
paths = (
{
closed = 1;
nodes = (
"15 1160 LINE",
"547 1160 LINE",
"547 1200 LINE",
"15 1200 LINE"
);
}
);
};
components = (
{
name = H;
transform = "{1, 0, 0, 1, -19, 0}";
}
);
layerId = "3D06B89B-468F-44E0-A3D7-A5BC6911123E";
leftMetricsKey = "=15";
rightMetricsKey = "=15";
paths = (
{
closed = 1;
nodes = (
"15 1162 LINE",
"547 1162 LINE",
"547 1200 LINE",
"15 1200 LINE"
);
}
);
width = 562;
},
{
background = {
components = (
{
alignment = -1;
name = H;
transform = "{1, 0, 0, 1, 93, 0}";
}
);
paths = (
{
closed = 1;
nodes = (
"110 1154 LINE",
"769 1154 LINE",
"769 1220 LINE",
"110 1220 LINE"
);
}
);
};
components = (
{
alignment = -1;
name = H;
transform = "{1, 0, 0, 1, 93, 0}";
}
);
layerId = "C9EB94EC-C68D-4931-B320-068DCAB9FADA";
leftMetricsKey = "=110";
paths = (
{
closed = 1;
nodes = (
"110 1154 LINE",
"769 1154 LINE",
"769 1220 LINE",
"110 1220 LINE"
);
}
);
width = 879;
},
{
background = {
components = (
{
alignment = -1;
name = H;
transform = "{1, 0, 0, 1, 78, 0}";
}
);
paths = (
{
closed = 1;
nodes = (
"125 1147 LINE",
"844 1147 LINE",
"844 1228 LINE",
"125 1228 LINE"
);
}
);
};
components = (
{
alignment = -1;
name = H;
transform = "{1, 0, 0, 1, 78, 0}";
}
);
layerId = "6F82CFD7-79D5-473B-9D61-BE5DF154BBF2";
paths = (
{
closed = 1;
nodes = (
"125 1147 LINE",
"844 1147 LINE",
"844 1228 LINE",
"125 1228 LINE"
);
}
);
width = 969;
}
);
leftKerningGroup = H;
leftMetricsKey = H;
rightKerningGroup = H;
rightMetricsKey = H;
unicode = 0126;
},
{
glyphname = I;
layers = (
{
anchors = (
{
name = bottom;
position = "{180, 0}";
},
{
name = ogonek;
position = "{180, 0}";
},
{
name = top;
position = "{180, 1600}";
},
{
name = topleft;
position = "{100, 1600}";
}
);
background = {
anchors = (
{
name = bottom;
position = "{180, 0}";
},
{
name = ogonek;
position = "{180, 0}";
},
{
name = top;
position = "{180, 1600}";
},
{
name = topleft;
position = "{100, 1600}";
}
);
paths = (
{
closed = 1;
nodes = (
"220 0 LINE",
"220 1600 LINE",
"140 1600 LINE",
"140 0 LINE"
);
}
);
};
layerId = "3B122060-26E0-4730-9241-82784E6CB359";
paths = (
{
closed = 1;
nodes = (
"220 0 LINE",
"220 1600 LINE",
"140 1600 LINE",
"140 0 LINE"
);
}
);
width = 360;
},
{
anchors = (
{
name = bottom;
position = "{250, 0}";
},
{
name = ogonek;
position = "{176, 0}";
},
{
name = top;
position = "{250, 1600}";
},
{
name = topleft;
position = "{60, 1600}";
}
);
background = {
anchors = (
{
name = bottom;
position = "{250, 0}";
},
{
name = ogonek;
position = "{176, 0}";
},
{
name = top;
position = "{250, 1600}";
},
{
name = topleft;
position = "{60, 1600}";
}
);
paths = (
{
closed = 1;
nodes = (
"400 0 LINE",
"400 1600 LINE",
"100 1600 LINE",
"100 0 LINE"
);
}
);
};
layerId = "1DFA7D5B-2E97-4B89-827F-FB43F8066DC1";
paths = (
{
closed = 1;
nodes = (
"400 0 LINE",
"400 1600 LINE",
"100 1600 LINE",
"100 0 LINE"
);
}
);
width = 500;
},
{
anchors = (
{
name = bottom;
position = "{230, 0}";
},
{
name = ogonek;
position = "{158, 0}";
},
{
name = top;
position = "{230, 1600}";
},
{
name = topleft;
position = "{40, 1600}";
}
);
layerId = "5013C991-8699-46CB-BB1C-82E334DBD38B";
paths = (
{
closed = 1;
nodes = (
"380 0 LINE",
"380 1600 LINE",
"80 1600 LINE",
"80 0 LINE"
);
}
);
width = 460;
},
{
anchors = (
{
name = bottom;
position = "{140, 0}";
},
{
name = ogonek;
position = "{140, 0}";
},
{
name = top;
position = "{140, 1600}";
},
{
name = topleft;
position = "{80, 1600}";
}
);
background = {
anchors = (
{
name = bottom;
position = "{140, 0}";
},
{
name = ogonek;
position = "{140, 0}";
},
{
name = top;
position = "{140, 1600}";
},
{
name = topleft;
position = "{80, 1600}";
}
);
paths = (
{
closed = 1;
nodes = (
"160 0 LINE",
"160 1600 LINE",
"120 1600 LINE",
"120 0 LINE"
);
}
);
};
layerId = "3D06B89B-468F-44E0-A3D7-A5BC6911123E";
paths = (
{
closed = 1;
nodes = (
"160 0 LINE",
"160 1600 LINE",
"120 1600 LINE",
"120 0 LINE"
);
}
);
width = 280;
},
{
anchors = (
{
name = bottom;
position = "{163, 0}";
},
{
name = ogonek;
position = "{145, 0}";
},
{
name = top;
position = "{163, 1600}";
},
{
name = topleft;
position = "{70, 1600}";
}
);
background = {
anchors = (
{
name = bottom;
position = "{163, 0}";
},
{
name = ogonek;
position = "{145, 0}";
},
{
name = top;
position = "{163, 1600}";
},
{
name = topleft;
position = "{70, 1600}";
}
);
paths = (
{
closed = 1;
nodes = (
"215 0 LINE",
"215 1600 LINE",
"110 1600 LINE",
"110 0 LINE"
);
}
);
};
layerId = "C9EB94EC-C68D-4931-B320-068DCAB9FADA";
paths = (
{
closed = 1;
nodes = (
"215 0 LINE",
"215 1600 LINE",
"110 1600 LINE",
"110 0 LINE"
);
}
);
width = 325;
},
{
anchors = (
{
name = bottom;
position = "{193, 0}";
},
{
name = ogonek;
position = "{174, 0}";
},
{
name = top;
position = "{193, 1600}";
},
{
name = topleft;
position = "{85, 1600}";
}
);
background = {
anchors = (
{
name = bottom;
position = "{193, 0}";
},
{
name = ogonek;
position = "{174, 0}";
},
{
name = top;
position = "{193, 1600}";
},
{
name = topleft;
position = "{85, 1600}";
}
);
paths = (
{
closed = 1;
nodes = (
"260 0 LINE",
"260 1600 LINE",
"125 1600 LINE",
"125 0 LINE"
);
}
);
};
layerId = "6F82CFD7-79D5-473B-9D61-BE5DF154BBF2";
paths = (
{
closed = 1;
nodes = (
"260 0 LINE",
"260 1600 LINE",
"125 1600 LINE",
"125 0 LINE"
);
}
);
width = 385;
}
);
leftKerningGroup = H;
leftMetricsKey = H;
rightKerningGroup = H;
rightMetricsKey = H;
unicode = 0049;
},
{
glyphname = J;
layers = (
{
anchors = (
{
name = bottom;
position = "{292, 0}";
},
{
name = top;
position = "{332, 1600}";
}
);
background = {
anchors = (
{
name = bottom;
position = "{292, 0}";
},
{
name = top;
position = "{332, 1600}";
}
);
paths = (
{
closed = 1;
nodes = (
"450 -10 OFFCURVE",
"516 48 OFFCURVE",
"516 196 CURVE SMOOTH",
"516 1600 LINE",
"436 1600 LINE",
"436 196 LINE SMOOTH",
"436 98 OFFCURVE",
"404 66 OFFCURVE",
"284 66 CURVE SMOOTH",
"180 66 OFFCURVE",
"152 98 OFFCURVE",
"148 196 CURVE SMOOTH",
"142 326 OFFCURVE",
"144 436 OFFCURVE",
"148 566 CURVE",
"68 566 LINE",
"64 426 OFFCURVE",
"64 336 OFFCURVE",
"68 196 CURVE SMOOTH",
"72 48 OFFCURVE",
"134 -10 OFFCURVE",
"284 -10 CURVE SMOOTH"
);
}
);
};
layerId = "3B122060-26E0-4730-9241-82784E6CB359";
paths = (
{
closed = 1;
nodes = (
"450 -10 OFFCURVE",
"516 48 OFFCURVE",
"516 196 CURVE SMOOTH",
"516 1600 LINE",
"436 1600 LINE",
"436 196 LINE SMOOTH",
"436 98 OFFCURVE",
"404 66 OFFCURVE",
"284 66 CURVE SMOOTH",
"180 66 OFFCURVE",
"152 98 OFFCURVE",
"148 196 CURVE SMOOTH",
"142 326 OFFCURVE",
"144 436 OFFCURVE",
"148 566 CURVE",
"68 566 LINE",
"64 426 OFFCURVE",
"64 336 OFFCURVE",
"68 196 CURVE SMOOTH",
"72 48 OFFCURVE",
"134 -10 OFFCURVE",
"284 -10 CURVE SMOOTH"
);
}
);
width = 636;
},
{
anchors = (
{
name = bottom;
position = "{459, -20}";
},
{
name = top;
position = "{515, 1600}";
}
);
background = {
anchors = (
{
name = bottom;
position = "{459, -20}";
},
{
name = top;
position = "{515, 1600}";
}
);
paths = (
{
closed = 1;
nodes = (
"767 -20 OFFCURVE",
"889 94 OFFCURVE",
"889 382 CURVE SMOOTH",
"889 1600 LINE",
"589 1600 LINE",
"589 346 LINE SMOOTH",
"589 258 OFFCURVE",
"551 224 OFFCURVE",
"459 224 CURVE SMOOTH",
"365 224 OFFCURVE",
"325 258 OFFCURVE",
"323 346 CURVE SMOOTH",
"321 418 OFFCURVE",
"321 528 OFFCURVE",
"323 600 CURVE",
"41 600 LINE",
"39 536 OFFCURVE",
"39 446 OFFCURVE",
"41 382 CURVE SMOOTH",
"49 94 OFFCURVE",
"169 -20 OFFCURVE",
"459 -20 CURVE SMOOTH"
);
}
);
};
layerId = "1DFA7D5B-2E97-4B89-827F-FB43F8066DC1";
paths = (
{
closed = 1;
nodes = (
"767 -20 OFFCURVE",
"889 94 OFFCURVE",
"889 382 CURVE SMOOTH",
"889 1600 LINE",
"589 1600 LINE",
"589 346 LINE SMOOTH",
"589 258 OFFCURVE",
"551 224 OFFCURVE",
"459 224 CURVE SMOOTH",
"365 224 OFFCURVE",
"325 258 OFFCURVE",
"323 346 CURVE SMOOTH",
"321 418 OFFCURVE",
"321 528 OFFCURVE",
"323 600 CURVE",
"41 600 LINE",
"39 536 OFFCURVE",
"39 446 OFFCURVE",
"41 382 CURVE SMOOTH",
"49 94 OFFCURVE",
"169 -20 OFFCURVE",
"459 -20 CURVE SMOOTH"
);
}
);
width = 969;
},
{
anchors = (
{
name = bottom;
position = "{433, -20}";
},
{
name = top;
position = "{489, 1600}";
}
);
layerId = "5013C991-8699-46CB-BB1C-82E334DBD38B";
paths = (
{
closed = 1;
nodes = (
"735 -20 OFFCURVE",
"843 94 OFFCURVE",
"843 382 CURVE SMOOTH",
"843 1600 LINE",
"543 1600 LINE",
"543 326 LINE SMOOTH",
"543 260 OFFCURVE",
"511 224 OFFCURVE",
"433 224 CURVE SMOOTH",
"355 224 OFFCURVE",
"319 260 OFFCURVE",
"317 326 CURVE SMOOTH",
"315 398 OFFCURVE",
"315 528 OFFCURVE",
"317 600 CURVE",
"35 600 LINE",
"33 536 OFFCURVE",
"33 446 OFFCURVE",
"35 382 CURVE SMOOTH",
"43 94 OFFCURVE",
"139 -20 OFFCURVE",
"433 -20 CURVE SMOOTH"
);
}
);
width = 903;
},
{
anchors = (
{
name = bottom;
position = "{249, 0}";
},
{
name = top;
position = "{289, 1600}";
}
);
background = {
anchors = (
{
name = bottom;
position = "{249, 0}";
},
{
name = top;
position = "{289, 1600}";
}
);
paths = (
{
closed = 1;
nodes = (
"363 -10 OFFCURVE",
"413 44 OFFCURVE",
"413 176 CURVE SMOOTH",
"413 1600 LINE",
"373 1600 LINE",
"373 176 LINE SMOOTH",
"373 72 OFFCURVE",
"335 30 OFFCURVE",
"241 30 CURVE SMOOTH",
"143 30 OFFCURVE",
"109 72 OFFCURVE",
"105 176 CURVE SMOOTH",
"101 306 OFFCURVE",
"101 436 OFFCURVE",
"105 566 CURVE",
"65 566 LINE",
"61 426 OFFCURVE",
"61 316 OFFCURVE",
"65 176 CURVE SMOOTH",
"67 44 OFFCURVE",
"117 -10 OFFCURVE",
"241 -10 CURVE SMOOTH"
);
}
);
};
layerId = "3D06B89B-468F-44E0-A3D7-A5BC6911123E";
paths = (
{
closed = 1;
nodes = (
"363 -10 OFFCURVE",
"413 44 OFFCURVE",
"413 176 CURVE SMOOTH",
"413 1600 LINE",
"373 1600 LINE",
"373 176 LINE SMOOTH",
"373 72 OFFCURVE",
"335 30 OFFCURVE",
"241 30 CURVE SMOOTH",
"143 30 OFFCURVE",
"109 72 OFFCURVE",
"105 176 CURVE SMOOTH",
"101 306 OFFCURVE",
"101 436 OFFCURVE",
"105 566 CURVE",
"65 566 LINE",
"61 426 OFFCURVE",
"61 316 OFFCURVE",
"65 176 CURVE SMOOTH",
"67 44 OFFCURVE",
"117 -10 OFFCURVE",
"241 -10 CURVE SMOOTH"
);
}
);
width = 513;
},
{
anchors = (
{
name = bottom;
position = "{300, -5}";
},
{
name = top;
position = "{344, 1600}";
}
);
background = {
anchors = (
{
name = bottom;
position = "{300, -5}";
},
{
name = top;
position = "{344, 1600}";
}
);
paths = (
{
closed = 1;
nodes = (
"461 -13 OFFCURVE",
"525 57 OFFCURVE",
"525 228 CURVE SMOOTH",
"525 1600 LINE",
"420 1600 LINE",
"420 214 LINE SMOOTH",
"420 119 OFFCURVE",
"384 79 OFFCURVE",
"294 79 CURVE SMOOTH",
"201 79 OFFCURVE",
"166 119 OFFCURVE",
"163 214 CURVE SMOOTH",
"159 329 OFFCURVE",
"159 459 OFFCURVE",
"163 575 CURVE",
"62 575 LINE",
"59 454 OFFCURVE",
"59 349 OFFCURVE",
"62 228 CURVE SMOOTH",
"66 57 OFFCURVE",
"127 -13 OFFCURVE",
"294 -13 CURVE SMOOTH"
);
}
);
};
layerId = "C9EB94EC-C68D-4931-B320-068DCAB9FADA";
paths = (
{
closed = 1;
nodes = (
"461 -13 OFFCURVE",
"525 57 OFFCURVE",
"525 228 CURVE SMOOTH",
"525 1600 LINE",
"420 1600 LINE",
"420 214 LINE SMOOTH",
"420 119 OFFCURVE",
"384 79 OFFCURVE",
"294 79 CURVE SMOOTH",
"201 79 OFFCURVE",
"166 119 OFFCURVE",
"163 214 CURVE SMOOTH",
"159 329 OFFCURVE",
"159 459 OFFCURVE",
"163 575 CURVE",
"62 575 LINE",
"59 454 OFFCURVE",
"59 349 OFFCURVE",
"62 228 CURVE SMOOTH",
"66 57 OFFCURVE",
"127 -13 OFFCURVE",
"294 -13 CURVE SMOOTH"
);
}
);
width = 615;
},
{
anchors = (
{
name = bottom;
position = "{332, -5}";
},
{
name = top;
position = "{376, 1600}";
}
);
background = {
anchors = (
{
name = bottom;
position = "{332, -5}";
},
{
name = top;
position = "{376, 1600}";
}
);
paths = (
{
closed = 1;
nodes = (
"527 -13 OFFCURVE",
"607 60 OFFCURVE",
"607 243 CURVE SMOOTH",
"607 1600 LINE",
"472 1600 LINE",
"472 234 LINE SMOOTH",
"472 138 OFFCURVE",
"439 106 OFFCURVE",
"326 106 CURVE SMOOTH",
"224 106 OFFCURVE",
"193 138 OFFCURVE",
"190 234 CURVE SMOOTH",
"185 349 OFFCURVE",
"186 459 OFFCURVE",
"190 575 CURVE",
"59 575 LINE",
"56 454 OFFCURVE",
"56 364 OFFCURVE",
"59 243 CURVE SMOOTH",
"64 60 OFFCURVE",
"141 -13 OFFCURVE",
"326 -13 CURVE SMOOTH"
);
}
);
};
layerId = "6F82CFD7-79D5-473B-9D61-BE5DF154BBF2";
paths = (
{
closed = 1;
nodes = (
"527 -13 OFFCURVE",
"607 60 OFFCURVE",
"607 243 CURVE SMOOTH",
"607 1600 LINE",
"472 1600 LINE",
"472 234 LINE SMOOTH",
"472 138 OFFCURVE",
"439 106 OFFCURVE",
"326 106 CURVE SMOOTH",
"224 106 OFFCURVE",
"193 138 OFFCURVE",
"190 234 CURVE SMOOTH",
"185 349 OFFCURVE",
"186 459 OFFCURVE",
"190 575 CURVE",
"59 575 LINE",
"56 454 OFFCURVE",
"56 364 OFFCURVE",
"59 243 CURVE SMOOTH",
"64 60 OFFCURVE",
"141 -13 OFFCURVE",
"326 -13 CURVE SMOOTH"
);
}
);
width = 712;
}
);
leftKerningGroup = J;
rightKerningGroup = O;
rightMetricsKey = "=H-20";
unicode = 004A;
},
{
glyphname = K;
layers = (
{
anchors = (
{
name = bottom;
position = "{370, 0}";
},
{
name = top;
position = "{350, 1600}";
}
);
background = {
anchors = (
{
name = bottom;
position = "{370, 0}";
},
{
name = top;
position = "{350, 1600}";
}
);
paths = (
{
closed = 1;
nodes = (
"220 0 LINE",
"220 360 LINE",
"340 718 LINE",
"550 0 LINE",
"636 0 LINE",
"382 852 LINE",
"604 1600 LINE",
"520 1600 LINE",
"426 1282 LINE",
"256 698 LINE",
"220 698 LINE",
"220 1230 LINE",
"220 1600 LINE",
"140 1600 LINE",
"140 0 LINE"
);
}
);
};
layerId = "3B122060-26E0-4730-9241-82784E6CB359";
paths = (
{
closed = 1;
nodes = (
"220 0 LINE",
"220 360 LINE",
"340 718 LINE",
"550 0 LINE",
"636 0 LINE",
"382 852 LINE",
"604 1600 LINE",
"520 1600 LINE",
"426 1282 LINE",
"256 698 LINE",
"220 698 LINE",
"220 1230 LINE",
"220 1600 LINE",
"140 1600 LINE",
"140 0 LINE"
);
}
);
width = 656;
},
{
anchors = (
{
name = bottom;
position = "{550, 0}";
},
{
name = top;
position = "{550, 1600}";
}
);
background = {
anchors = (
{
name = bottom;
position = "{550, 0}";
},
{
name = top;
position = "{550, 1600}";
}
);
paths = (
{
closed = 1;
nodes = (
"406 0 LINE",
"406 360 LINE",
"550 640 LINE",
"732 0 LINE",
"1036 0 LINE",
"758 942 LINE",
"1024 1600 LINE",
"696 1600 LINE",
"552 1212 LINE",
"456 854 LINE",
"382 854 LINE",
"416 1212 LINE",
"420 1600 LINE",
"100 1600 LINE",
"100 0 LINE"
);
}
);
};
layerId = "1DFA7D5B-2E97-4B89-827F-FB43F8066DC1";
paths = (
{
closed = 1;
nodes = (
"406 0 LINE",
"406 360 LINE",
"550 640 LINE",
"732 0 LINE",
"1036 0 LINE",
"758 942 LINE",
"1024 1600 LINE",
"696 1600 LINE",
"552 1212 LINE",
"456 854 LINE",
"382 854 LINE",
"416 1212 LINE",
"420 1600 LINE",
"100 1600 LINE",
"100 0 LINE"
);
}
);
width = 1050;
},
{
anchors = (
{
name = bottom;
position = "{530, 0}";
},
{
name = top;
position = "{530, 1600}";
}
);
background = {
paths = (
{
closed = 1;
nodes = (
"400 0 LINE",
"400 1600 LINE",
"100 1600 LINE",
"100 0 LINE"
);
},
{
closed = 1;
nodes = (
"960 0 LINE",
"674 838 LINE",
"444 646 LINE",
"646 0 LINE"
);
},
{
closed = 1;
nodes = (
"638 634 LINE",
"936 1600 LINE",
"622 1600 LINE",
"440 940 LINE",
"400 940 LINE",
"400 634 LINE"
);
}
);
};
layerId = "5013C991-8699-46CB-BB1C-82E334DBD38B";
paths = (
{
closed = 1;
nodes = (
"386 0 LINE",
"386 368 LINE",
"498 610 LINE",
"672 0 LINE",
"976 0 LINE",
"698 942 LINE",
"964 1600 LINE",
"636 1600 LINE",
"492 1212 LINE",
"396 854 LINE",
"342 854 LINE",
"396 1212 LINE",
"400 1600 LINE",
"80 1600 LINE",
"80 0 LINE"
);
}
);
width = 993;
},
{
anchors = (
{
name = bottom;
position = "{298, 0}";
},
{
name = top;
position = "{278, 1600}";
}
);
background = {
anchors = (
{
name = bottom;
position = "{298, 0}";
},
{
name = top;
position = "{278, 1600}";
}
);
paths = (
{
closed = 1;
nodes = (
"160 0 LINE",
"160 598 LINE",
"220 788 LINE",
"450 0 LINE",
"496 0 LINE",
"242 852 LINE",
"464 1600 LINE",
"420 1600 LINE",
"326 1282 LINE",
"182 790 LINE",
"160 790 LINE",
"160 1226 LINE",
"160 1600 LINE",
"120 1600 LINE",
"120 0 LINE"
);
}
);
};
layerId = "3D06B89B-468F-44E0-A3D7-A5BC6911123E";
paths = (
{
closed = 1;
nodes = (
"160 0 LINE",
"160 598 LINE",
"220 788 LINE",
"450 0 LINE",
"496 0 LINE",
"242 852 LINE",
"464 1600 LINE",
"420 1600 LINE",
"326 1282 LINE",
"182 790 LINE",
"160 790 LINE",
"160 1226 LINE",
"160 1600 LINE",
"120 1600 LINE",
"120 0 LINE"
);
}
);
width = 521;
},
{
anchors = (
{
name = bottom;
position = "{356, 0}";
},
{
name = top;
position = "{341, 1600}";
}
);
background = {
anchors = (
{
name = bottom;
position = "{356, 0}";
},
{
name = top;
position = "{341, 1600}";
}
);
paths = (
{
closed = 1;
nodes = (
"217 0 LINE",
"217 541 LINE",
"290 744 LINE",
"506 0 LINE",
"616 0 LINE",
"356 875 LINE",
"589 1600 LINE",
"474 1600 LINE",
"368 1265 LINE",
"236 806 LINE",
"206 806 LINE",
"219 1223 LINE",
"220 1600 LINE",
"110 1600 LINE",
"110 0 LINE"
);
}
);
};
layerId = "C9EB94EC-C68D-4931-B320-068DCAB9FADA";
paths = (
{
closed = 1;
nodes = (
"217 0 LINE",
"217 541 LINE",
"290 744 LINE",
"506 0 LINE",
"616 0 LINE",
"356 875 LINE",
"589 1600 LINE",
"474 1600 LINE",
"368 1265 LINE",
"236 806 LINE",
"206 806 LINE",
"219 1223 LINE",
"220 1600 LINE",
"110 1600 LINE",
"110 0 LINE"
);
}
);
width = 641;
},
{
anchors = (
{
name = bottom;
position = "{410, 0}";
},
{
name = top;
position = "{395, 1600}";
}
);
background = {
anchors = (
{
name = bottom;
position = "{410, 0}";
},
{
name = top;
position = "{395, 1600}";
}
);
paths = (
{
closed = 1;
nodes = (
"262 0 LINE",
"262 360 LINE",
"388 699 LINE",
"591 0 LINE",
"731 0 LINE",
"471 875 LINE",
"704 1600 LINE",
"559 1600 LINE",
"453 1265 LINE",
"301 737 LINE",
"256 737 LINE",
"264 1226 LINE",
"265 1600 LINE",
"125 1600 LINE",
"125 0 LINE"
);
}
);
};
layerId = "6F82CFD7-79D5-473B-9D61-BE5DF154BBF2";
paths = (
{
closed = 1;
nodes = (
"262 0 LINE",
"262 360 LINE",
"388 699 LINE",
"591 0 LINE",
"731 0 LINE",
"471 875 LINE",
"704 1600 LINE",
"559 1600 LINE",
"453 1265 LINE",
"301 737 LINE",
"256 737 LINE",
"264 1226 LINE",
"265 1600 LINE",
"125 1600 LINE",
"125 0 LINE"
);
}
);
width = 741;
}
);
leftKerningGroup = H;
leftMetricsKey = H;
rightKerningGroup = K;
unicode = 004B;
},
{
glyphname = L;
layers = (
{
anchors = (
{
name = bottom;
position = "{362, 0}";
},
{
name = center;
position = "{330, 800}";
},
{
name = top;
position = "{330, 1600}";
},
{
name = topright;
position = "{341, 1330}";
}
);
background = {
anchors = (
{
name = bottom;
position = "{362, 0}";
},
{
name = center;
position = "{330, 800}";
},
{
name = top;
position = "{330, 1600}";
},
{
name = topright;
position = "{498, 1600}";
}
);
paths = (
{
closed = 1;
nodes = (
"578 0 LINE",
"578 76 LINE",
"220 76 LINE",
"220 1600 LINE",
"140 1600 LINE",
"140 0 LINE"
);
}
);
};
layerId = "3B122060-26E0-4730-9241-82784E6CB359";
paths = (
{
closed = 1;
nodes = (
"578 0 LINE",
"578 76 LINE",
"220 76 LINE",
"220 1600 LINE",
"140 1600 LINE",
"140 0 LINE"
);
}
);
width = 597;
},
{
anchors = (
{
name = bottom;
position = "{446, 0}";
},
{
name = center;
position = "{458, 800}";
},
{
name = top;
position = "{458, 1600}";
},
{
name = topright;
position = "{519, 1263}";
}
);
background = {
anchors = (
{
name = bottom;
position = "{446, 0}";
},
{
name = center;
position = "{458, 800}";
},
{
name = top;
position = "{458, 1600}";
},
{
name = topright;
position = "{854, 1600}";
}
);
paths = (
{
closed = 1;
nodes = (
"794 0 LINE",
"794 264 LINE",
"400 264 LINE",
"400 1600 LINE",
"100 1600 LINE",
"100 0 LINE"
);
}
);
};
layerId = "1DFA7D5B-2E97-4B89-827F-FB43F8066DC1";
paths = (
{
closed = 1;
nodes = (
"794 0 LINE",
"794 264 LINE",
"400 264 LINE",
"400 1600 LINE",
"100 1600 LINE",
"100 0 LINE"
);
}
);
width = 820;
},
{
anchors = (
{
name = bottom;
position = "{428, 0}";
},
{
name = center;
position = "{438, 800}";
},
{
name = top;
position = "{438, 1600}";
},
{
name = topright;
position = "{834, 1600}";
}
);
layerId = "5013C991-8699-46CB-BB1C-82E334DBD38B";
paths = (
{
closed = 1;
nodes = (
"774 0 LINE",
"774 264 LINE",
"380 264 LINE",
"380 1600 LINE",
"80 1600 LINE",
"80 0 LINE"
);
}
);
width = 804;
},
{
anchors = (
{
name = bottom;
position = "{282, 0}";
},
{
name = center;
position = "{250, 800}";
},
{
name = top;
position = "{250, 1600}";
},
{
name = topright;
position = "{418, 1600}";
}
);
background = {
anchors = (
{
name = bottom;
position = "{282, 0}";
},
{
name = center;
position = "{250, 800}";
},
{
name = top;
position = "{250, 1600}";
},
{
name = topright;
position = "{418, 1600}";
}
);
paths = (
{
closed = 1;
nodes = (
"438 0 LINE",
"438 40 LINE",
"160 40 LINE",
"160 1600 LINE",
"120 1600 LINE",
"120 0 LINE"
);
}
);
};
layerId = "3D06B89B-468F-44E0-A3D7-A5BC6911123E";
paths = (
{
closed = 1;
nodes = (
"438 0 LINE",
"438 40 LINE",
"160 40 LINE",
"160 1600 LINE",
"120 1600 LINE",
"120 0 LINE"
);
}
);
width = 450;
},
{
anchors = (
{
name = bottom;
position = "{319, 0}";
},
{
name = center;
position = "{297, 800}";
},
{
name = top;
position = "{297, 1600}";
},
{
name = topright;
position = "{522, 1600}";
}
);
background = {
anchors = (
{
name = bottom;
position = "{319, 0}";
},
{
name = center;
position = "{297, 800}";
},
{
name = top;
position = "{297, 1600}";
},
{
name = topright;
position = "{522, 1600}";
}
);
paths = (
{
closed = 1;
nodes = (
"522 0 LINE",
"522 96 LINE",
"215 96 LINE",
"215 1600 LINE",
"110 1600 LINE",
"110 0 LINE"
);
}
);
};
layerId = "C9EB94EC-C68D-4931-B320-068DCAB9FADA";
paths = (
{
closed = 1;
nodes = (
"522 0 LINE",
"522 96 LINE",
"215 96 LINE",
"215 1600 LINE",
"110 1600 LINE",
"110 0 LINE"
);
}
);
width = 542;
},
{
anchors = (
{
name = bottom;
position = "{378, 0}";
},
{
name = center;
position = "{357, 800}";
},
{
name = top;
position = "{357, 1600}";
},
{
name = topright;
position = "{385, 1318}";
}
);
background = {
anchors = (
{
name = bottom;
position = "{378, 0}";
},
{
name = center;
position = "{357, 800}";
},
{
name = top;
position = "{357, 1600}";
},
{
name = topright;
position = "{582, 1600}";
}
);
paths = (
{
closed = 1;
nodes = (
"627 0 LINE",
"627 123 LINE",
"260 123 LINE",
"260 1600 LINE",
"125 1600 LINE",
"125 0 LINE"
);
}
);
};
layerId = "6F82CFD7-79D5-473B-9D61-BE5DF154BBF2";
paths = (
{
closed = 1;
nodes = (
"627 0 LINE",
"627 123 LINE",
"260 123 LINE",
"260 1600 LINE",
"125 1600 LINE",
"125 0 LINE"
);
}
);
width = 637;
}
);
leftKerningGroup = H;
leftMetricsKey = H;
rightKerningGroup = L;
unicode = 004C;
},
{
glyphname = Lslash;
layers = (
{
anchors = (
{
name = bottom;
position = "{362, 0}";
},
{
name = center;
position = "{330, 800}";
},
{
name = top;
position = "{330, 1600}";
},
{
name = topright;
position = "{498, 1600}";
}
);
background = {
anchors = (
{
name = bottom;
position = "{362, 0}";
},
{
name = center;
position = "{330, 800}";
},
{
name = top;
position = "{330, 1600}";
},
{
name = topright;
position = "{498, 1600}";
}
);
paths = (
{
closed = 1;
nodes = (
"578 0 LINE",
"578 76 LINE",
"220 76 LINE",
"220 786 LINE",
"346 1200 LINE",
"266 1200 LINE",
"220 1048 LINE",
"220 1600 LINE",
"140 1600 LINE",
"140 784 LINE",
"20 394 LINE",
"100 394 LINE",
"140 522 LINE",
"140 0 LINE"
);
}
);
};
layerId = "3B122060-26E0-4730-9241-82784E6CB359";
paths = (
{
closed = 1;
nodes = (
"578 0 LINE",
"578 76 LINE",
"220 76 LINE",
"220 786 LINE",
"346 1200 LINE",
"266 1200 LINE",
"220 1048 LINE",
"220 1600 LINE",
"140 1600 LINE",
"140 784 LINE",
"20 394 LINE",
"100 394 LINE",
"140 522 LINE",
"140 0 LINE"
);
}
);
width = 597;
},
{
anchors = (
{
name = bottom;
position = "{586, 0}";
},
{
name = center;
position = "{598, 800}";
},
{
name = top;
position = "{598, 1600}";
},
{
name = topright;
position = "{994, 1600}";
}
);
background = {
anchors = (
{
name = bottom;
position = "{586, 0}";
},
{
name = center;
position = "{598, 800}";
},
{
name = top;
position = "{598, 1600}";
},
{
name = topright;
position = "{994, 1600}";
}
);
paths = (
{
closed = 1;
nodes = (
"934 0 LINE",
"934 264 LINE",
"540 264 LINE",
"540 786 LINE",
"800 1200 LINE",
"574 1200 LINE",
"540 1132 LINE",
"540 1600 LINE",
"240 1600 LINE",
"240 744 LINE",
"0 360 LINE",
"206 360 LINE",
"240 432 LINE",
"240 0 LINE"
);
}
);
};
layerId = "1DFA7D5B-2E97-4B89-827F-FB43F8066DC1";
paths = (
{
closed = 1;
nodes = (
"934 0 LINE",
"934 264 LINE",
"540 264 LINE",
"540 786 LINE",
"800 1200 LINE",
"574 1200 LINE",
"540 1132 LINE",
"540 1600 LINE",
"240 1600 LINE",
"240 744 LINE",
"0 360 LINE",
"206 360 LINE",
"240 432 LINE",
"240 0 LINE"
);
}
);
width = 960;
},
{
anchors = (
{
name = bottom;
position = "{584, 0}";
},
{
name = center;
position = "{594, 800}";
},
{
name = top;
position = "{594, 1600}";
},
{
name = topright;
position = "{990, 1600}";
}
);
layerId = "5013C991-8699-46CB-BB1C-82E334DBD38B";
paths = (
{
closed = 1;
nodes = (
"930 0 LINE",
"930 264 LINE",
"536 264 LINE",
"536 778 LINE",
"800 1200 LINE",
"574 1200 LINE",
"536 1124 LINE",
"536 1600 LINE",
"236 1600 LINE",
"236 738 LINE",
"0 360 LINE",
"206 360 LINE",
"236 424 LINE",
"236 0 LINE"
);
}
);
width = 960;
},
{
anchors = (
{
name = bottom;
position = "{284, 0}";
},
{
name = center;
position = "{252, 800}";
},
{
name = top;
position = "{252, 1600}";
},
{
name = topright;
position = "{420, 1600}";
}
);
background = {
anchors = (
{
name = bottom;
position = "{284, 0}";
},
{
name = center;
position = "{252, 800}";
},
{
name = top;
position = "{252, 1600}";
},
{
name = topright;
position = "{420, 1600}";
}
);
paths = (
{
closed = 1;
nodes = (
"440 0 LINE",
"440 40 LINE",
"162 40 LINE",
"162 814 LINE",
"240 1200 LINE",
"200 1200 LINE",
"162 1008 LINE",
"162 1600 LINE",
"122 1600 LINE",
"122 806 LINE",
"40 400 LINE",
"80 400 LINE",
"122 614 LINE",
"122 0 LINE"
);
}
);
};
layerId = "3D06B89B-468F-44E0-A3D7-A5BC6911123E";
paths = (
{
closed = 1;
nodes = (
"440 0 LINE",
"440 40 LINE",
"162 40 LINE",
"162 814 LINE",
"240 1200 LINE",
"200 1200 LINE",
"162 1008 LINE",
"162 1600 LINE",
"122 1600 LINE",
"122 806 LINE",
"40 400 LINE",
"80 400 LINE",
"122 614 LINE",
"122 0 LINE"
);
}
);
width = 452;
},
{
anchors = (
{
name = bottom;
position = "{359, 0}";
},
{
name = center;
position = "{338, 800}";
},
{
name = top;
position = "{338, 1600}";
},
{
name = topright;
position = "{563, 1600}";
}
);
background = {
anchors = (
{
name = bottom;
position = "{359, 0}";
},
{
name = center;
position = "{338, 800}";
},
{
name = top;
position = "{338, 1600}";
},
{
name = topright;
position = "{563, 1600}";
}
);
paths = (
{
closed = 1;
nodes = (
"563 0 LINE",
"563 96 LINE",
"256 96 LINE",
"256 805 LINE",
"380 1200 LINE",
"294 1200 LINE",
"256 1037 LINE",
"256 1600 LINE",
"151 1600 LINE",
"151 789 LINE",
"30 390 LINE",
"112 390 LINE",
"151 567 LINE",
"151 0 LINE"
);
}
);
};
layerId = "C9EB94EC-C68D-4931-B320-068DCAB9FADA";
paths = (
{
closed = 1;
nodes = (
"563 0 LINE",
"563 96 LINE",
"256 96 LINE",
"256 805 LINE",
"380 1200 LINE",
"294 1200 LINE",
"256 1037 LINE",
"256 1600 LINE",
"151 1600 LINE",
"151 789 LINE",
"30 390 LINE",
"112 390 LINE",
"151 567 LINE",
"151 0 LINE"
);
}
);
width = 583;
},
{
anchors = (
{
name = bottom;
position = "{418, 0}";
},
{
name = center;
position = "{397, 800}";
},
{
name = top;
position = "{397, 1600}";
},
{
name = topright;
position = "{622, 1600}";
}
);
background = {
anchors = (
{
name = bottom;
position = "{418, 0}";
},
{
name = center;
position = "{397, 800}";
},
{
name = top;
position = "{397, 1600}";
},
{
name = topright;
position = "{622, 1600}";
}
);
paths = (
{
closed = 1;
nodes = (
"667 0 LINE",
"667 123 LINE",
"300 123 LINE",
"300 786 LINE",
"460 1200 LINE",
"343 1200 LINE",
"300 1069 LINE",
"300 1600 LINE",
"165 1600 LINE",
"165 774 LINE",
"15 386 LINE",
"127 386 LINE",
"165 500 LINE",
"165 0 LINE"
);
}
);
};
layerId = "6F82CFD7-79D5-473B-9D61-BE5DF154BBF2";
paths = (
{
closed = 1;
nodes = (
"667 0 LINE",
"667 123 LINE",
"300 123 LINE",
"300 786 LINE",
"460 1200 LINE",
"343 1200 LINE",
"300 1069 LINE",
"300 1600 LINE",
"165 1600 LINE",
"165 774 LINE",
"15 386 LINE",
"127 386 LINE",
"165 500 LINE",
"165 0 LINE"
);
}
);
width = 677;
}
);
leftKerningGroup = H;
rightKerningGroup = L;
rightMetricsKey = L;
unicode = 0141;
},
{
glyphname = M;
layers = (
{
anchors = (
{
name = bottom;
position = "{548, 0}";
},
{
name = top;
position = "{548, 1600}";
}
);
background = {
anchors = (
{
name = bottom;
position = "{548, 0}";
},
{
name = top;
position = "{548, 1600}";
}
);
paths = (
{
closed = 1;
nodes = (
"220 0 LINE",
"220 504 LINE",
"220 1524 LINE",
"300 1524 LINE",
"414 452 LINE",
"460 10 LINE",
"634 10 LINE",
"680 452 LINE",
"794 1524 LINE",
"874 1524 LINE",
"874 504 LINE",
"874 0 LINE",
"954 0 LINE",
"954 1600 LINE",
"722 1600 LINE",
"648 918 LINE",
"564 86 LINE",
"530 86 LINE",
"446 918 LINE",
"372 1600 LINE",
"140 1600 LINE",
"140 0 LINE"
);
}
);
};
layerId = "3B122060-26E0-4730-9241-82784E6CB359";
paths = (
{
closed = 1;
nodes = (
"220 0 LINE",
"220 504 LINE",
"220 1524 LINE",
"300 1524 LINE",
"414 452 LINE",
"460 10 LINE",
"634 10 LINE",
"680 452 LINE",
"794 1524 LINE",
"874 1524 LINE",
"874 504 LINE",
"874 0 LINE",
"954 0 LINE",
"954 1600 LINE",
"722 1600 LINE",
"648 918 LINE",
"564 86 LINE",
"530 86 LINE",
"446 918 LINE",
"372 1600 LINE",
"140 1600 LINE",
"140 0 LINE"
);
}
);
width = 1094;
},
{
anchors = (
{
name = bottom;
position = "{846, 0}";
},
{
name = top;
position = "{846, 1600}";
}
);
background = {
anchors = (
{
name = bottom;
position = "{846, 0}";
},
{
name = top;
position = "{846, 1600}";
}
);
paths = (
{
closed = 1;
nodes = (
"410 0 LINE",
"410 492 LINE",
"354 1336 LINE",
"446 1336 LINE",
"532 472 LINE",
"654 0 LINE",
"1026 0 LINE",
"1160 472 LINE",
"1244 1336 LINE",
"1338 1336 LINE",
"1280 492 LINE",
"1280 0 LINE",
"1590 0 LINE",
"1590 1600 LINE",
"1050 1600 LINE",
"916 994 LINE",
"892 264 LINE",
"800 264 LINE",
"774 994 LINE",
"642 1600 LINE",
"100 1600 LINE",
"100 0 LINE"
);
}
);
};
layerId = "1DFA7D5B-2E97-4B89-827F-FB43F8066DC1";
paths = (
{
closed = 1;
nodes = (
"410 0 LINE",
"410 492 LINE",
"354 1336 LINE",
"446 1336 LINE",
"532 472 LINE",
"654 0 LINE",
"1026 0 LINE",
"1160 472 LINE",
"1244 1336 LINE",
"1338 1336 LINE",
"1280 492 LINE",
"1280 0 LINE",
"1590 0 LINE",
"1590 1600 LINE",
"1050 1600 LINE",
"916 994 LINE",
"892 264 LINE",
"800 264 LINE",
"774 994 LINE",
"642 1600 LINE",
"100 1600 LINE",
"100 0 LINE"
);
}
);
width = 1690;
},
{
anchors = (
{
name = bottom;
position = "{746, 0}";
},
{
name = top;
position = "{746, 1600}";
}
);
layerId = "5013C991-8699-46CB-BB1C-82E334DBD38B";
paths = (
{
closed = 1;
nodes = (
"380 0 LINE",
"380 492 LINE",
"324 1336 LINE",
"376 1336 LINE",
"462 472 LINE",
"584 0 LINE",
"906 0 LINE",
"1030 472 LINE",
"1114 1336 LINE",
"1168 1336 LINE",
"1110 492 LINE",
"1110 0 LINE",
"1410 0 LINE",
"1410 1600 LINE",
"930 1600 LINE",
"796 994 LINE",
"772 264 LINE",
"720 264 LINE",
"694 994 LINE",
"562 1600 LINE",
"80 1600 LINE",
"80 0 LINE"
);
}
);
width = 1490;
},
{
anchors = (
{
name = bottom;
position = "{408, 0}";
},
{
name = top;
position = "{408, 1600}";
}
);
background = {
anchors = (
{
name = bottom;
position = "{408, 0}";
},
{
name = top;
position = "{408, 1600}";
}
);
paths = (
{
closed = 1;
nodes = (
"160 0 LINE",
"160 548 LINE",
"160 1560 LINE",
"196 1560 LINE",
"314 452 LINE",
"358 10 LINE",
"456 10 LINE",
"500 452 LINE",
"618 1560 LINE",
"654 1560 LINE",
"654 548 LINE",
"654 0 LINE",
"694 0 LINE",
"694 1600 LINE",
"582 1600 LINE",
"506 918 LINE",
"420 50 LINE",
"394 50 LINE",
"308 918 LINE",
"232 1600 LINE",
"120 1600 LINE",
"120 0 LINE"
);
}
);
};
layerId = "3D06B89B-468F-44E0-A3D7-A5BC6911123E";
paths = (
{
closed = 1;
nodes = (
"160 0 LINE",
"160 548 LINE",
"160 1560 LINE",
"196 1560 LINE",
"314 452 LINE",
"358 10 LINE",
"456 10 LINE",
"500 452 LINE",
"618 1560 LINE",
"654 1560 LINE",
"654 548 LINE",
"654 0 LINE",
"694 0 LINE",
"694 1600 LINE",
"582 1600 LINE",
"506 918 LINE",
"420 50 LINE",
"394 50 LINE",
"308 918 LINE",
"232 1600 LINE",
"120 1600 LINE",
"120 0 LINE"
);
}
);
width = 814;
},
{
anchors = (
{
name = bottom;
position = "{492, 0}";
},
{
name = top;
position = "{492, 1600}";
}
);
background = {
anchors = (
{
name = bottom;
position = "{492, 0}";
},
{
name = top;
position = "{492, 1600}";
}
);
paths = (
{
closed = 1;
nodes = (
"216 0 LINE",
"216 462 LINE",
"200 1504 LINE",
"242 1504 LINE",
"352 458 LINE",
"414 8 LINE",
"568 8 LINE",
"632 458 LINE",
"742 1504 LINE",
"786 1504 LINE",
"768 462 LINE",
"768 0 LINE",
"874 0 LINE",
"874 1600 LINE",
"670 1600 LINE",
"578 938 LINE",
"510 104 LINE",
"474 104 LINE",
"404 938 LINE",
"314 1600 LINE",
"110 1600 LINE",
"110 0 LINE"
);
}
);
};
layerId = "C9EB94EC-C68D-4931-B320-068DCAB9FADA";
paths = (
{
closed = 1;
nodes = (
"216 0 LINE",
"216 462 LINE",
"200 1504 LINE",
"242 1504 LINE",
"352 458 LINE",
"414 8 LINE",
"568 8 LINE",
"632 458 LINE",
"742 1504 LINE",
"786 1504 LINE",
"768 462 LINE",
"768 0 LINE",
"874 0 LINE",
"874 1600 LINE",
"670 1600 LINE",
"578 938 LINE",
"510 104 LINE",
"474 104 LINE",
"404 938 LINE",
"314 1600 LINE",
"110 1600 LINE",
"110 0 LINE"
);
}
);
width = 984;
},
{
anchors = (
{
name = bottom;
position = "{618, 0}";
},
{
name = top;
position = "{618, 1600}";
}
);
background = {
anchors = (
{
name = bottom;
position = "{618, 0}";
},
{
name = top;
position = "{618, 1600}";
}
);
paths = (
{
closed = 1;
nodes = (
"263 0 LINE",
"263 501 LINE",
"249 1477 LINE",
"332 1477 LINE",
"439 457 LINE",
"504 8 LINE",
"727 8 LINE",
"795 457 LINE",
"902 1477 LINE",
"985 1477 LINE",
"971 501 LINE",
"971 0 LINE",
"1108 0 LINE",
"1108 1600 LINE",
"799 1600 LINE",
"710 937 LINE",
"641 131 LINE",
"593 131 LINE",
"523 937 LINE",
"435 1600 LINE",
"125 1600 LINE",
"125 0 LINE"
);
}
);
};
layerId = "6F82CFD7-79D5-473B-9D61-BE5DF154BBF2";
paths = (
{
closed = 1;
nodes = (
"263 0 LINE",
"263 501 LINE",
"249 1477 LINE",
"332 1477 LINE",
"439 457 LINE",
"504 8 LINE",
"727 8 LINE",
"795 457 LINE",
"902 1477 LINE",
"985 1477 LINE",
"971 501 LINE",
"971 0 LINE",
"1108 0 LINE",
"1108 1600 LINE",
"799 1600 LINE",
"710 937 LINE",
"641 131 LINE",
"593 131 LINE",
"523 937 LINE",
"435 1600 LINE",
"125 1600 LINE",
"125 0 LINE"
);
}
);
width = 1233;
}
);
leftKerningGroup = H;
leftMetricsKey = H;
rightKerningGroup = H;
rightMetricsKey = H;
unicode = 004D;
},
{
glyphname = N;
layers = (
{
anchors = (
{
name = bottom;
position = "{462, 0}";
},
{
name = top;
position = "{476, 1600}";
}
);
background = {
anchors = (
{
name = bottom;
position = "{462, 0}";
},
{
name = top;
position = "{476, 1600}";
}
);
paths = (
{
closed = 1;
nodes = (
"220 0 LINE",
"220 818 LINE",
"220 1524 LINE",
"302 1524 LINE",
"432 600 LINE",
"518 0 LINE",
"750 0 LINE",
"750 1600 LINE",
"670 1600 LINE",
"670 1056 LINE",
"670 76 LINE",
"588 76 LINE",
"442 1096 LINE",
"370 1600 LINE",
"140 1600 LINE",
"140 0 LINE"
);
}
);
};
layerId = "3B122060-26E0-4730-9241-82784E6CB359";
paths = (
{
closed = 1;
nodes = (
"220 0 LINE",
"220 818 LINE",
"220 1524 LINE",
"302 1524 LINE",
"432 600 LINE",
"518 0 LINE",
"750 0 LINE",
"750 1600 LINE",
"670 1600 LINE",
"670 1056 LINE",
"670 76 LINE",
"588 76 LINE",
"442 1096 LINE",
"370 1600 LINE",
"140 1600 LINE",
"140 0 LINE"
);
}
);
width = 890;
},
{
anchors = (
{
name = bottom;
position = "{614, 0}";
},
{
name = top;
position = "{614, 1600}";
}
);
background = {
anchors = (
{
name = bottom;
position = "{614, 0}";
},
{
name = top;
position = "{614, 1600}";
}
);
paths = (
{
closed = 1;
nodes = (
"400 0 LINE",
"374 614 LINE",
"322 1338 LINE",
"418 1338 LINE",
"500 524 LINE",
"620 0 LINE",
"1138 0 LINE",
"1138 1600 LINE",
"836 1600 LINE",
"860 914 LINE",
"916 264 LINE",
"824 264 LINE",
"714 1090 LINE",
"594 1600 LINE",
"100 1600 LINE",
"100 0 LINE"
);
}
);
};
layerId = "1DFA7D5B-2E97-4B89-827F-FB43F8066DC1";
paths = (
{
closed = 1;
nodes = (
"400 0 LINE",
"374 614 LINE",
"322 1338 LINE",
"418 1338 LINE",
"500 524 LINE",
"620 0 LINE",
"1138 0 LINE",
"1138 1600 LINE",
"836 1600 LINE",
"860 914 LINE",
"916 264 LINE",
"824 264 LINE",
"714 1090 LINE",
"594 1600 LINE",
"100 1600 LINE",
"100 0 LINE"
);
}
);
width = 1238;
},
{
anchors = (
{
name = bottom;
position = "{544, 0}";
},
{
name = top;
position = "{544, 1600}";
}
);
background = {
paths = (
{
closed = 1;
nodes = (
"372 0 LINE",
"362 614 LINE",
"312 1336 LINE",
"368 1336 LINE",
"472 582 LINE",
"660 0 LINE",
"1138 0 LINE",
"1138 1600 LINE",
"818 1600 LINE",
"828 914 LINE",
"916 264 LINE",
"864 264 LINE",
"694 1070 LINE",
"534 1600 LINE",
"50 1600 LINE",
"50 0 LINE"
);
}
);
};
layerId = "5013C991-8699-46CB-BB1C-82E334DBD38B";
paths = (
{
closed = 1;
nodes = (
"370 0 LINE",
"344 614 LINE",
"292 1338 LINE",
"348 1338 LINE",
"430 524 LINE",
"550 0 LINE",
"1006 0 LINE",
"1006 1600 LINE",
"716 1600 LINE",
"740 914 LINE",
"796 264 LINE",
"744 264 LINE",
"634 1090 LINE",
"514 1600 LINE",
"80 1600 LINE",
"80 0 LINE"
);
}
);
width = 1086;
},
{
anchors = (
{
name = bottom;
position = "{322, 0}";
},
{
name = top;
position = "{336, 1600}";
}
);
background = {
anchors = (
{
name = bottom;
position = "{322, 0}";
},
{
name = top;
position = "{336, 1600}";
}
);
paths = (
{
closed = 1;
nodes = (
"160 0 LINE",
"160 680 LINE",
"160 1560 LINE",
"196 1560 LINE",
"332 600 LINE",
"418 0 LINE",
"530 0 LINE",
"530 1600 LINE",
"490 1600 LINE",
"490 1032 LINE",
"490 40 LINE",
"454 40 LINE",
"302 1096 LINE",
"230 1600 LINE",
"120 1600 LINE",
"120 0 LINE"
);
}
);
};
layerId = "3D06B89B-468F-44E0-A3D7-A5BC6911123E";
paths = (
{
closed = 1;
nodes = (
"160 0 LINE",
"160 680 LINE",
"160 1560 LINE",
"196 1560 LINE",
"332 600 LINE",
"418 0 LINE",
"530 0 LINE",
"530 1600 LINE",
"490 1600 LINE",
"490 1032 LINE",
"490 40 LINE",
"454 40 LINE",
"302 1096 LINE",
"230 1600 LINE",
"120 1600 LINE",
"120 0 LINE"
);
}
);
width = 650;
},
{
anchors = (
{
name = bottom;
position = "{378, 0}";
},
{
name = top;
position = "{388, 1600}";
}
);
background = {
anchors = (
{
name = bottom;
position = "{378, 0}";
},
{
name = top;
position = "{388, 1600}";
}
);
paths = (
{
closed = 1;
nodes = (
"212 0 LINE",
"206 596 LINE",
"190 1504 LINE",
"236 1504 LINE",
"356 582 LINE",
"452 0 LINE",
"650 0 LINE",
"650 1600 LINE",
"546 1600 LINE",
"552 1054 LINE",
"570 96 LINE",
"526 96 LINE",
"386 1094 LINE",
"302 1600 LINE",
"110 1600 LINE",
"110 0 LINE"
);
}
);
};
layerId = "C9EB94EC-C68D-4931-B320-068DCAB9FADA";
paths = (
{
closed = 1;
nodes = (
"212 0 LINE",
"206 596 LINE",
"190 1504 LINE",
"236 1504 LINE",
"356 582 LINE",
"452 0 LINE",
"650 0 LINE",
"650 1600 LINE",
"546 1600 LINE",
"552 1054 LINE",
"570 96 LINE",
"526 96 LINE",
"386 1094 LINE",
"302 1600 LINE",
"110 1600 LINE",
"110 0 LINE"
);
}
);
width = 760;
},
{
anchors = (
{
name = bottom;
position = "{495, 0}";
},
{
name = top;
position = "{505, 1600}";
}
);
background = {
anchors = (
{
name = bottom;
position = "{495, 0}";
},
{
name = top;
position = "{505, 1600}";
}
);
paths = (
{
closed = 1;
nodes = (
"261 0 LINE",
"253 596 LINE",
"241 1478 LINE",
"327 1478 LINE",
"445 582 LINE",
"539 0 LINE",
"843 0 LINE",
"843 1600 LINE",
"707 1600 LINE",
"713 1054 LINE",
"727 124 LINE",
"643 124 LINE",
"505 1094 LINE",
"421 1600 LINE",
"125 1600 LINE",
"125 0 LINE"
);
}
);
};
layerId = "6F82CFD7-79D5-473B-9D61-BE5DF154BBF2";
paths = (
{
closed = 1;
nodes = (
"261 0 LINE",
"253 596 LINE",
"241 1478 LINE",
"327 1478 LINE",
"445 582 LINE",
"539 0 LINE",
"843 0 LINE",
"843 1600 LINE",
"707 1600 LINE",
"713 1054 LINE",
"727 124 LINE",
"643 124 LINE",
"505 1094 LINE",
"421 1600 LINE",
"125 1600 LINE",
"125 0 LINE"
);
}
);
width = 968;
}
);
leftKerningGroup = H;
leftMetricsKey = H;
rightKerningGroup = H;
rightMetricsKey = H;
unicode = 004E;
},
{
glyphname = Eng;
layers = (
{
background = {
components = (
{
name = N;
}
);
paths = (
{
closed = 1;
nodes = (
"702 -404 OFFCURVE",
"750 -328 OFFCURVE",
"750 -196 CURVE SMOOTH",
"750 46 LINE",
"674 46 LINE",
"674 -200 LINE SMOOTH",
"674 -292 OFFCURVE",
"646 -334 OFFCURVE",
"522 -334 CURVE SMOOTH",
"468 -334 OFFCURVE",
"428 -332 OFFCURVE",
"398 -328 CURVE",
"398 -392 LINE",
"434 -400 OFFCURVE",
"494 -404 OFFCURVE",
"526 -404 CURVE SMOOTH"
);
}
);
};
components = (
{
name = N;
}
);
layerId = "3B122060-26E0-4730-9241-82784E6CB359";
paths = (
{
closed = 1;
nodes = (
"702 -404 OFFCURVE",
"750 -328 OFFCURVE",
"750 -196 CURVE SMOOTH",
"750 46 LINE",
"674 46 LINE",
"674 -200 LINE SMOOTH",
"674 -292 OFFCURVE",
"646 -334 OFFCURVE",
"522 -334 CURVE SMOOTH",
"468 -334 OFFCURVE",
"428 -332 OFFCURVE",
"398 -328 CURVE",
"398 -392 LINE",
"434 -400 OFFCURVE",
"494 -404 OFFCURVE",
"526 -404 CURVE SMOOTH"
);
}
);
width = 890;
},
{
background = {
components = (
{
name = N;
}
);
paths = (
{
closed = 1;
nodes = (
"974 -422 OFFCURVE",
"1118 -320 OFFCURVE",
"1118 -66 CURVE SMOOTH",
"1118 184 LINE",
"856 184 LINE",
"856 -94 LINE SMOOTH",
"856 -166 OFFCURVE",
"774 -194 OFFCURVE",
"668 -194 CURVE SMOOTH",
"630 -194 OFFCURVE",
"558 -192 OFFCURVE",
"522 -190 CURVE",
"522 -408 LINE",
"570 -416 OFFCURVE",
"622 -422 OFFCURVE",
"668 -422 CURVE SMOOTH"
);
}
);
};
components = (
{
name = N;
}
);
layerId = "1DFA7D5B-2E97-4B89-827F-FB43F8066DC1";
paths = (
{
closed = 1;
nodes = (
"974 -422 OFFCURVE",
"1118 -320 OFFCURVE",
"1118 -66 CURVE SMOOTH",
"1118 184 LINE",
"856 184 LINE",
"856 -94 LINE SMOOTH",
"856 -166 OFFCURVE",
"774 -194 OFFCURVE",
"668 -194 CURVE SMOOTH",
"630 -194 OFFCURVE",
"558 -192 OFFCURVE",
"522 -190 CURVE",
"522 -408 LINE",
"570 -416 OFFCURVE",
"622 -422 OFFCURVE",
"668 -422 CURVE SMOOTH"
);
}
);
width = 1238;
},
{
background = {
components = (
{
name = N;
}
);
paths = (
{
closed = 1;
nodes = (
"488 -400 OFFCURVE",
"530 -348 OFFCURVE",
"530 -220 CURVE SMOOTH",
"530 22 LINE",
"490 22 LINE",
"490 -220 LINE SMOOTH",
"490 -330 OFFCURVE",
"460 -360 OFFCURVE",
"364 -360 CURVE SMOOTH",
"322 -360 OFFCURVE",
"290 -358 OFFCURVE",
"262 -352 CURVE",
"262 -390 LINE",
"288 -396 OFFCURVE",
"338 -400 OFFCURVE",
"368 -400 CURVE SMOOTH"
);
}
);
};
components = (
{
name = N;
}
);
layerId = "3D06B89B-468F-44E0-A3D7-A5BC6911123E";
paths = (
{
closed = 1;
nodes = (
"488 -400 OFFCURVE",
"530 -348 OFFCURVE",
"530 -220 CURVE SMOOTH",
"530 22 LINE",
"490 22 LINE",
"490 -220 LINE SMOOTH",
"490 -330 OFFCURVE",
"460 -360 OFFCURVE",
"364 -360 CURVE SMOOTH",
"322 -360 OFFCURVE",
"290 -358 OFFCURVE",
"262 -352 CURVE",
"262 -390 LINE",
"288 -396 OFFCURVE",
"338 -400 OFFCURVE",
"368 -400 CURVE SMOOTH"
);
}
);
width = 650;
},
{
components = (
{
name = N;
}
);
layerId = "5013C991-8699-46CB-BB1C-82E334DBD38B";
paths = (
{
closed = 1;
nodes = (
"862 -422 OFFCURVE",
"1006 -320 OFFCURVE",
"1006 -66 CURVE SMOOTH",
"1006 184 LINE",
"744 184 LINE",
"744 -94 LINE SMOOTH",
"744 -166 OFFCURVE",
"662 -194 OFFCURVE",
"556 -194 CURVE SMOOTH",
"518 -194 OFFCURVE",
"446 -192 OFFCURVE",
"410 -190 CURVE",
"410 -408 LINE",
"458 -416 OFFCURVE",
"510 -422 OFFCURVE",
"556 -422 CURVE SMOOTH"
);
}
);
width = 1086;
},
{
background = {
components = (
{
name = N;
}
);
paths = (
{
closed = 1;
nodes = (
"608 -400 OFFCURVE",
"650 -348 OFFCURVE",
"650 -220 CURVE SMOOTH",
"650 22 LINE",
"572 22 LINE",
"572 -220 LINE SMOOTH",
"572 -304 OFFCURVE",
"554 -326 OFFCURVE",
"484 -326 CURVE SMOOTH",
"442 -326 OFFCURVE",
"410 -324 OFFCURVE",
"382 -318 CURVE",
"382 -390 LINE",
"408 -396 OFFCURVE",
"458 -400 OFFCURVE",
"488 -400 CURVE SMOOTH"
);
}
);
};
components = (
{
name = N;
}
);
layerId = "C9EB94EC-C68D-4931-B320-068DCAB9FADA";
paths = (
{
closed = 1;
nodes = (
"608 -400 OFFCURVE",
"650 -348 OFFCURVE",
"650 -220 CURVE SMOOTH",
"650 22 LINE",
"572 22 LINE",
"572 -220 LINE SMOOTH",
"572 -304 OFFCURVE",
"554 -326 OFFCURVE",
"484 -326 CURVE SMOOTH",
"442 -326 OFFCURVE",
"410 -324 OFFCURVE",
"382 -318 CURVE",
"382 -390 LINE",
"408 -396 OFFCURVE",
"458 -400 OFFCURVE",
"488 -400 CURVE SMOOTH"
);
}
);
width = 760;
},
{
background = {
components = (
{
name = N;
}
);
paths = (
{
closed = 1;
nodes = (
"780 -404 OFFCURVE",
"828 -328 OFFCURVE",
"828 -196 CURVE SMOOTH",
"828 46 LINE",
"718 46 LINE",
"718 -200 LINE SMOOTH",
"718 -274 OFFCURVE",
"684 -304 OFFCURVE",
"600 -304 CURVE SMOOTH",
"546 -304 OFFCURVE",
"506 -302 OFFCURVE",
"476 -298 CURVE",
"476 -392 LINE",
"512 -400 OFFCURVE",
"572 -404 OFFCURVE",
"604 -404 CURVE SMOOTH"
);
}
);
};
components = (
{
name = N;
}
);
layerId = "6F82CFD7-79D5-473B-9D61-BE5DF154BBF2";
paths = (
{
closed = 1;
nodes = (
"780 -404 OFFCURVE",
"828 -328 OFFCURVE",
"828 -196 CURVE SMOOTH",
"828 46 LINE",
"718 46 LINE",
"718 -200 LINE SMOOTH",
"718 -274 OFFCURVE",
"684 -304 OFFCURVE",
"600 -304 CURVE SMOOTH",
"546 -304 OFFCURVE",
"506 -302 OFFCURVE",
"476 -298 CURVE",
"476 -392 LINE",
"512 -400 OFFCURVE",
"572 -404 OFFCURVE",
"604 -404 CURVE SMOOTH"
);
}
);
width = 968;
}
);
leftKerningGroup = H;
leftMetricsKey = N;
rightKerningGroup = H;
rightMetricsKey = N;
unicode = 014A;
},
{
glyphname = O;
layers = (
{
anchors = (
{
name = bottom;
position = "{350, 0}";
},
{
name = center;
position = "{350, 800}";
},
{
name = ogonek;
position = "{476, 32}";
},
{
name = top;
position = "{350, 1600}";
},
{
name = topleft;
position = "{132, 1600}";
},
{
name = topright;
position = "{620, 1600}";
}
);
background = {
anchors = (
{
name = bottom;
position = "{350, 0}";
},
{
name = center;
position = "{350, 800}";
},
{
name = ogonek;
position = "{476, 32}";
},
{
name = top;
position = "{350, 1600}";
},
{
name = topleft;
position = "{132, 1600}";
},
{
name = topright;
position = "{620, 1600}";
}
);
paths = (
{
closed = 1;
nodes = (
"516 -10 OFFCURVE",
"584 52 OFFCURVE",
"586 210 CURVE SMOOTH",
"592 670 OFFCURVE",
"592 948 OFFCURVE",
"586 1388 CURVE SMOOTH",
"584 1546 OFFCURVE",
"516 1610 OFFCURVE",
"350 1610 CURVE SMOOTH",
"184 1610 OFFCURVE",
"116 1546 OFFCURVE",
"114 1388 CURVE SMOOTH",
"108 948 OFFCURVE",
"108 670 OFFCURVE",
"114 210 CURVE SMOOTH",
"116 52 OFFCURVE",
"184 -10 OFFCURVE",
"350 -10 CURVE SMOOTH"
);
},
{
closed = 1;
nodes = (
"230 66 OFFCURVE",
"196 96 OFFCURVE",
"194 210 CURVE SMOOTH",
"186 702 OFFCURVE",
"186 922 OFFCURVE",
"194 1388 CURVE SMOOTH",
"196 1502 OFFCURVE",
"230 1534 OFFCURVE",
"350 1534 CURVE SMOOTH",
"470 1534 OFFCURVE",
"504 1502 OFFCURVE",
"506 1388 CURVE SMOOTH",
"514 908 OFFCURVE",
"514 688 OFFCURVE",
"506 210 CURVE SMOOTH",
"504 96 OFFCURVE",
"470 66 OFFCURVE",
"350 66 CURVE SMOOTH"
);
}
);
};
layerId = "3B122060-26E0-4730-9241-82784E6CB359";
paths = (
{
closed = 1;
nodes = (
"516 -10 OFFCURVE",
"584 52 OFFCURVE",
"586 210 CURVE SMOOTH",
"592 670 OFFCURVE",
"592 948 OFFCURVE",
"586 1388 CURVE SMOOTH",
"584 1546 OFFCURVE",
"516 1610 OFFCURVE",
"350 1610 CURVE SMOOTH",
"184 1610 OFFCURVE",
"116 1546 OFFCURVE",
"114 1388 CURVE SMOOTH",
"108 948 OFFCURVE",
"108 670 OFFCURVE",
"114 210 CURVE SMOOTH",
"116 52 OFFCURVE",
"184 -10 OFFCURVE",
"350 -10 CURVE SMOOTH"
);
},
{
closed = 1;
nodes = (
"230 66 OFFCURVE",
"196 96 OFFCURVE",
"194 210 CURVE SMOOTH",
"186 702 OFFCURVE",
"186 922 OFFCURVE",
"194 1388 CURVE SMOOTH",
"196 1502 OFFCURVE",
"230 1534 OFFCURVE",
"350 1534 CURVE SMOOTH",
"470 1534 OFFCURVE",
"504 1502 OFFCURVE",
"506 1388 CURVE SMOOTH",
"514 908 OFFCURVE",
"514 688 OFFCURVE",
"506 210 CURVE SMOOTH",
"504 96 OFFCURVE",
"470 66 OFFCURVE",
"350 66 CURVE SMOOTH"
);
}
);
width = 700;
},
{
anchors = (
{
name = bottom;
position = "{528, 0}";
},
{
name = center;
position = "{528, 800}";
},
{
name = ogonek;
position = "{724, 40}";
},
{
name = top;
position = "{528, 1600}";
},
{
name = topleft;
position = "{60, 1600}";
},
{
name = topright;
position = "{994, 1600}";
}
);
background = {
anchors = (
{
name = bottom;
position = "{528, 0}";
},
{
name = center;
position = "{528, 800}";
},
{
name = ogonek;
position = "{724, 40}";
},
{
name = top;
position = "{528, 1600}";
},
{
name = topleft;
position = "{60, 1600}";
},
{
name = topright;
position = "{994, 1600}";
}
);
paths = (
{
closed = 1;
nodes = (
"830 -20 OFFCURVE",
"956 94 OFFCURVE",
"966 382 CURVE SMOOTH",
"978 680 OFFCURVE",
"978 918 OFFCURVE",
"966 1220 CURVE SMOOTH",
"956 1506 OFFCURVE",
"830 1620 OFFCURVE",
"526 1620 CURVE SMOOTH",
"216 1620 OFFCURVE",
"90 1506 OFFCURVE",
"84 1220 CURVE SMOOTH",
"78 920 OFFCURVE",
"78 682 OFFCURVE",
"84 382 CURVE SMOOTH",
"90 94 OFFCURVE",
"216 -20 OFFCURVE",
"526 -20 CURVE SMOOTH"
);
},
{
closed = 1;
nodes = (
"428 224 OFFCURVE",
"386 264 OFFCURVE",
"384 366 CURVE SMOOTH",
"370 658 OFFCURVE",
"370 944 OFFCURVE",
"384 1236 CURVE SMOOTH",
"386 1336 OFFCURVE",
"428 1376 OFFCURVE",
"526 1376 CURVE SMOOTH",
"624 1376 OFFCURVE",
"664 1336 OFFCURVE",
"666 1236 CURVE SMOOTH",
"680 944 OFFCURVE",
"680 658 OFFCURVE",
"666 366 CURVE SMOOTH",
"664 264 OFFCURVE",
"624 224 OFFCURVE",
"526 224 CURVE SMOOTH"
);
}
);
};
layerId = "1DFA7D5B-2E97-4B89-827F-FB43F8066DC1";
paths = (
{
closed = 1;
nodes = (
"830 -20 OFFCURVE",
"956 94 OFFCURVE",
"966 382 CURVE SMOOTH",
"978 680 OFFCURVE",
"978 918 OFFCURVE",
"966 1220 CURVE SMOOTH",
"956 1506 OFFCURVE",
"830 1620 OFFCURVE",
"526 1620 CURVE SMOOTH",
"216 1620 OFFCURVE",
"90 1506 OFFCURVE",
"84 1220 CURVE SMOOTH",
"78 920 OFFCURVE",
"78 682 OFFCURVE",
"84 382 CURVE SMOOTH",
"90 94 OFFCURVE",
"216 -20 OFFCURVE",
"526 -20 CURVE SMOOTH"
);
},
{
closed = 1;
nodes = (
"428 224 OFFCURVE",
"386 264 OFFCURVE",
"384 366 CURVE SMOOTH",
"370 658 OFFCURVE",
"370 944 OFFCURVE",
"384 1236 CURVE SMOOTH",
"386 1336 OFFCURVE",
"428 1376 OFFCURVE",
"526 1376 CURVE SMOOTH",
"624 1376 OFFCURVE",
"664 1336 OFFCURVE",
"666 1236 CURVE SMOOTH",
"680 944 OFFCURVE",
"680 658 OFFCURVE",
"666 366 CURVE SMOOTH",
"664 264 OFFCURVE",
"624 224 OFFCURVE",
"526 224 CURVE SMOOTH"
);
}
);
width = 1055;
},
{
anchors = (
{
name = bottom;
position = "{498, 0}";
},
{
name = center;
position = "{498, 800}";
},
{
name = ogonek;
position = "{612, 6}";
},
{
name = top;
position = "{498, 1600}";
},
{
name = topleft;
position = "{30, 1600}";
},
{
name = topright;
position = "{964, 1600}";
}
);
background = {
paths = (
{
closed = 1;
nodes = (
"490 -10 OFFCURVE",
"624 108 OFFCURVE",
"624 254 CURVE SMOOTH",
"624 1350 LINE SMOOTH",
"624 1492 OFFCURVE",
"490 1610 OFFCURVE",
"310 1610 CURVE SMOOTH",
"132 1610 OFFCURVE",
"-2 1492 OFFCURVE",
"-2 1350 CURVE SMOOTH",
"-2 254 LINE SMOOTH",
"-2 108 OFFCURVE",
"132 -10 OFFCURVE",
"310 -10 CURVE SMOOTH"
);
},
{
closed = 1;
nodes = (
"258 204 OFFCURVE",
"218 236 OFFCURVE",
"218 280 CURVE SMOOTH",
"218 1322 LINE SMOOTH",
"218 1364 OFFCURVE",
"258 1396 OFFCURVE",
"310 1396 CURVE SMOOTH",
"364 1396 OFFCURVE",
"404 1364 OFFCURVE",
"404 1322 CURVE SMOOTH",
"404 280 LINE SMOOTH",
"404 236 OFFCURVE",
"364 204 OFFCURVE",
"310 204 CURVE SMOOTH"
);
}
);
};
layerId = "5013C991-8699-46CB-BB1C-82E334DBD38B";
paths = (
{
closed = 1;
nodes = (
"790 -20 OFFCURVE",
"906 94 OFFCURVE",
"916 382 CURVE SMOOTH",
"926 644 OFFCURVE",
"926 954 OFFCURVE",
"916 1220 CURVE SMOOTH",
"906 1506 OFFCURVE",
"790 1620 OFFCURVE",
"496 1620 CURVE SMOOTH",
"202 1620 OFFCURVE",
"80 1506 OFFCURVE",
"74 1220 CURVE SMOOTH",
"68 958 OFFCURVE",
"68 644 OFFCURVE",
"74 382 CURVE SMOOTH",
"80 94 OFFCURVE",
"202 -20 OFFCURVE",
"496 -20 CURVE SMOOTH"
);
},
{
closed = 1;
nodes = (
"420 224 OFFCURVE",
"376 260 OFFCURVE",
"374 326 CURVE SMOOTH",
"362 598 OFFCURVE",
"362 1004 OFFCURVE",
"374 1276 CURVE SMOOTH",
"376 1340 OFFCURVE",
"420 1376 OFFCURVE",
"496 1376 CURVE SMOOTH",
"572 1376 OFFCURVE",
"614 1340 OFFCURVE",
"616 1276 CURVE SMOOTH",
"628 1004 OFFCURVE",
"628 598 OFFCURVE",
"616 326 CURVE SMOOTH",
"614 260 OFFCURVE",
"574 224 OFFCURVE",
"496 224 CURVE SMOOTH"
);
}
);
width = 993;
},
{
anchors = (
{
name = bottom;
position = "{286, 0}";
},
{
name = center;
position = "{286, 800}";
},
{
name = ogonek;
position = "{384, 20}";
},
{
name = top;
position = "{286, 1600}";
},
{
name = topleft;
position = "{68, 1600}";
},
{
name = topright;
position = "{504, 1600}";
}
);
background = {
anchors = (
{
name = bottom;
position = "{286, 0}";
},
{
name = center;
position = "{286, 800}";
},
{
name = ogonek;
position = "{384, 20}";
},
{
name = top;
position = "{286, 1600}";
},
{
name = topleft;
position = "{68, 1600}";
},
{
name = topright;
position = "{504, 1600}";
}
);
paths = (
{
closed = 1;
nodes = (
"412 -10 OFFCURVE",
"462 42 OFFCURVE",
"462 170 CURVE SMOOTH",
"466 620 OFFCURVE",
"466 978 OFFCURVE",
"462 1428 CURVE SMOOTH",
"462 1558 OFFCURVE",
"412 1610 OFFCURVE",
"286 1610 CURVE SMOOTH",
"160 1610 OFFCURVE",
"112 1558 OFFCURVE",
"110 1428 CURVE SMOOTH",
"102 978 OFFCURVE",
"102 620 OFFCURVE",
"110 170 CURVE SMOOTH",
"112 42 OFFCURVE",
"160 -10 OFFCURVE",
"286 -10 CURVE SMOOTH"
);
},
{
closed = 1;
nodes = (
"186 30 OFFCURVE",
"152 64 OFFCURVE",
"150 170 CURVE SMOOTH",
"142 628 OFFCURVE",
"140 988 OFFCURVE",
"150 1428 CURVE SMOOTH",
"152 1536 OFFCURVE",
"186 1570 OFFCURVE",
"286 1570 CURVE SMOOTH",
"386 1570 OFFCURVE",
"420 1536 OFFCURVE",
"422 1428 CURVE SMOOTH",
"428 988 OFFCURVE",
"432 628 OFFCURVE",
"422 170 CURVE SMOOTH",
"420 64 OFFCURVE",
"386 30 OFFCURVE",
"286 30 CURVE SMOOTH"
);
}
);
};
layerId = "3D06B89B-468F-44E0-A3D7-A5BC6911123E";
paths = (
{
closed = 1;
nodes = (
"412 -10 OFFCURVE",
"462 42 OFFCURVE",
"462 170 CURVE SMOOTH",
"466 620 OFFCURVE",
"466 978 OFFCURVE",
"462 1428 CURVE SMOOTH",
"462 1558 OFFCURVE",
"412 1610 OFFCURVE",
"286 1610 CURVE SMOOTH",
"160 1610 OFFCURVE",
"112 1558 OFFCURVE",
"110 1428 CURVE SMOOTH",
"102 978 OFFCURVE",
"102 620 OFFCURVE",
"110 170 CURVE SMOOTH",
"112 42 OFFCURVE",
"160 -10 OFFCURVE",
"286 -10 CURVE SMOOTH"
);
},
{
closed = 1;
nodes = (
"186 30 OFFCURVE",
"152 64 OFFCURVE",
"150 170 CURVE SMOOTH",
"142 628 OFFCURVE",
"140 988 OFFCURVE",
"150 1428 CURVE SMOOTH",
"152 1536 OFFCURVE",
"186 1570 OFFCURVE",
"286 1570 CURVE SMOOTH",
"386 1570 OFFCURVE",
"420 1536 OFFCURVE",
"422 1428 CURVE SMOOTH",
"428 988 OFFCURVE",
"432 628 OFFCURVE",
"422 170 CURVE SMOOTH",
"420 64 OFFCURVE",
"386 30 OFFCURVE",
"286 30 CURVE SMOOTH"
);
}
);
width = 569;
},
{
anchors = (
{
name = bottom;
position = "{339, 0}";
},
{
name = center;
position = "{339, 800}";
},
{
name = ogonek;
position = "{441, 17}";
},
{
name = top;
position = "{339, 1600}";
},
{
name = topleft;
position = "{58, 1600}";
},
{
name = topright;
position = "{619, 1600}";
}
);
background = {
anchors = (
{
name = bottom;
position = "{339, 0}";
},
{
name = center;
position = "{339, 800}";
},
{
name = ogonek;
position = "{441, 17}";
},
{
name = top;
position = "{339, 1600}";
},
{
name = topleft;
position = "{58, 1600}";
},
{
name = topright;
position = "{619, 1600}";
}
);
paths = (
{
closed = 1;
nodes = (
"506 -13 OFFCURVE",
"573 55 OFFCURVE",
"575 223 CURVE SMOOTH",
"581 626 OFFCURVE",
"581 972 OFFCURVE",
"575 1376 CURVE SMOOTH",
"573 1545 OFFCURVE",
"506 1613 OFFCURVE",
"338 1613 CURVE SMOOTH",
"170 1613 OFFCURVE",
"104 1545 OFFCURVE",
"101 1376 CURVE SMOOTH",
"93 973 OFFCURVE",
"93 626 OFFCURVE",
"101 223 CURVE SMOOTH",
"104 55 OFFCURVE",
"170 -13 OFFCURVE",
"338 -13 CURVE SMOOTH"
);
},
{
closed = 1;
nodes = (
"244 79 OFFCURVE",
"208 113 OFFCURVE",
"206 209 CURVE SMOOTH",
"197 621 OFFCURVE",
"195 992 OFFCURVE",
"206 1390 CURVE SMOOTH",
"208 1487 OFFCURVE",
"244 1522 OFFCURVE",
"338 1522 CURVE SMOOTH",
"432 1522 OFFCURVE",
"468 1487 OFFCURVE",
"470 1390 CURVE SMOOTH",
"478 992 OFFCURVE",
"481 621 OFFCURVE",
"470 209 CURVE SMOOTH",
"468 113 OFFCURVE",
"433 79 OFFCURVE",
"338 79 CURVE SMOOTH"
);
}
);
};
layerId = "C9EB94EC-C68D-4931-B320-068DCAB9FADA";
paths = (
{
closed = 1;
nodes = (
"506 -13 OFFCURVE",
"573 55 OFFCURVE",
"575 223 CURVE SMOOTH",
"581 626 OFFCURVE",
"581 972 OFFCURVE",
"575 1376 CURVE SMOOTH",
"573 1545 OFFCURVE",
"506 1613 OFFCURVE",
"338 1613 CURVE SMOOTH",
"170 1613 OFFCURVE",
"104 1545 OFFCURVE",
"101 1376 CURVE SMOOTH",
"93 973 OFFCURVE",
"93 626 OFFCURVE",
"101 223 CURVE SMOOTH",
"104 55 OFFCURVE",
"170 -13 OFFCURVE",
"338 -13 CURVE SMOOTH"
);
},
{
closed = 1;
nodes = (
"244 79 OFFCURVE",
"208 113 OFFCURVE",
"206 209 CURVE SMOOTH",
"197 621 OFFCURVE",
"195 992 OFFCURVE",
"206 1390 CURVE SMOOTH",
"208 1487 OFFCURVE",
"244 1522 OFFCURVE",
"338 1522 CURVE SMOOTH",
"432 1522 OFFCURVE",
"468 1487 OFFCURVE",
"470 1390 CURVE SMOOTH",
"478 992 OFFCURVE",
"481 621 OFFCURVE",
"470 209 CURVE SMOOTH",
"468 113 OFFCURVE",
"433 79 OFFCURVE",
"338 79 CURVE SMOOTH"
);
}
);
width = 674;
},
{
anchors = (
{
name = bottom;
position = "{402, 0}";
},
{
name = center;
position = "{402, 800}";
},
{
name = ogonek;
position = "{545, 34}";
},
{
name = top;
position = "{402, 1600}";
},
{
name = topleft;
position = "{121, 1600}";
},
{
name = topright;
position = "{721, 1600}";
}
);
background = {
anchors = (
{
name = bottom;
position = "{402, 0}";
},
{
name = center;
position = "{402, 800}";
},
{
name = ogonek;
position = "{545, 34}";
},
{
name = top;
position = "{402, 1600}";
},
{
name = topleft;
position = "{121, 1600}";
},
{
name = topright;
position = "{721, 1600}";
}
);
paths = (
{
closed = 1;
nodes = (
"602 -13 OFFCURVE",
"684 63 OFFCURVE",
"688 253 CURVE SMOOTH",
"696 673 OFFCURVE",
"696 941 OFFCURVE",
"688 1346 CURVE SMOOTH",
"684 1536 OFFCURVE",
"602 1613 OFFCURVE",
"401 1613 CURVE SMOOTH",
"199 1613 OFFCURVE",
"117 1536 OFFCURVE",
"114 1346 CURVE SMOOTH",
"108 941 OFFCURVE",
"108 673 OFFCURVE",
"114 253 CURVE SMOOTH",
"117 63 OFFCURVE",
"199 -13 OFFCURVE",
"401 -13 CURVE SMOOTH"
);
},
{
closed = 1;
nodes = (
"287 106 OFFCURVE",
"251 138 OFFCURVE",
"249 249 CURVE SMOOTH",
"239 691 OFFCURVE",
"239 928 OFFCURVE",
"249 1350 CURVE SMOOTH",
"251 1461 OFFCURVE",
"287 1495 OFFCURVE",
"401 1495 CURVE SMOOTH",
"516 1495 OFFCURVE",
"551 1461 OFFCURVE",
"553 1350 CURVE SMOOTH",
"563 917 OFFCURVE",
"563 681 OFFCURVE",
"553 249 CURVE SMOOTH",
"551 138 OFFCURVE",
"516 106 OFFCURVE",
"401 106 CURVE SMOOTH"
);
}
);
};
layerId = "6F82CFD7-79D5-473B-9D61-BE5DF154BBF2";
paths = (
{
closed = 1;
nodes = (
"602 -13 OFFCURVE",
"684 63 OFFCURVE",
"688 253 CURVE SMOOTH",
"696 673 OFFCURVE",
"696 941 OFFCURVE",
"688 1346 CURVE SMOOTH",
"684 1536 OFFCURVE",
"602 1613 OFFCURVE",
"401 1613 CURVE SMOOTH",
"199 1613 OFFCURVE",
"117 1536 OFFCURVE",
"114 1346 CURVE SMOOTH",
"108 941 OFFCURVE",
"108 673 OFFCURVE",
"114 253 CURVE SMOOTH",
"117 63 OFFCURVE",
"199 -13 OFFCURVE",
"401 -13 CURVE SMOOTH"
);
},
{
closed = 1;
nodes = (
"287 106 OFFCURVE",
"251 138 OFFCURVE",
"249 249 CURVE SMOOTH",
"239 691 OFFCURVE",
"239 928 OFFCURVE",
"249 1350 CURVE SMOOTH",
"251 1461 OFFCURVE",
"287 1495 OFFCURVE",
"401 1495 CURVE SMOOTH",
"516 1495 OFFCURVE",
"551 1461 OFFCURVE",
"553 1350 CURVE SMOOTH",
"563 917 OFFCURVE",
"563 681 OFFCURVE",
"553 249 CURVE SMOOTH",
"551 138 OFFCURVE",
"516 106 OFFCURVE",
"401 106 CURVE SMOOTH"
);
}
);
width = 804;
}
);
leftKerningGroup = O;
rightKerningGroup = O;
unicode = 004F;
},
{
glyphname = Oslash;
layers = (
{
anchors = (
{
name = bottom;
position = "{350, 0}";
},
{
name = center;
position = "{350, 800}";
},
{
name = ogonek;
position = "{476, 32}";
},
{
name = top;
position = "{350, 1600}";
},
{
name = topleft;
position = "{132, 1600}";
},
{
name = topright;
position = "{620, 1600}";
}
);
background = {
anchors = (
{
name = bottom;
position = "{350, 0}";
},
{
name = center;
position = "{350, 800}";
},
{
name = ogonek;
position = "{476, 32}";
},
{
name = top;
position = "{350, 1600}";
},
{
name = topleft;
position = "{132, 1600}";
},
{
name = topright;
position = "{620, 1600}";
}
);
paths = (
{
closed = 1;
nodes = (
"516 -10 OFFCURVE",
"584 52 OFFCURVE",
"586 210 CURVE SMOOTH",
"592 670 OFFCURVE",
"592 948 OFFCURVE",
"586 1388 CURVE SMOOTH",
"584 1546 OFFCURVE",
"516 1610 OFFCURVE",
"350 1610 CURVE SMOOTH",
"184 1610 OFFCURVE",
"116 1546 OFFCURVE",
"114 1388 CURVE SMOOTH",
"108 948 OFFCURVE",
"108 670 OFFCURVE",
"114 210 CURVE SMOOTH",
"116 52 OFFCURVE",
"184 -10 OFFCURVE",
"350 -10 CURVE SMOOTH"
);
},
{
closed = 1;
nodes = (
"230 66 OFFCURVE",
"196 96 OFFCURVE",
"194 210 CURVE SMOOTH",
"194 260 OFFCURVE",
"192 308 OFFCURVE",
"192 354 CURVE",
"510 1078 LINE",
"514 786 OFFCURVE",
"512 572 OFFCURVE",
"506 210 CURVE SMOOTH",
"504 96 OFFCURVE",
"470 66 OFFCURVE",
"350 66 CURVE SMOOTH"
);
},
{
closed = 1;
nodes = (
"186 824 OFFCURVE",
"188 1036 OFFCURVE",
"194 1388 CURVE SMOOTH",
"196 1502 OFFCURVE",
"230 1534 OFFCURVE",
"350 1534 CURVE SMOOTH",
"470 1534 OFFCURVE",
"504 1502 OFFCURVE",
"506 1388 CURVE SMOOTH",
"506 1338 OFFCURVE",
"508 1292 OFFCURVE",
"508 1248 CURVE",
"190 530 LINE"
);
}
);
};
layerId = "3B122060-26E0-4730-9241-82784E6CB359";
paths = (
{
closed = 1;
nodes = (
"516 -10 OFFCURVE",
"584 52 OFFCURVE",
"586 210 CURVE SMOOTH",
"592 670 OFFCURVE",
"592 948 OFFCURVE",
"586 1388 CURVE SMOOTH",
"584 1546 OFFCURVE",
"516 1610 OFFCURVE",
"350 1610 CURVE SMOOTH",
"184 1610 OFFCURVE",
"116 1546 OFFCURVE",
"114 1388 CURVE SMOOTH",
"108 948 OFFCURVE",
"108 670 OFFCURVE",
"114 210 CURVE SMOOTH",
"116 52 OFFCURVE",
"184 -10 OFFCURVE",
"350 -10 CURVE SMOOTH"
);
},
{
closed = 1;
nodes = (
"230 66 OFFCURVE",
"196 96 OFFCURVE",
"194 210 CURVE SMOOTH",
"194 260 OFFCURVE",
"192 308 OFFCURVE",
"192 354 CURVE",
"510 1078 LINE",
"514 786 OFFCURVE",
"512 572 OFFCURVE",
"506 210 CURVE SMOOTH",
"504 96 OFFCURVE",
"470 66 OFFCURVE",
"350 66 CURVE SMOOTH"
);
},
{
closed = 1;
nodes = (
"186 824 OFFCURVE",
"188 1036 OFFCURVE",
"194 1388 CURVE SMOOTH",
"196 1502 OFFCURVE",
"230 1534 OFFCURVE",
"350 1534 CURVE SMOOTH",
"470 1534 OFFCURVE",
"504 1502 OFFCURVE",
"506 1388 CURVE SMOOTH",
"506 1338 OFFCURVE",
"508 1292 OFFCURVE",
"508 1248 CURVE",
"190 530 LINE"
);
}
);
width = 700;
},
{
anchors = (
{
name = bottom;
position = "{530, 0}";
},
{
name = center;
position = "{530, 800}";
},
{
name = ogonek;
position = "{726, 40}";
},
{
name = top;
position = "{530, 1600}";
},
{
name = topleft;
position = "{62, 1600}";
},
{
name = topright;
position = "{996, 1600}";
}
);
background = {
anchors = (
{
name = bottom;
position = "{530, 0}";
},
{
name = center;
position = "{530, 800}";
},
{
name = ogonek;
position = "{726, 40}";
},
{
name = top;
position = "{530, 1600}";
},
{
name = topleft;
position = "{62, 1600}";
},
{
name = topright;
position = "{996, 1600}";
}
);
paths = (
{
closed = 1;
nodes = (
"832 -20 OFFCURVE",
"958 94 OFFCURVE",
"968 382 CURVE SMOOTH",
"980 680 OFFCURVE",
"980 918 OFFCURVE",
"968 1220 CURVE SMOOTH",
"958 1506 OFFCURVE",
"832 1620 OFFCURVE",
"528 1620 CURVE SMOOTH",
"218 1620 OFFCURVE",
"92 1506 OFFCURVE",
"86 1220 CURVE SMOOTH",
"80 920 OFFCURVE",
"80 682 OFFCURVE",
"86 382 CURVE SMOOTH",
"92 94 OFFCURVE",
"218 -20 OFFCURVE",
"528 -20 CURVE SMOOTH"
);
},
{
closed = 1;
nodes = (
"430 224 OFFCURVE",
"388 264 OFFCURVE",
"386 366 CURVE SMOOTH",
"384 390 OFFCURVE",
"384 412 OFFCURVE",
"382 436 CURVE",
"678 792 LINE",
"678 650 OFFCURVE",
"674 510 OFFCURVE",
"668 366 CURVE SMOOTH",
"666 264 OFFCURVE",
"626 224 OFFCURVE",
"528 224 CURVE SMOOTH"
);
},
{
closed = 1;
nodes = (
"374 924 OFFCURVE",
"378 1080 OFFCURVE",
"386 1236 CURVE SMOOTH",
"388 1336 OFFCURVE",
"430 1376 OFFCURVE",
"528 1376 CURVE SMOOTH",
"626 1376 OFFCURVE",
"666 1336 OFFCURVE",
"668 1236 CURVE SMOOTH",
"670 1200 OFFCURVE",
"672 1164 OFFCURVE",
"672 1128 CURVE",
"376 768 LINE"
);
}
);
};
layerId = "1DFA7D5B-2E97-4B89-827F-FB43F8066DC1";
paths = (
{
closed = 1;
nodes = (
"832 -20 OFFCURVE",
"958 94 OFFCURVE",
"968 382 CURVE SMOOTH",
"980 680 OFFCURVE",
"980 918 OFFCURVE",
"968 1220 CURVE SMOOTH",
"958 1506 OFFCURVE",
"832 1620 OFFCURVE",
"528 1620 CURVE SMOOTH",
"218 1620 OFFCURVE",
"92 1506 OFFCURVE",
"86 1220 CURVE SMOOTH",
"80 920 OFFCURVE",
"80 682 OFFCURVE",
"86 382 CURVE SMOOTH",
"92 94 OFFCURVE",
"218 -20 OFFCURVE",
"528 -20 CURVE SMOOTH"
);
},
{
closed = 1;
nodes = (
"430 224 OFFCURVE",
"388 264 OFFCURVE",
"386 366 CURVE SMOOTH",
"384 390 OFFCURVE",
"384 412 OFFCURVE",
"382 436 CURVE",
"678 792 LINE",
"678 650 OFFCURVE",
"674 510 OFFCURVE",
"668 366 CURVE SMOOTH",
"666 264 OFFCURVE",
"626 224 OFFCURVE",
"528 224 CURVE SMOOTH"
);
},
{
closed = 1;
nodes = (
"374 924 OFFCURVE",
"378 1080 OFFCURVE",
"386 1236 CURVE SMOOTH",
"388 1336 OFFCURVE",
"430 1376 OFFCURVE",
"528 1376 CURVE SMOOTH",
"626 1376 OFFCURVE",
"666 1336 OFFCURVE",
"668 1236 CURVE SMOOTH",
"670 1200 OFFCURVE",
"672 1164 OFFCURVE",
"672 1128 CURVE",
"376 768 LINE"
);
}
);
width = 1059;
},
{
anchors = (
{
name = bottom;
position = "{498, 0}";
},
{
name = center;
position = "{498, 800}";
},
{
name = ogonek;
position = "{612, 6}";
},
{
name = top;
position = "{498, 1600}";
},
{
name = topleft;
position = "{30, 1600}";
},
{
name = topright;
position = "{964, 1600}";
}
);
layerId = "5013C991-8699-46CB-BB1C-82E334DBD38B";
paths = (
{
closed = 1;
nodes = (
"790 -20 OFFCURVE",
"906 94 OFFCURVE",
"916 382 CURVE SMOOTH",
"926 644 OFFCURVE",
"926 954 OFFCURVE",
"916 1220 CURVE SMOOTH",
"906 1506 OFFCURVE",
"790 1620 OFFCURVE",
"496 1620 CURVE SMOOTH",
"202 1620 OFFCURVE",
"80 1506 OFFCURVE",
"74 1220 CURVE SMOOTH",
"68 958 OFFCURVE",
"68 644 OFFCURVE",
"74 382 CURVE SMOOTH",
"80 94 OFFCURVE",
"202 -20 OFFCURVE",
"496 -20 CURVE SMOOTH"
);
},
{
closed = 1;
nodes = (
"420 224 OFFCURVE",
"376 260 OFFCURVE",
"374 326 CURVE SMOOTH",
"372 366 OFFCURVE",
"370 408 OFFCURVE",
"370 452 CURVE",
"624 764 LINE",
"624 606 OFFCURVE",
"622 452 OFFCURVE",
"616 326 CURVE SMOOTH",
"614 260 OFFCURVE",
"574 224 OFFCURVE",
"496 224 CURVE SMOOTH"
);
},
{
closed = 1;
nodes = (
"364 948 OFFCURVE",
"368 1130 OFFCURVE",
"374 1276 CURVE SMOOTH",
"376 1340 OFFCURVE",
"420 1376 OFFCURVE",
"496 1376 CURVE SMOOTH",
"572 1376 OFFCURVE",
"614 1340 OFFCURVE",
"616 1276 CURVE SMOOTH",
"618 1212 OFFCURVE",
"620 1148 OFFCURVE",
"622 1084 CURVE",
"366 768 LINE"
);
}
);
width = 993;
},
{
anchors = (
{
name = bottom;
position = "{286, 0}";
},
{
name = center;
position = "{286, 800}";
},
{
name = ogonek;
position = "{384, 20}";
},
{
name = top;
position = "{286, 1600}";
},
{
name = topleft;
position = "{68, 1600}";
},
{
name = topright;
position = "{504, 1600}";
}
);
background = {
anchors = (
{
name = bottom;
position = "{286, 0}";
},
{
name = center;
position = "{286, 800}";
},
{
name = ogonek;
position = "{384, 20}";
},
{
name = top;
position = "{286, 1600}";
},
{
name = topleft;
position = "{68, 1600}";
},
{
name = topright;
position = "{504, 1600}";
}
);
paths = (
{
closed = 1;
nodes = (
"412 -10 OFFCURVE",
"462 42 OFFCURVE",
"462 170 CURVE SMOOTH",
"466 620 OFFCURVE",
"466 978 OFFCURVE",
"462 1428 CURVE SMOOTH",
"462 1558 OFFCURVE",
"412 1610 OFFCURVE",
"286 1610 CURVE SMOOTH",
"160 1610 OFFCURVE",
"112 1558 OFFCURVE",
"110 1428 CURVE SMOOTH",
"102 978 OFFCURVE",
"102 620 OFFCURVE",
"110 170 CURVE SMOOTH",
"112 42 OFFCURVE",
"160 -10 OFFCURVE",
"286 -10 CURVE SMOOTH"
);
},
{
closed = 1;
nodes = (
"186 30 OFFCURVE",
"152 64 OFFCURVE",
"150 170 CURVE SMOOTH",
"148 280 OFFCURVE",
"146 386 OFFCURVE",
"146 486 CURVE",
"426 1054 LINE",
"430 766 OFFCURVE",
"430 492 OFFCURVE",
"422 170 CURVE SMOOTH",
"420 64 OFFCURVE",
"386 30 OFFCURVE",
"286 30 CURVE SMOOTH"
);
},
{
closed = 1;
nodes = (
"142 858 OFFCURVE",
"144 1124 OFFCURVE",
"150 1428 CURVE SMOOTH",
"152 1536 OFFCURVE",
"186 1570 OFFCURVE",
"286 1570 CURVE SMOOTH",
"386 1570 OFFCURVE",
"420 1536 OFFCURVE",
"422 1428 CURVE SMOOTH",
"424 1322 OFFCURVE",
"424 1222 OFFCURVE",
"426 1122 CURVE",
"144 572 LINE"
);
}
);
};
layerId = "3D06B89B-468F-44E0-A3D7-A5BC6911123E";
paths = (
{
closed = 1;
nodes = (
"412 -10 OFFCURVE",
"462 42 OFFCURVE",
"462 170 CURVE SMOOTH",
"466 620 OFFCURVE",
"466 978 OFFCURVE",
"462 1428 CURVE SMOOTH",
"462 1558 OFFCURVE",
"412 1610 OFFCURVE",
"286 1610 CURVE SMOOTH",
"160 1610 OFFCURVE",
"112 1558 OFFCURVE",
"110 1428 CURVE SMOOTH",
"102 978 OFFCURVE",
"102 620 OFFCURVE",
"110 170 CURVE SMOOTH",
"112 42 OFFCURVE",
"160 -10 OFFCURVE",
"286 -10 CURVE SMOOTH"
);
},
{
closed = 1;
nodes = (
"186 30 OFFCURVE",
"152 64 OFFCURVE",
"150 170 CURVE SMOOTH",
"148 280 OFFCURVE",
"146 386 OFFCURVE",
"146 486 CURVE",
"426 1054 LINE",
"430 766 OFFCURVE",
"430 492 OFFCURVE",
"422 170 CURVE SMOOTH",
"420 64 OFFCURVE",
"386 30 OFFCURVE",
"286 30 CURVE SMOOTH"
);
},
{
closed = 1;
nodes = (
"142 858 OFFCURVE",
"144 1124 OFFCURVE",
"150 1428 CURVE SMOOTH",
"152 1536 OFFCURVE",
"186 1570 OFFCURVE",
"286 1570 CURVE SMOOTH",
"386 1570 OFFCURVE",
"420 1536 OFFCURVE",
"422 1428 CURVE SMOOTH",
"424 1322 OFFCURVE",
"424 1222 OFFCURVE",
"426 1122 CURVE",
"144 572 LINE"
);
}
);
width = 569;
},
{
anchors = (
{
name = bottom;
position = "{339, 0}";
},
{
name = center;
position = "{339, 800}";
},
{
name = ogonek;
position = "{441, 17}";
},
{
name = top;
position = "{339, 1600}";
},
{
name = topleft;
position = "{58, 1600}";
},
{
name = topright;
position = "{619, 1600}";
}
);
background = {
anchors = (
{
name = bottom;
position = "{339, 0}";
},
{
name = center;
position = "{339, 800}";
},
{
name = ogonek;
position = "{441, 17}";
},
{
name = top;
position = "{339, 1600}";
},
{
name = topleft;
position = "{58, 1600}";
},
{
name = topright;
position = "{619, 1600}";
}
);
paths = (
{
closed = 1;
nodes = (
"506 -13 OFFCURVE",
"573 55 OFFCURVE",
"575 223 CURVE SMOOTH",
"581 626 OFFCURVE",
"581 972 OFFCURVE",
"575 1376 CURVE SMOOTH",
"573 1545 OFFCURVE",
"506 1613 OFFCURVE",
"338 1613 CURVE SMOOTH",
"170 1613 OFFCURVE",
"104 1545 OFFCURVE",
"101 1376 CURVE SMOOTH",
"93 973 OFFCURVE",
"93 626 OFFCURVE",
"101 223 CURVE SMOOTH",
"104 55 OFFCURVE",
"170 -13 OFFCURVE",
"338 -13 CURVE SMOOTH"
);
},
{
closed = 1;
nodes = (
"244 79 OFFCURVE",
"208 113 OFFCURVE",
"206 209 CURVE SMOOTH",
"204 302 OFFCURVE",
"202 392 OFFCURVE",
"202 478 CURVE",
"475 982 LINE",
"478 726 OFFCURVE",
"478 482 OFFCURVE",
"470 209 CURVE SMOOTH",
"468 113 OFFCURVE",
"433 79 OFFCURVE",
"338 79 CURVE SMOOTH"
);
},
{
closed = 1;
nodes = (
"197 881 OFFCURVE",
"200 1126 OFFCURVE",
"206 1390 CURVE SMOOTH",
"208 1487 OFFCURVE",
"244 1522 OFFCURVE",
"338 1522 CURVE SMOOTH",
"432 1522 OFFCURVE",
"468 1487 OFFCURVE",
"470 1390 CURVE SMOOTH",
"472 1295 OFFCURVE",
"473 1204 OFFCURVE",
"475 1113 CURVE",
"199 621 LINE"
);
}
);
};
layerId = "C9EB94EC-C68D-4931-B320-068DCAB9FADA";
paths = (
{
closed = 1;
nodes = (
"506 -13 OFFCURVE",
"573 55 OFFCURVE",
"575 223 CURVE SMOOTH",
"581 626 OFFCURVE",
"581 972 OFFCURVE",
"575 1376 CURVE SMOOTH",
"573 1545 OFFCURVE",
"506 1613 OFFCURVE",
"338 1613 CURVE SMOOTH",
"170 1613 OFFCURVE",
"104 1545 OFFCURVE",
"101 1376 CURVE SMOOTH",
"93 973 OFFCURVE",
"93 626 OFFCURVE",
"101 223 CURVE SMOOTH",
"104 55 OFFCURVE",
"170 -13 OFFCURVE",
"338 -13 CURVE SMOOTH"
);
},
{
closed = 1;
nodes = (
"244 79 OFFCURVE",
"208 113 OFFCURVE",
"206 209 CURVE SMOOTH",
"204 302 OFFCURVE",
"202 392 OFFCURVE",
"202 478 CURVE",
"475 982 LINE",
"478 726 OFFCURVE",
"478 482 OFFCURVE",
"470 209 CURVE SMOOTH",
"468 113 OFFCURVE",
"433 79 OFFCURVE",
"338 79 CURVE SMOOTH"
);
},
{
closed = 1;
nodes = (
"197 881 OFFCURVE",
"200 1126 OFFCURVE",
"206 1390 CURVE SMOOTH",
"208 1487 OFFCURVE",
"244 1522 OFFCURVE",
"338 1522 CURVE SMOOTH",
"432 1522 OFFCURVE",
"468 1487 OFFCURVE",
"470 1390 CURVE SMOOTH",
"472 1295 OFFCURVE",
"473 1204 OFFCURVE",
"475 1113 CURVE",
"199 621 LINE"
);
}
);
width = 674;
},
{
anchors = (
{
name = bottom;
position = "{402, 0}";
},
{
name = center;
position = "{402, 800}";
},
{
name = ogonek;
position = "{545, 34}";
},
{
name = top;
position = "{402, 1600}";
},
{
name = topleft;
position = "{121, 1600}";
},
{
name = topright;
position = "{721, 1600}";
}
);
background = {
anchors = (
{
name = bottom;
position = "{402, 0}";
},
{
name = center;
position = "{402, 800}";
},
{
name = ogonek;
position = "{545, 34}";
},
{
name = top;
position = "{402, 1600}";
},
{
name = topleft;
position = "{121, 1600}";
},
{
name = topright;
position = "{721, 1600}";
}
);
paths = (
{
closed = 1;
nodes = (
"602 -13 OFFCURVE",
"684 63 OFFCURVE",
"688 253 CURVE SMOOTH",
"696 673 OFFCURVE",
"696 941 OFFCURVE",
"688 1346 CURVE SMOOTH",
"684 1536 OFFCURVE",
"602 1613 OFFCURVE",
"401 1613 CURVE SMOOTH",
"199 1613 OFFCURVE",
"117 1536 OFFCURVE",
"114 1346 CURVE SMOOTH",
"108 941 OFFCURVE",
"108 673 OFFCURVE",
"114 253 CURVE SMOOTH",
"117 63 OFFCURVE",
"199 -13 OFFCURVE",
"401 -13 CURVE SMOOTH"
);
},
{
closed = 1;
nodes = (
"287 106 OFFCURVE",
"251 138 OFFCURVE",
"249 249 CURVE SMOOTH",
"248 293 OFFCURVE",
"247 334 OFFCURVE",
"246 375 CURVE",
"559 1007 LINE",
"562 752 OFFCURVE",
"559 557 OFFCURVE",
"553 249 CURVE SMOOTH",
"551 138 OFFCURVE",
"516 106 OFFCURVE",
"401 106 CURVE SMOOTH"
);
},
{
closed = 1;
nodes = (
"240 849 OFFCURVE",
"242 1047 OFFCURVE",
"249 1350 CURVE SMOOTH",
"251 1461 OFFCURVE",
"287 1495 OFFCURVE",
"401 1495 CURVE SMOOTH",
"516 1495 OFFCURVE",
"551 1461 OFFCURVE",
"553 1350 CURVE SMOOTH",
"554 1304 OFFCURVE",
"556 1260 OFFCURVE",
"556 1218 CURVE",
"243 590 LINE"
);
}
);
};
layerId = "6F82CFD7-79D5-473B-9D61-BE5DF154BBF2";
paths = (
{
closed = 1;
nodes = (
"602 -13 OFFCURVE",
"684 63 OFFCURVE",
"688 253 CURVE SMOOTH",
"696 673 OFFCURVE",
"696 941 OFFCURVE",
"688 1346 CURVE SMOOTH",
"684 1536 OFFCURVE",
"602 1613 OFFCURVE",
"401 1613 CURVE SMOOTH",
"199 1613 OFFCURVE",
"117 1536 OFFCURVE",
"114 1346 CURVE SMOOTH",
"108 941 OFFCURVE",
"108 673 OFFCURVE",
"114 253 CURVE SMOOTH",
"117 63 OFFCURVE",
"199 -13 OFFCURVE",
"401 -13 CURVE SMOOTH"
);
},
{
closed = 1;
nodes = (
"287 106 OFFCURVE",
"251 138 OFFCURVE",
"249 249 CURVE SMOOTH",
"248 293 OFFCURVE",
"247 334 OFFCURVE",
"246 375 CURVE",
"559 1007 LINE",
"562 752 OFFCURVE",
"559 557 OFFCURVE",
"553 249 CURVE SMOOTH",
"551 138 OFFCURVE",
"516 106 OFFCURVE",
"401 106 CURVE SMOOTH"
);
},
{
closed = 1;
nodes = (
"240 849 OFFCURVE",
"242 1047 OFFCURVE",
"249 1350 CURVE SMOOTH",
"251 1461 OFFCURVE",
"287 1495 OFFCURVE",
"401 1495 CURVE SMOOTH",
"516 1495 OFFCURVE",
"551 1461 OFFCURVE",
"553 1350 CURVE SMOOTH",
"554 1304 OFFCURVE",
"556 1260 OFFCURVE",
"556 1218 CURVE",
"243 590 LINE"
);
}
);
width = 804;
}
);
leftKerningGroup = O;
leftMetricsKey = O;
rightKerningGroup = O;
rightMetricsKey = O;
unicode = 00D8;
},
{
glyphname = OE;
layers = (
{
anchors = (
{
name = bottom;
position = "{350, 0}";
},
{
name = center;
position = "{350, 800}";
},
{
name = ogonek;
position = "{476, 32}";
},
{
name = top;
position = "{350, 1600}";
},
{
name = topleft;
position = "{132, 1600}";
},
{
name = topright;
position = "{620, 1600}";
}
);
background = {
anchors = (
{
name = bottom;
position = "{350, 0}";
},
{
name = center;
position = "{350, 800}";
},
{
name = ogonek;
position = "{476, 32}";
},
{
name = top;
position = "{350, 1600}";
},
{
name = topleft;
position = "{132, 1600}";
},
{
name = topright;
position = "{620, 1600}";
}
);
paths = (
{
closed = 1;
nodes = (
"420 -10 OFFCURVE",
"472 2 OFFCURVE",
"510 26 CURVE",
"510 0 LINE",
"928 0 LINE",
"928 76 LINE",
"590 76 LINE",
"590 762 LINE",
"908 762 LINE",
"908 838 LINE",
"590 838 LINE",
"590 1524 LINE",
"928 1524 LINE",
"928 1600 LINE",
"510 1600 LINE",
"510 1574 LINE",
"472 1598 OFFCURVE",
"420 1610 OFFCURVE",
"350 1610 CURVE SMOOTH",
"184 1610 OFFCURVE",
"116 1546 OFFCURVE",
"114 1388 CURVE SMOOTH",
"108 948 OFFCURVE",
"108 670 OFFCURVE",
"114 210 CURVE SMOOTH",
"116 52 OFFCURVE",
"184 -10 OFFCURVE",
"350 -10 CURVE SMOOTH"
);
},
{
closed = 1;
nodes = (
"230 66 OFFCURVE",
"196 96 OFFCURVE",
"194 210 CURVE SMOOTH",
"186 702 OFFCURVE",
"186 922 OFFCURVE",
"194 1388 CURVE SMOOTH",
"196 1502 OFFCURVE",
"230 1534 OFFCURVE",
"350 1534 CURVE SMOOTH",
"470 1534 OFFCURVE",
"504 1502 OFFCURVE",
"506 1388 CURVE SMOOTH",
"508 1286 OFFCURVE",
"508 312 OFFCURVE",
"506 210 CURVE SMOOTH",
"504 96 OFFCURVE",
"470 66 OFFCURVE",
"350 66 CURVE SMOOTH"
);
}
);
};
layerId = "3B122060-26E0-4730-9241-82784E6CB359";
paths = (
{
closed = 1;
nodes = (
"420 -10 OFFCURVE",
"472 2 OFFCURVE",
"510 26 CURVE",
"510 0 LINE",
"928 0 LINE",
"928 76 LINE",
"590 76 LINE",
"590 762 LINE",
"908 762 LINE",
"908 838 LINE",
"590 838 LINE",
"590 1524 LINE",
"928 1524 LINE",
"928 1600 LINE",
"510 1600 LINE",
"510 1574 LINE",
"472 1598 OFFCURVE",
"420 1610 OFFCURVE",
"350 1610 CURVE SMOOTH",
"184 1610 OFFCURVE",
"116 1546 OFFCURVE",
"114 1388 CURVE SMOOTH",
"108 948 OFFCURVE",
"108 670 OFFCURVE",
"114 210 CURVE SMOOTH",
"116 52 OFFCURVE",
"184 -10 OFFCURVE",
"350 -10 CURVE SMOOTH"
);
},
{
closed = 1;
nodes = (
"230 66 OFFCURVE",
"196 96 OFFCURVE",
"194 210 CURVE SMOOTH",
"186 702 OFFCURVE",
"186 922 OFFCURVE",
"194 1388 CURVE SMOOTH",
"196 1502 OFFCURVE",
"230 1534 OFFCURVE",
"350 1534 CURVE SMOOTH",
"470 1534 OFFCURVE",
"504 1502 OFFCURVE",
"506 1388 CURVE SMOOTH",
"508 1286 OFFCURVE",
"508 312 OFFCURVE",
"506 210 CURVE SMOOTH",
"504 96 OFFCURVE",
"470 66 OFFCURVE",
"350 66 CURVE SMOOTH"
);
}
);
width = 998;
},
{
anchors = (
{
name = bottom;
position = "{1074, 0}";
},
{
name = center;
position = "{530, 800}";
},
{
name = ogonek;
position = "{1148, 0}";
},
{
name = top;
position = "{1046, 1600}";
},
{
name = topleft;
position = "{678, 1600}";
},
{
name = topright;
position = "{996, 1600}";
}
);
background = {
anchors = (
{
name = bottom;
position = "{1074, 0}";
},
{
name = center;
position = "{530, 800}";
},
{
name = ogonek;
position = "{1148, 0}";
},
{
name = top;
position = "{1046, 1600}";
},
{
name = topleft;
position = "{678, 1600}";
},
{
name = topright;
position = "{996, 1600}";
}
);
paths = (
{
closed = 1;
nodes = (
"600 -20 OFFCURVE",
"662 -14 OFFCURVE",
"714 0 CURVE",
"716 0 LINE",
"1410 0 LINE",
"1410 264 LINE",
"978 264 LINE",
"978 682 LINE",
"1390 682 LINE",
"1390 946 LINE",
"978 946 LINE",
"978 1336 LINE",
"1410 1336 LINE",
"1410 1600 LINE",
"718 1600 LINE",
"716 1600 LINE",
"662 1614 OFFCURVE",
"600 1620 OFFCURVE",
"528 1620 CURVE SMOOTH",
"218 1620 OFFCURVE",
"92 1506 OFFCURVE",
"86 1220 CURVE SMOOTH",
"80 920 OFFCURVE",
"80 682 OFFCURVE",
"86 382 CURVE SMOOTH",
"92 94 OFFCURVE",
"218 -20 OFFCURVE",
"528 -20 CURVE SMOOTH"
);
},
{
closed = 1;
nodes = (
"430 224 OFFCURVE",
"388 264 OFFCURVE",
"386 366 CURVE SMOOTH",
"372 658 OFFCURVE",
"372 944 OFFCURVE",
"386 1236 CURVE SMOOTH",
"388 1336 OFFCURVE",
"430 1376 OFFCURVE",
"528 1376 CURVE SMOOTH",
"626 1376 OFFCURVE",
"666 1336 OFFCURVE",
"668 1236 CURVE SMOOTH",
"674 1122 OFFCURVE",
"674 480 OFFCURVE",
"668 366 CURVE SMOOTH",
"666 264 OFFCURVE",
"626 224 OFFCURVE",
"528 224 CURVE SMOOTH"
);
}
);
};
layerId = "1DFA7D5B-2E97-4B89-827F-FB43F8066DC1";
paths = (
{
closed = 1;
nodes = (
"600 -20 OFFCURVE",
"662 -14 OFFCURVE",
"714 0 CURVE",
"716 0 LINE",
"1410 0 LINE",
"1410 264 LINE",
"978 264 LINE",
"978 682 LINE",
"1390 682 LINE",
"1390 946 LINE",
"978 946 LINE",
"978 1336 LINE",
"1410 1336 LINE",
"1410 1600 LINE",
"718 1600 LINE",
"716 1600 LINE",
"662 1614 OFFCURVE",
"600 1620 OFFCURVE",
"528 1620 CURVE SMOOTH",
"218 1620 OFFCURVE",
"92 1506 OFFCURVE",
"86 1220 CURVE SMOOTH",
"80 920 OFFCURVE",
"80 682 OFFCURVE",
"86 382 CURVE SMOOTH",
"92 94 OFFCURVE",
"218 -20 OFFCURVE",
"528 -20 CURVE SMOOTH"
);
},
{
closed = 1;
nodes = (
"430 224 OFFCURVE",
"388 264 OFFCURVE",
"386 366 CURVE SMOOTH",
"372 658 OFFCURVE",
"372 944 OFFCURVE",
"386 1236 CURVE SMOOTH",
"388 1336 OFFCURVE",
"430 1376 OFFCURVE",
"528 1376 CURVE SMOOTH",
"626 1376 OFFCURVE",
"666 1336 OFFCURVE",
"668 1236 CURVE SMOOTH",
"674 1122 OFFCURVE",
"674 480 OFFCURVE",
"668 366 CURVE SMOOTH",
"666 264 OFFCURVE",
"626 224 OFFCURVE",
"528 224 CURVE SMOOTH"
);
}
);
width = 1466;
},
{
anchors = (
{
name = bottom;
position = "{982, 0}";
},
{
name = center;
position = "{498, 800}";
},
{
name = ogonek;
position = "{1084, 0}";
},
{
name = top;
position = "{976, 1600}";
},
{
name = topleft;
position = "{586, 1600}";
},
{
name = topright;
position = "{964, 1600}";
}
);
layerId = "5013C991-8699-46CB-BB1C-82E334DBD38B";
paths = (
{
closed = 1;
nodes = (
"566 -20 OFFCURVE",
"626 -14 OFFCURVE",
"676 0 CURVE",
"678 0 LINE",
"1318 0 LINE",
"1318 264 LINE",
"926 264 LINE",
"926 682 LINE",
"1298 682 LINE",
"1298 946 LINE",
"926 946 LINE",
"926 1336 LINE",
"1318 1336 LINE",
"1318 1600 LINE",
"678 1600 LINE",
"676 1600 LINE",
"626 1614 OFFCURVE",
"566 1620 OFFCURVE",
"496 1620 CURVE SMOOTH",
"202 1620 OFFCURVE",
"80 1506 OFFCURVE",
"74 1220 CURVE SMOOTH",
"68 958 OFFCURVE",
"68 644 OFFCURVE",
"74 382 CURVE SMOOTH",
"80 94 OFFCURVE",
"202 -20 OFFCURVE",
"496 -20 CURVE SMOOTH"
);
},
{
closed = 1;
nodes = (
"420 224 OFFCURVE",
"376 260 OFFCURVE",
"374 326 CURVE SMOOTH",
"362 598 OFFCURVE",
"362 1004 OFFCURVE",
"374 1276 CURVE SMOOTH",
"376 1340 OFFCURVE",
"420 1376 OFFCURVE",
"496 1376 CURVE SMOOTH",
"572 1376 OFFCURVE",
"614 1340 OFFCURVE",
"616 1276 CURVE SMOOTH",
"628 1004 OFFCURVE",
"628 598 OFFCURVE",
"616 326 CURVE SMOOTH",
"614 260 OFFCURVE",
"574 224 OFFCURVE",
"496 224 CURVE SMOOTH"
);
}
);
width = 1362;
},
{
anchors = (
{
name = bottom;
position = "{578, 0}";
},
{
name = center;
position = "{286, 800}";
},
{
name = ogonek;
position = "{646, 0}";
},
{
name = top;
position = "{578, 1600}";
},
{
name = topleft;
position = "{388, 1600}";
},
{
name = topright;
position = "{504, 1600}";
}
);
background = {
anchors = (
{
name = bottom;
position = "{578, 0}";
},
{
name = center;
position = "{286, 800}";
},
{
name = ogonek;
position = "{646, 0}";
},
{
name = top;
position = "{578, 1600}";
},
{
name = topleft;
position = "{388, 1600}";
},
{
name = topright;
position = "{504, 1600}";
}
);
paths = (
{
closed = 1;
nodes = (
"354 -10 OFFCURVE",
"400 6 OFFCURVE",
"428 40 CURVE",
"428 0 LINE",
"746 0 LINE",
"746 40 LINE",
"468 40 LINE",
"468 780 LINE",
"726 780 LINE",
"726 820 LINE",
"468 820 LINE",
"468 1560 LINE",
"746 1560 LINE",
"746 1600 LINE",
"428 1600 LINE",
"428 1560 LINE",
"400 1594 OFFCURVE",
"354 1610 OFFCURVE",
"286 1610 CURVE SMOOTH",
"160 1610 OFFCURVE",
"112 1558 OFFCURVE",
"110 1428 CURVE SMOOTH",
"102 978 OFFCURVE",
"102 620 OFFCURVE",
"110 170 CURVE SMOOTH",
"112 42 OFFCURVE",
"160 -10 OFFCURVE",
"286 -10 CURVE SMOOTH"
);
},
{
closed = 1;
nodes = (
"186 30 OFFCURVE",
"152 64 OFFCURVE",
"150 170 CURVE SMOOTH",
"142 628 OFFCURVE",
"140 988 OFFCURVE",
"150 1428 CURVE SMOOTH",
"152 1536 OFFCURVE",
"186 1570 OFFCURVE",
"286 1570 CURVE SMOOTH",
"386 1570 OFFCURVE",
"420 1536 OFFCURVE",
"422 1428 CURVE SMOOTH",
"428 1070 OFFCURVE",
"430 502 OFFCURVE",
"422 170 CURVE SMOOTH",
"420 64 OFFCURVE",
"386 30 OFFCURVE",
"286 30 CURVE SMOOTH"
);
}
);
};
layerId = "3D06B89B-468F-44E0-A3D7-A5BC6911123E";
paths = (
{
closed = 1;
nodes = (
"354 -10 OFFCURVE",
"400 6 OFFCURVE",
"428 40 CURVE",
"428 0 LINE",
"746 0 LINE",
"746 40 LINE",
"468 40 LINE",
"468 780 LINE",
"726 780 LINE",
"726 820 LINE",
"468 820 LINE",
"468 1560 LINE",
"746 1560 LINE",
"746 1600 LINE",
"428 1600 LINE",
"428 1560 LINE",
"400 1594 OFFCURVE",
"354 1610 OFFCURVE",
"286 1610 CURVE SMOOTH",
"160 1610 OFFCURVE",
"112 1558 OFFCURVE",
"110 1428 CURVE SMOOTH",
"102 978 OFFCURVE",
"102 620 OFFCURVE",
"110 170 CURVE SMOOTH",
"112 42 OFFCURVE",
"160 -10 OFFCURVE",
"286 -10 CURVE SMOOTH"
);
},
{
closed = 1;
nodes = (
"186 30 OFFCURVE",
"152 64 OFFCURVE",
"150 170 CURVE SMOOTH",
"142 628 OFFCURVE",
"140 988 OFFCURVE",
"150 1428 CURVE SMOOTH",
"152 1536 OFFCURVE",
"186 1570 OFFCURVE",
"286 1570 CURVE SMOOTH",
"386 1570 OFFCURVE",
"420 1536 OFFCURVE",
"422 1428 CURVE SMOOTH",
"428 1070 OFFCURVE",
"430 502 OFFCURVE",
"422 170 CURVE SMOOTH",
"420 64 OFFCURVE",
"386 30 OFFCURVE",
"286 30 CURVE SMOOTH"
);
}
);
width = 796;
},
{
anchors = (
{
name = bottom;
position = "{679, 0}";
},
{
name = center;
position = "{339, 800}";
},
{
name = ogonek;
position = "{755, 0}";
},
{
name = top;
position = "{677, 1600}";
},
{
name = topleft;
position = "{437, 1600}";
},
{
name = topright;
position = "{619, 1600}";
}
);
background = {
anchors = (
{
name = bottom;
position = "{679, 0}";
},
{
name = center;
position = "{339, 800}";
},
{
name = ogonek;
position = "{755, 0}";
},
{
name = top;
position = "{677, 1600}";
},
{
name = topleft;
position = "{437, 1600}";
},
{
name = topright;
position = "{619, 1600}";
}
);
paths = (
{
closed = 1;
nodes = (
"407 -13 OFFCURVE",
"456 1 OFFCURVE",
"490 30 CURVE",
"490 0 LINE",
"889 0 LINE",
"889 96 LINE",
"582 96 LINE",
"582 756 LINE",
"869 756 LINE",
"869 852 LINE",
"582 852 LINE",
"582 1504 LINE",
"889 1504 LINE",
"889 1600 LINE",
"490 1600 LINE",
"490 1570 LINE",
"456 1599 OFFCURVE",
"407 1613 OFFCURVE",
"338 1613 CURVE SMOOTH",
"170 1613 OFFCURVE",
"104 1545 OFFCURVE",
"101 1376 CURVE SMOOTH",
"93 973 OFFCURVE",
"93 626 OFFCURVE",
"101 223 CURVE SMOOTH",
"104 55 OFFCURVE",
"170 -13 OFFCURVE",
"338 -13 CURVE SMOOTH"
);
},
{
closed = 1;
nodes = (
"244 79 OFFCURVE",
"208 113 OFFCURVE",
"206 209 CURVE SMOOTH",
"197 621 OFFCURVE",
"195 992 OFFCURVE",
"206 1390 CURVE SMOOTH",
"208 1487 OFFCURVE",
"244 1522 OFFCURVE",
"338 1522 CURVE SMOOTH",
"432 1522 OFFCURVE",
"468 1487 OFFCURVE",
"470 1390 CURVE SMOOTH",
"478 1054 OFFCURVE",
"479 526 OFFCURVE",
"470 209 CURVE SMOOTH",
"468 113 OFFCURVE",
"433 79 OFFCURVE",
"338 79 CURVE SMOOTH"
);
}
);
};
layerId = "C9EB94EC-C68D-4931-B320-068DCAB9FADA";
paths = (
{
closed = 1;
nodes = (
"407 -13 OFFCURVE",
"456 1 OFFCURVE",
"490 30 CURVE",
"490 0 LINE",
"889 0 LINE",
"889 96 LINE",
"582 96 LINE",
"582 756 LINE",
"869 756 LINE",
"869 852 LINE",
"582 852 LINE",
"582 1504 LINE",
"889 1504 LINE",
"889 1600 LINE",
"490 1600 LINE",
"490 1570 LINE",
"456 1599 OFFCURVE",
"407 1613 OFFCURVE",
"338 1613 CURVE SMOOTH",
"170 1613 OFFCURVE",
"104 1545 OFFCURVE",
"101 1376 CURVE SMOOTH",
"93 973 OFFCURVE",
"93 626 OFFCURVE",
"101 223 CURVE SMOOTH",
"104 55 OFFCURVE",
"170 -13 OFFCURVE",
"338 -13 CURVE SMOOTH"
);
},
{
closed = 1;
nodes = (
"244 79 OFFCURVE",
"208 113 OFFCURVE",
"206 209 CURVE SMOOTH",
"197 621 OFFCURVE",
"195 992 OFFCURVE",
"206 1390 CURVE SMOOTH",
"208 1487 OFFCURVE",
"244 1522 OFFCURVE",
"338 1522 CURVE SMOOTH",
"432 1522 OFFCURVE",
"468 1487 OFFCURVE",
"470 1390 CURVE SMOOTH",
"478 1054 OFFCURVE",
"479 526 OFFCURVE",
"470 209 CURVE SMOOTH",
"468 113 OFFCURVE",
"433 79 OFFCURVE",
"338 79 CURVE SMOOTH"
);
}
);
width = 935;
},
{
anchors = (
{
name = bottom;
position = "{538, 0}";
},
{
name = center;
position = "{402, 800}";
},
{
name = ogonek;
position = "{651, 24}";
},
{
name = top;
position = "{531, 1600}";
},
{
name = topleft;
position = "{275, 1600}";
},
{
name = topright;
position = "{721, 1600}";
}
);
background = {
anchors = (
{
name = bottom;
position = "{538, 0}";
},
{
name = center;
position = "{402, 800}";
},
{
name = ogonek;
position = "{651, 24}";
},
{
name = top;
position = "{531, 1600}";
},
{
name = topleft;
position = "{275, 1600}";
},
{
name = topright;
position = "{721, 1600}";
}
);
paths = (
{
closed = 1;
nodes = (
"472 -13 OFFCURVE",
"526 -2 OFFCURVE",
"568 20 CURVE",
"568 0 LINE",
"1055 0 LINE",
"1055 123 LINE",
"694 123 LINE",
"694 742 LINE",
"1035 742 LINE",
"1035 865 LINE",
"694 865 LINE",
"694 1477 LINE",
"1055 1477 LINE",
"1055 1600 LINE",
"569 1600 LINE",
"568 1581 LINE",
"526 1602 OFFCURVE",
"472 1613 OFFCURVE",
"401 1613 CURVE SMOOTH",
"199 1613 OFFCURVE",
"117 1536 OFFCURVE",
"114 1346 CURVE SMOOTH",
"108 941 OFFCURVE",
"108 673 OFFCURVE",
"114 253 CURVE SMOOTH",
"117 63 OFFCURVE",
"199 -13 OFFCURVE",
"401 -13 CURVE SMOOTH"
);
},
{
closed = 1;
nodes = (
"287 106 OFFCURVE",
"251 138 OFFCURVE",
"249 249 CURVE SMOOTH",
"239 691 OFFCURVE",
"239 928 OFFCURVE",
"249 1350 CURVE SMOOTH",
"251 1461 OFFCURVE",
"287 1495 OFFCURVE",
"401 1495 CURVE SMOOTH",
"516 1495 OFFCURVE",
"551 1461 OFFCURVE",
"553 1350 CURVE SMOOTH",
"556 1245 OFFCURVE",
"556 354 OFFCURVE",
"553 249 CURVE SMOOTH",
"551 138 OFFCURVE",
"516 106 OFFCURVE",
"401 106 CURVE SMOOTH"
);
}
);
};
layerId = "6F82CFD7-79D5-473B-9D61-BE5DF154BBF2";
paths = (
{
closed = 1;
nodes = (
"472 -13 OFFCURVE",
"526 -2 OFFCURVE",
"568 20 CURVE",
"568 0 LINE",
"1055 0 LINE",
"1055 123 LINE",
"694 123 LINE",
"694 742 LINE",
"1035 742 LINE",
"1035 865 LINE",
"694 865 LINE",
"694 1477 LINE",
"1055 1477 LINE",
"1055 1600 LINE",
"569 1600 LINE",
"568 1581 LINE",
"526 1602 OFFCURVE",
"472 1613 OFFCURVE",
"401 1613 CURVE SMOOTH",
"199 1613 OFFCURVE",
"117 1536 OFFCURVE",
"114 1346 CURVE SMOOTH",
"108 941 OFFCURVE",
"108 673 OFFCURVE",
"114 253 CURVE SMOOTH",
"117 63 OFFCURVE",
"199 -13 OFFCURVE",
"401 -13 CURVE SMOOTH"
);
},
{
closed = 1;
nodes = (
"287 106 OFFCURVE",
"251 138 OFFCURVE",
"249 249 CURVE SMOOTH",
"239 691 OFFCURVE",
"239 928 OFFCURVE",
"249 1350 CURVE SMOOTH",
"251 1461 OFFCURVE",
"287 1495 OFFCURVE",
"401 1495 CURVE SMOOTH",
"516 1495 OFFCURVE",
"551 1461 OFFCURVE",
"553 1350 CURVE SMOOTH",
"556 1245 OFFCURVE",
"556 354 OFFCURVE",
"553 249 CURVE SMOOTH",
"551 138 OFFCURVE",
"516 106 OFFCURVE",
"401 106 CURVE SMOOTH"
);
}
);
width = 1111;
}
);
leftKerningGroup = O;
leftMetricsKey = O;
rightKerningGroup = E;
rightMetricsKey = E;
unicode = 0152;
},
{
glyphname = P;
layers = (
{
background = {
paths = (
{
closed = 1;
nodes = (
"220 0 LINE",
"220 690 LINE",
"362 690 LINE SMOOTH",
"508 690 OFFCURVE",
"570 744 OFFCURVE",
"576 876 CURVE SMOOTH",
"584 1044 OFFCURVE",
"582 1198 OFFCURVE",
"576 1414 CURVE SMOOTH",
"572 1546 OFFCURVE",
"510 1600 OFFCURVE",
"364 1600 CURVE SMOOTH",
"140 1600 LINE",
"140 0 LINE"
);
},
{
closed = 1;
nodes = (
"220 1524 LINE",
"364 1524 LINE SMOOTH",
"464 1524 OFFCURVE",
"494 1500 OFFCURVE",
"496 1414 CURVE SMOOTH",
"504 1178 OFFCURVE",
"504 1062 OFFCURVE",
"496 876 CURVE SMOOTH",
"492 790 OFFCURVE",
"466 766 OFFCURVE",
"362 766 CURVE SMOOTH",
"220 766 LINE"
);
}
);
};
layerId = "3B122060-26E0-4730-9241-82784E6CB359";
paths = (
{
closed = 1;
nodes = (
"220 0 LINE",
"220 690 LINE",
"362 690 LINE SMOOTH",
"508 690 OFFCURVE",
"570 744 OFFCURVE",
"576 876 CURVE SMOOTH",
"584 1044 OFFCURVE",
"582 1198 OFFCURVE",
"576 1414 CURVE SMOOTH",
"572 1546 OFFCURVE",
"510 1600 OFFCURVE",
"364 1600 CURVE SMOOTH",
"140 1600 LINE",
"140 0 LINE"
);
},
{
closed = 1;
nodes = (
"220 1524 LINE",
"364 1524 LINE SMOOTH",
"464 1524 OFFCURVE",
"494 1500 OFFCURVE",
"496 1414 CURVE SMOOTH",
"504 1178 OFFCURVE",
"504 1062 OFFCURVE",
"496 876 CURVE SMOOTH",
"492 790 OFFCURVE",
"466 766 OFFCURVE",
"362 766 CURVE SMOOTH",
"220 766 LINE"
);
}
);
width = 656;
},
{
background = {
paths = (
{
closed = 1;
nodes = (
"400 0 LINE",
"400 508 LINE",
"526 508 LINE SMOOTH",
"824 508 OFFCURVE",
"946 620 OFFCURVE",
"956 898 CURVE SMOOTH",
"960 1010 OFFCURVE",
"960 1098 OFFCURVE",
"956 1210 CURVE SMOOTH",
"946 1488 OFFCURVE",
"824 1600 OFFCURVE",
"526 1600 CURVE SMOOTH",
"100 1600 LINE",
"100 0 LINE"
);
},
{
closed = 1;
nodes = (
"400 1336 LINE",
"526 1336 LINE SMOOTH",
"610 1336 OFFCURVE",
"652 1296 OFFCURVE",
"656 1226 CURVE SMOOTH",
"662 1128 OFFCURVE",
"662 980 OFFCURVE",
"656 882 CURVE SMOOTH",
"652 812 OFFCURVE",
"610 772 OFFCURVE",
"526 772 CURVE SMOOTH",
"400 772 LINE"
);
}
);
};
layerId = "1DFA7D5B-2E97-4B89-827F-FB43F8066DC1";
paths = (
{
closed = 1;
nodes = (
"400 0 LINE",
"400 508 LINE",
"526 508 LINE SMOOTH",
"824 508 OFFCURVE",
"946 620 OFFCURVE",
"956 898 CURVE SMOOTH",
"960 1010 OFFCURVE",
"960 1098 OFFCURVE",
"956 1210 CURVE SMOOTH",
"946 1488 OFFCURVE",
"824 1600 OFFCURVE",
"526 1600 CURVE SMOOTH",
"100 1600 LINE",
"100 0 LINE"
);
},
{
closed = 1;
nodes = (
"400 1336 LINE",
"526 1336 LINE SMOOTH",
"610 1336 OFFCURVE",
"652 1296 OFFCURVE",
"656 1226 CURVE SMOOTH",
"662 1128 OFFCURVE",
"662 980 OFFCURVE",
"656 882 CURVE SMOOTH",
"652 812 OFFCURVE",
"610 772 OFFCURVE",
"526 772 CURVE SMOOTH",
"400 772 LINE"
);
}
);
width = 1014;
},
{
layerId = "5013C991-8699-46CB-BB1C-82E334DBD38B";
paths = (
{
closed = 1;
nodes = (
"380 0 LINE",
"380 508 LINE",
"466 508 LINE SMOOTH",
"764 508 OFFCURVE",
"886 620 OFFCURVE",
"896 898 CURVE SMOOTH",
"900 1010 OFFCURVE",
"900 1098 OFFCURVE",
"896 1210 CURVE SMOOTH",
"886 1488 OFFCURVE",
"764 1600 OFFCURVE",
"466 1600 CURVE SMOOTH",
"80 1600 LINE",
"80 0 LINE"
);
},
{
closed = 1;
nodes = (
"380 1336 LINE",
"466 1336 LINE SMOOTH",
"550 1336 OFFCURVE",
"592 1296 OFFCURVE",
"596 1226 CURVE SMOOTH",
"602 1128 OFFCURVE",
"602 980 OFFCURVE",
"596 882 CURVE SMOOTH",
"592 812 OFFCURVE",
"550 772 OFFCURVE",
"466 772 CURVE SMOOTH",
"380 772 LINE"
);
}
);
width = 941;
},
{
background = {
paths = (
{
closed = 1;
nodes = (
"160 0 LINE",
"160 690 LINE",
"282 690 LINE SMOOTH",
"400 690 OFFCURVE",
"450 744 OFFCURVE",
"456 876 CURVE SMOOTH",
"464 1044 OFFCURVE",
"464 1198 OFFCURVE",
"456 1414 CURVE SMOOTH",
"450 1546 OFFCURVE",
"400 1600 OFFCURVE",
"284 1600 CURVE SMOOTH",
"120 1600 LINE",
"120 0 LINE"
);
},
{
closed = 1;
nodes = (
"160 1560 LINE",
"284 1560 LINE SMOOTH",
"376 1560 OFFCURVE",
"412 1518 OFFCURVE",
"416 1414 CURVE SMOOTH",
"422 1222 OFFCURVE",
"422 1068 OFFCURVE",
"416 876 CURVE SMOOTH",
"412 772 OFFCURVE",
"376 730 OFFCURVE",
"282 730 CURVE SMOOTH",
"160 730 LINE"
);
}
);
};
layerId = "3D06B89B-468F-44E0-A3D7-A5BC6911123E";
paths = (
{
closed = 1;
nodes = (
"160 0 LINE",
"160 690 LINE",
"282 690 LINE SMOOTH",
"400 690 OFFCURVE",
"450 744 OFFCURVE",
"456 876 CURVE SMOOTH",
"464 1044 OFFCURVE",
"464 1198 OFFCURVE",
"456 1414 CURVE SMOOTH",
"450 1546 OFFCURVE",
"400 1600 OFFCURVE",
"284 1600 CURVE SMOOTH",
"120 1600 LINE",
"120 0 LINE"
);
},
{
closed = 1;
nodes = (
"160 1560 LINE",
"284 1560 LINE SMOOTH",
"376 1560 OFFCURVE",
"412 1518 OFFCURVE",
"416 1414 CURVE SMOOTH",
"422 1222 OFFCURVE",
"422 1068 OFFCURVE",
"416 876 CURVE SMOOTH",
"412 772 OFFCURVE",
"376 730 OFFCURVE",
"282 730 CURVE SMOOTH",
"160 730 LINE"
);
}
);
width = 517;
},
{
background = {
paths = (
{
closed = 1;
nodes = (
"215 0 LINE",
"215 645 LINE",
"328 645 LINE SMOOTH",
"491 645 OFFCURVE",
"559 713 OFFCURVE",
"566 882 CURVE SMOOTH",
"573 1036 OFFCURVE",
"573 1173 OFFCURVE",
"566 1363 CURVE SMOOTH",
"559 1532 OFFCURVE",
"491 1600 OFFCURVE",
"330 1600 CURVE SMOOTH",
"110 1600 LINE",
"110 0 LINE"
);
},
{
closed = 1;
nodes = (
"215 1504 LINE",
"330 1504 LINE SMOOTH",
"420 1504 OFFCURVE",
"457 1463 OFFCURVE",
"461 1367 CURVE SMOOTH",
"467 1199 OFFCURVE",
"467 1046 OFFCURVE",
"461 878 CURVE SMOOTH",
"457 782 OFFCURVE",
"420 741 OFFCURVE",
"328 741 CURVE SMOOTH",
"215 741 LINE"
);
}
);
};
layerId = "C9EB94EC-C68D-4931-B320-068DCAB9FADA";
paths = (
{
closed = 1;
nodes = (
"215 0 LINE",
"215 645 LINE",
"328 645 LINE SMOOTH",
"491 645 OFFCURVE",
"559 713 OFFCURVE",
"566 882 CURVE SMOOTH",
"573 1036 OFFCURVE",
"573 1173 OFFCURVE",
"566 1363 CURVE SMOOTH",
"559 1532 OFFCURVE",
"491 1600 OFFCURVE",
"330 1600 CURVE SMOOTH",
"110 1600 LINE",
"110 0 LINE"
);
},
{
closed = 1;
nodes = (
"215 1504 LINE",
"330 1504 LINE SMOOTH",
"420 1504 OFFCURVE",
"457 1463 OFFCURVE",
"461 1367 CURVE SMOOTH",
"467 1199 OFFCURVE",
"467 1046 OFFCURVE",
"461 878 CURVE SMOOTH",
"457 782 OFFCURVE",
"420 741 OFFCURVE",
"328 741 CURVE SMOOTH",
"215 741 LINE"
);
}
);
width = 626;
},
{
background = {
paths = (
{
closed = 1;
nodes = (
"260 0 LINE",
"260 645 LINE",
"398 645 LINE SMOOTH",
"582 645 OFFCURVE",
"659 713 OFFCURVE",
"666 882 CURVE SMOOTH",
"673 1036 OFFCURVE",
"672 1173 OFFCURVE",
"666 1363 CURVE SMOOTH",
"661 1532 OFFCURVE",
"584 1600 OFFCURVE",
"400 1600 CURVE SMOOTH",
"125 1600 LINE",
"125 0 LINE"
);
},
{
closed = 1;
nodes = (
"260 1477 LINE",
"400 1477 LINE SMOOTH",
"496 1477 OFFCURVE",
"529 1449 OFFCURVE",
"531 1367 CURVE SMOOTH",
"539 1166 OFFCURVE",
"539 1042 OFFCURVE",
"531 878 CURVE SMOOTH",
"527 796 OFFCURVE",
"497 768 OFFCURVE",
"398 768 CURVE SMOOTH",
"260 768 LINE"
);
}
);
};
layerId = "6F82CFD7-79D5-473B-9D61-BE5DF154BBF2";
paths = (
{
closed = 1;
nodes = (
"260 0 LINE",
"260 645 LINE",
"398 645 LINE SMOOTH",
"582 645 OFFCURVE",
"659 713 OFFCURVE",
"666 882 CURVE SMOOTH",
"673 1036 OFFCURVE",
"672 1173 OFFCURVE",
"666 1363 CURVE SMOOTH",
"661 1532 OFFCURVE",
"584 1600 OFFCURVE",
"400 1600 CURVE SMOOTH",
"125 1600 LINE",
"125 0 LINE"
);
},
{
closed = 1;
nodes = (
"260 1477 LINE",
"400 1477 LINE SMOOTH",
"496 1477 OFFCURVE",
"529 1449 OFFCURVE",
"531 1367 CURVE SMOOTH",
"539 1166 OFFCURVE",
"539 1042 OFFCURVE",
"531 878 CURVE SMOOTH",
"527 796 OFFCURVE",
"497 768 OFFCURVE",
"398 768 CURVE SMOOTH",
"260 768 LINE"
);
}
);
width = 736;
}
);
leftKerningGroup = H;
leftMetricsKey = H;
rightKerningGroup = P;
unicode = 0050;
},
{
glyphname = Thorn;
layers = (
{
background = {
paths = (
{
closed = 1;
nodes = (
"200 0 LINE",
"200 370 LINE",
"322 370 LINE SMOOTH",
"468 370 OFFCURVE",
"530 424 OFFCURVE",
"536 556 CURVE SMOOTH",
"544 724 OFFCURVE",
"542 878 OFFCURVE",
"536 1094 CURVE SMOOTH",
"532 1226 OFFCURVE",
"470 1280 OFFCURVE",
"324 1280 CURVE SMOOTH",
"200 1280 LINE",
"200 1600 LINE",
"120 1600 LINE",
"120 0 LINE"
);
},
{
closed = 1;
nodes = (
"200 1204 LINE",
"324 1204 LINE SMOOTH",
"424 1204 OFFCURVE",
"452 1178 OFFCURVE",
"456 1094 CURVE SMOOTH",
"466 882 OFFCURVE",
"462 768 OFFCURVE",
"456 556 CURVE SMOOTH",
"454 472 OFFCURVE",
"424 446 OFFCURVE",
"322 446 CURVE SMOOTH",
"200 446 LINE"
);
}
);
};
layerId = "3B122060-26E0-4730-9241-82784E6CB359";
paths = (
{
closed = 1;
nodes = (
"200 0 LINE",
"200 370 LINE",
"322 370 LINE SMOOTH",
"468 370 OFFCURVE",
"530 424 OFFCURVE",
"536 556 CURVE SMOOTH",
"544 724 OFFCURVE",
"542 878 OFFCURVE",
"536 1094 CURVE SMOOTH",
"532 1226 OFFCURVE",
"470 1280 OFFCURVE",
"324 1280 CURVE SMOOTH",
"200 1280 LINE",
"200 1600 LINE",
"120 1600 LINE",
"120 0 LINE"
);
},
{
closed = 1;
nodes = (
"200 1204 LINE",
"324 1204 LINE SMOOTH",
"424 1204 OFFCURVE",
"452 1178 OFFCURVE",
"456 1094 CURVE SMOOTH",
"466 882 OFFCURVE",
"462 768 OFFCURVE",
"456 556 CURVE SMOOTH",
"454 472 OFFCURVE",
"424 446 OFFCURVE",
"322 446 CURVE SMOOTH",
"200 446 LINE"
);
}
);
width = 602;
},
{
background = {
paths = (
{
closed = 1;
nodes = (
"380 0 LINE",
"380 268 LINE",
"506 268 LINE SMOOTH",
"804 268 OFFCURVE",
"926 380 OFFCURVE",
"936 658 CURVE SMOOTH",
"940 770 OFFCURVE",
"940 858 OFFCURVE",
"936 970 CURVE SMOOTH",
"926 1248 OFFCURVE",
"804 1360 OFFCURVE",
"506 1360 CURVE SMOOTH",
"380 1360 LINE",
"380 1600 LINE",
"80 1600 LINE",
"80 0 LINE"
);
},
{
closed = 1;
nodes = (
"380 1096 LINE",
"506 1096 LINE SMOOTH",
"590 1096 OFFCURVE",
"632 1056 OFFCURVE",
"636 986 CURVE SMOOTH",
"642 888 OFFCURVE",
"642 740 OFFCURVE",
"636 642 CURVE SMOOTH",
"632 572 OFFCURVE",
"590 532 OFFCURVE",
"506 532 CURVE SMOOTH",
"380 532 LINE"
);
}
);
};
layerId = "1DFA7D5B-2E97-4B89-827F-FB43F8066DC1";
paths = (
{
closed = 1;
nodes = (
"380 0 LINE",
"380 268 LINE",
"506 268 LINE SMOOTH",
"804 268 OFFCURVE",
"926 380 OFFCURVE",
"936 658 CURVE SMOOTH",
"940 770 OFFCURVE",
"940 858 OFFCURVE",
"936 970 CURVE SMOOTH",
"926 1248 OFFCURVE",
"804 1360 OFFCURVE",
"506 1360 CURVE SMOOTH",
"380 1360 LINE",
"380 1600 LINE",
"80 1600 LINE",
"80 0 LINE"
);
},
{
closed = 1;
nodes = (
"380 1096 LINE",
"506 1096 LINE SMOOTH",
"590 1096 OFFCURVE",
"632 1056 OFFCURVE",
"636 986 CURVE SMOOTH",
"642 888 OFFCURVE",
"642 740 OFFCURVE",
"636 642 CURVE SMOOTH",
"632 572 OFFCURVE",
"590 532 OFFCURVE",
"506 532 CURVE SMOOTH",
"380 532 LINE"
);
}
);
width = 980;
},
{
layerId = "5013C991-8699-46CB-BB1C-82E334DBD38B";
paths = (
{
closed = 1;
nodes = (
"380 0 LINE",
"380 268 LINE",
"466 268 LINE SMOOTH",
"764 268 OFFCURVE",
"886 380 OFFCURVE",
"896 658 CURVE SMOOTH",
"900 770 OFFCURVE",
"900 858 OFFCURVE",
"896 970 CURVE SMOOTH",
"886 1248 OFFCURVE",
"764 1360 OFFCURVE",
"466 1360 CURVE SMOOTH",
"380 1360 LINE",
"380 1600 LINE",
"80 1600 LINE",
"80 0 LINE"
);
},
{
closed = 1;
nodes = (
"380 1096 LINE",
"466 1096 LINE SMOOTH",
"550 1096 OFFCURVE",
"592 1056 OFFCURVE",
"596 986 CURVE SMOOTH",
"602 888 OFFCURVE",
"602 740 OFFCURVE",
"596 642 CURVE SMOOTH",
"592 572 OFFCURVE",
"550 532 OFFCURVE",
"466 532 CURVE SMOOTH",
"380 532 LINE"
);
}
);
width = 938;
},
{
background = {
paths = (
{
closed = 1;
nodes = (
"160 0 LINE",
"160 370 LINE",
"282 370 LINE SMOOTH",
"400 370 OFFCURVE",
"450 424 OFFCURVE",
"456 556 CURVE SMOOTH",
"464 724 OFFCURVE",
"462 878 OFFCURVE",
"456 1094 CURVE SMOOTH",
"452 1226 OFFCURVE",
"400 1280 OFFCURVE",
"284 1280 CURVE SMOOTH",
"160 1280 LINE",
"160 1600 LINE",
"120 1600 LINE",
"120 0 LINE"
);
},
{
closed = 1;
nodes = (
"160 1240 LINE",
"284 1240 LINE SMOOTH",
"376 1240 OFFCURVE",
"412 1198 OFFCURVE",
"416 1094 CURVE SMOOTH",
"424 902 OFFCURVE",
"424 748 OFFCURVE",
"416 556 CURVE SMOOTH",
"412 452 OFFCURVE",
"376 410 OFFCURVE",
"282 410 CURVE SMOOTH",
"160 410 LINE"
);
}
);
};
layerId = "3D06B89B-468F-44E0-A3D7-A5BC6911123E";
paths = (
{
closed = 1;
nodes = (
"160 0 LINE",
"160 370 LINE",
"282 370 LINE SMOOTH",
"400 370 OFFCURVE",
"450 424 OFFCURVE",
"456 556 CURVE SMOOTH",
"464 724 OFFCURVE",
"462 878 OFFCURVE",
"456 1094 CURVE SMOOTH",
"452 1226 OFFCURVE",
"400 1280 OFFCURVE",
"284 1280 CURVE SMOOTH",
"160 1280 LINE",
"160 1600 LINE",
"120 1600 LINE",
"120 0 LINE"
);
},
{
closed = 1;
nodes = (
"160 1240 LINE",
"284 1240 LINE SMOOTH",
"376 1240 OFFCURVE",
"412 1198 OFFCURVE",
"416 1094 CURVE SMOOTH",
"424 902 OFFCURVE",
"424 748 OFFCURVE",
"416 556 CURVE SMOOTH",
"412 452 OFFCURVE",
"376 410 OFFCURVE",
"282 410 CURVE SMOOTH",
"160 410 LINE"
);
}
);
width = 522;
},
{
background = {
paths = (
{
closed = 1;
nodes = (
"215 0 LINE",
"215 345 LINE",
"328 345 LINE SMOOTH",
"491 345 OFFCURVE",
"559 413 OFFCURVE",
"566 582 CURVE SMOOTH",
"573 736 OFFCURVE",
"572 873 OFFCURVE",
"566 1063 CURVE SMOOTH",
"561 1232 OFFCURVE",
"491 1300 OFFCURVE",
"330 1300 CURVE SMOOTH",
"215 1300 LINE",
"215 1600 LINE",
"110 1600 LINE",
"110 0 LINE"
);
},
{
closed = 1;
nodes = (
"215 1204 LINE",
"330 1204 LINE SMOOTH",
"420 1204 OFFCURVE",
"457 1163 OFFCURVE",
"461 1067 CURVE SMOOTH",
"469 899 OFFCURVE",
"469 746 OFFCURVE",
"461 578 CURVE SMOOTH",
"457 482 OFFCURVE",
"420 441 OFFCURVE",
"328 441 CURVE SMOOTH",
"215 441 LINE"
);
}
);
};
layerId = "C9EB94EC-C68D-4931-B320-068DCAB9FADA";
paths = (
{
closed = 1;
nodes = (
"215 0 LINE",
"215 345 LINE",
"328 345 LINE SMOOTH",
"491 345 OFFCURVE",
"559 413 OFFCURVE",
"566 582 CURVE SMOOTH",
"573 736 OFFCURVE",
"572 873 OFFCURVE",
"566 1063 CURVE SMOOTH",
"561 1232 OFFCURVE",
"491 1300 OFFCURVE",
"330 1300 CURVE SMOOTH",
"215 1300 LINE",
"215 1600 LINE",
"110 1600 LINE",
"110 0 LINE"
);
},
{
closed = 1;
nodes = (
"215 1204 LINE",
"330 1204 LINE SMOOTH",
"420 1204 OFFCURVE",
"457 1163 OFFCURVE",
"461 1067 CURVE SMOOTH",
"469 899 OFFCURVE",
"469 746 OFFCURVE",
"461 578 CURVE SMOOTH",
"457 482 OFFCURVE",
"420 441 OFFCURVE",
"328 441 CURVE SMOOTH",
"215 441 LINE"
);
}
);
width = 626;
},
{
background = {
paths = (
{
closed = 1;
nodes = (
"245 0 LINE",
"245 345 LINE",
"368 345 LINE SMOOTH",
"552 345 OFFCURVE",
"629 413 OFFCURVE",
"636 582 CURVE SMOOTH",
"643 736 OFFCURVE",
"642 873 OFFCURVE",
"636 1063 CURVE SMOOTH",
"631 1232 OFFCURVE",
"554 1300 OFFCURVE",
"370 1300 CURVE SMOOTH",
"245 1300 LINE",
"245 1600 LINE",
"110 1600 LINE",
"110 0 LINE"
);
},
{
closed = 1;
nodes = (
"245 1177 LINE",
"370 1177 LINE SMOOTH",
"466 1177 OFFCURVE",
"497 1148 OFFCURVE",
"501 1067 CURVE SMOOTH",
"510 884 OFFCURVE",
"507 761 OFFCURVE",
"501 578 CURVE SMOOTH",
"499 497 OFFCURVE",
"466 468 OFFCURVE",
"368 468 CURVE SMOOTH",
"245 468 LINE"
);
}
);
};
layerId = "6F82CFD7-79D5-473B-9D61-BE5DF154BBF2";
paths = (
{
closed = 1;
nodes = (
"245 0 LINE",
"245 345 LINE",
"368 345 LINE SMOOTH",
"552 345 OFFCURVE",
"629 413 OFFCURVE",
"636 582 CURVE SMOOTH",
"643 736 OFFCURVE",
"642 873 OFFCURVE",
"636 1063 CURVE SMOOTH",
"631 1232 OFFCURVE",
"554 1300 OFFCURVE",
"370 1300 CURVE SMOOTH",
"245 1300 LINE",
"245 1600 LINE",
"110 1600 LINE",
"110 0 LINE"
);
},
{
closed = 1;
nodes = (
"245 1177 LINE",
"370 1177 LINE SMOOTH",
"466 1177 OFFCURVE",
"497 1148 OFFCURVE",
"501 1067 CURVE SMOOTH",
"510 884 OFFCURVE",
"507 761 OFFCURVE",
"501 578 CURVE SMOOTH",
"499 497 OFFCURVE",
"466 468 OFFCURVE",
"368 468 CURVE SMOOTH",
"245 468 LINE"
);
}
);
width = 697;
}
);
leftKerningGroup = H;
rightKerningGroup = P;
unicode = 00DE;
},
{
glyphname = Q;
layers = (
{
background = {
paths = (
{
closed = 1;
nodes = (
"476 -102 LINE",
"426 -106 OFFCURVE",
"412 -86 OFFCURVE",
"410 -6 CURVE",
"532 8 OFFCURVE",
"584 72 OFFCURVE",
"586 210 CURVE SMOOTH",
"592 670 OFFCURVE",
"592 948 OFFCURVE",
"586 1388 CURVE SMOOTH",
"584 1546 OFFCURVE",
"516 1610 OFFCURVE",
"350 1610 CURVE SMOOTH",
"184 1610 OFFCURVE",
"116 1546 OFFCURVE",
"114 1388 CURVE SMOOTH",
"108 948 OFFCURVE",
"108 670 OFFCURVE",
"114 210 CURVE SMOOTH",
"116 58 OFFCURVE",
"178 -4 OFFCURVE",
"330 -10 CURVE",
"332 -132 OFFCURVE",
"376 -180 OFFCURVE",
"476 -174 CURVE"
);
},
{
closed = 1;
nodes = (
"230 66 OFFCURVE",
"196 96 OFFCURVE",
"194 210 CURVE SMOOTH",
"186 702 OFFCURVE",
"186 922 OFFCURVE",
"194 1388 CURVE SMOOTH",
"196 1502 OFFCURVE",
"230 1534 OFFCURVE",
"350 1534 CURVE SMOOTH",
"470 1534 OFFCURVE",
"504 1502 OFFCURVE",
"506 1388 CURVE SMOOTH",
"514 908 OFFCURVE",
"514 688 OFFCURVE",
"506 210 CURVE SMOOTH",
"504 96 OFFCURVE",
"470 66 OFFCURVE",
"350 66 CURVE SMOOTH"
);
}
);
};
layerId = "3B122060-26E0-4730-9241-82784E6CB359";
paths = (
{
closed = 1;
nodes = (
"476 -102 LINE",
"426 -106 OFFCURVE",
"412 -86 OFFCURVE",
"410 -6 CURVE",
"532 8 OFFCURVE",
"584 72 OFFCURVE",
"586 210 CURVE SMOOTH",
"592 670 OFFCURVE",
"592 948 OFFCURVE",
"586 1388 CURVE SMOOTH",
"584 1546 OFFCURVE",
"516 1610 OFFCURVE",
"350 1610 CURVE SMOOTH",
"184 1610 OFFCURVE",
"116 1546 OFFCURVE",
"114 1388 CURVE SMOOTH",
"108 948 OFFCURVE",
"108 670 OFFCURVE",
"114 210 CURVE SMOOTH",
"116 58 OFFCURVE",
"178 -4 OFFCURVE",
"330 -10 CURVE",
"332 -132 OFFCURVE",
"376 -180 OFFCURVE",
"476 -174 CURVE"
);
},
{
closed = 1;
nodes = (
"230 66 OFFCURVE",
"196 96 OFFCURVE",
"194 210 CURVE SMOOTH",
"186 702 OFFCURVE",
"186 922 OFFCURVE",
"194 1388 CURVE SMOOTH",
"196 1502 OFFCURVE",
"230 1534 OFFCURVE",
"350 1534 CURVE SMOOTH",
"470 1534 OFFCURVE",
"504 1502 OFFCURVE",
"506 1388 CURVE SMOOTH",
"514 908 OFFCURVE",
"514 688 OFFCURVE",
"506 210 CURVE SMOOTH",
"504 96 OFFCURVE",
"470 66 OFFCURVE",
"350 66 CURVE SMOOTH"
);
}
);
width = 700;
},
{
background = {
paths = (
{
closed = 1;
nodes = (
"906 -88 LINE",
"816 -100 OFFCURVE",
"770 -62 OFFCURVE",
"776 20 CURVE",
"904 76 OFFCURVE",
"962 190 OFFCURVE",
"968 382 CURVE SMOOTH",
"980 680 OFFCURVE",
"980 918 OFFCURVE",
"968 1220 CURVE SMOOTH",
"958 1506 OFFCURVE",
"832 1620 OFFCURVE",
"528 1620 CURVE SMOOTH",
"218 1620 OFFCURVE",
"92 1506 OFFCURVE",
"86 1220 CURVE SMOOTH",
"80 920 OFFCURVE",
"80 682 OFFCURVE",
"86 382 CURVE SMOOTH",
"92 106 OFFCURVE",
"208 -10 OFFCURVE",
"490 -20 CURVE",
"520 -258 OFFCURVE",
"644 -348 OFFCURVE",
"906 -328 CURVE"
);
},
{
closed = 1;
nodes = (
"430 224 OFFCURVE",
"388 264 OFFCURVE",
"386 366 CURVE SMOOTH",
"372 658 OFFCURVE",
"372 944 OFFCURVE",
"386 1236 CURVE SMOOTH",
"388 1336 OFFCURVE",
"430 1376 OFFCURVE",
"528 1376 CURVE SMOOTH",
"626 1376 OFFCURVE",
"666 1336 OFFCURVE",
"668 1236 CURVE SMOOTH",
"682 944 OFFCURVE",
"682 658 OFFCURVE",
"668 366 CURVE SMOOTH",
"666 264 OFFCURVE",
"626 224 OFFCURVE",
"528 224 CURVE SMOOTH"
);
}
);
};
layerId = "1DFA7D5B-2E97-4B89-827F-FB43F8066DC1";
paths = (
{
closed = 1;
nodes = (
"906 -88 LINE",
"816 -100 OFFCURVE",
"770 -62 OFFCURVE",
"776 20 CURVE",
"904 76 OFFCURVE",
"962 190 OFFCURVE",
"968 382 CURVE SMOOTH",
"980 680 OFFCURVE",
"980 918 OFFCURVE",
"968 1220 CURVE SMOOTH",
"958 1506 OFFCURVE",
"832 1620 OFFCURVE",
"528 1620 CURVE SMOOTH",
"218 1620 OFFCURVE",
"92 1506 OFFCURVE",
"86 1220 CURVE SMOOTH",
"80 920 OFFCURVE",
"80 682 OFFCURVE",
"86 382 CURVE SMOOTH",
"92 106 OFFCURVE",
"208 -10 OFFCURVE",
"490 -20 CURVE",
"520 -258 OFFCURVE",
"644 -348 OFFCURVE",
"906 -328 CURVE"
);
},
{
closed = 1;
nodes = (
"430 224 OFFCURVE",
"388 264 OFFCURVE",
"386 366 CURVE SMOOTH",
"372 658 OFFCURVE",
"372 944 OFFCURVE",
"386 1236 CURVE SMOOTH",
"388 1336 OFFCURVE",
"430 1376 OFFCURVE",
"528 1376 CURVE SMOOTH",
"626 1376 OFFCURVE",
"666 1336 OFFCURVE",
"668 1236 CURVE SMOOTH",
"682 944 OFFCURVE",
"682 658 OFFCURVE",
"668 366 CURVE SMOOTH",
"666 264 OFFCURVE",
"626 224 OFFCURVE",
"528 224 CURVE SMOOTH"
);
}
);
width = 1059;
},
{
background = {
paths = (
{
closed = 1;
nodes = (
"770 -20 OFFCURVE",
"890 94 OFFCURVE",
"896 382 CURVE SMOOTH",
"902 680 OFFCURVE",
"902 918 OFFCURVE",
"896 1220 CURVE SMOOTH",
"890 1506 OFFCURVE",
"770 1620 OFFCURVE",
"476 1620 CURVE SMOOTH",
"182 1620 OFFCURVE",
"60 1506 OFFCURVE",
"54 1220 CURVE SMOOTH",
"48 920 OFFCURVE",
"48 682 OFFCURVE",
"54 382 CURVE SMOOTH",
"60 94 OFFCURVE",
"182 -20 OFFCURVE",
"476 -20 CURVE SMOOTH"
);
},
{
closed = 1;
nodes = (
"400 224 OFFCURVE",
"356 260 OFFCURVE",
"354 326 CURVE SMOOTH",
"342 598 OFFCURVE",
"342 1004 OFFCURVE",
"354 1276 CURVE SMOOTH",
"356 1340 OFFCURVE",
"400 1376 OFFCURVE",
"476 1376 CURVE SMOOTH",
"554 1376 OFFCURVE",
"594 1340 OFFCURVE",
"596 1276 CURVE SMOOTH",
"602 1004 OFFCURVE",
"602 598 OFFCURVE",
"596 326 CURVE SMOOTH",
"594 260 OFFCURVE",
"554 224 OFFCURVE",
"476 224 CURVE SMOOTH"
);
}
);
};
layerId = "5013C991-8699-46CB-BB1C-82E334DBD38B";
paths = (
{
closed = 1;
nodes = (
"894 -8 LINE",
"830 -16 OFFCURVE",
"788 0 OFFCURVE",
"772 40 CURVE",
"866 102 OFFCURVE",
"910 212 OFFCURVE",
"916 382 CURVE SMOOTH",
"926 644 OFFCURVE",
"926 954 OFFCURVE",
"916 1220 CURVE SMOOTH",
"906 1506 OFFCURVE",
"790 1620 OFFCURVE",
"496 1620 CURVE SMOOTH",
"202 1620 OFFCURVE",
"80 1506 OFFCURVE",
"74 1220 CURVE SMOOTH",
"68 958 OFFCURVE",
"68 644 OFFCURVE",
"74 382 CURVE SMOOTH",
"80 94 OFFCURVE",
"202 -20 OFFCURVE",
"494 -20 CURVE",
"540 -198 OFFCURVE",
"664 -266 OFFCURVE",
"894 -248 CURVE"
);
},
{
closed = 1;
nodes = (
"420 224 OFFCURVE",
"376 260 OFFCURVE",
"374 326 CURVE SMOOTH",
"362 598 OFFCURVE",
"362 1004 OFFCURVE",
"374 1276 CURVE SMOOTH",
"376 1340 OFFCURVE",
"420 1376 OFFCURVE",
"496 1376 CURVE SMOOTH",
"574 1376 OFFCURVE",
"614 1340 OFFCURVE",
"616 1276 CURVE SMOOTH",
"628 1004 OFFCURVE",
"628 598 OFFCURVE",
"616 326 CURVE SMOOTH",
"614 260 OFFCURVE",
"574 224 OFFCURVE",
"496 224 CURVE SMOOTH"
);
}
);
width = 993;
},
{
background = {
paths = (
{
closed = 1;
nodes = (
"432 -118 LINE",
"364 -124 OFFCURVE",
"332 -92 OFFCURVE",
"326 -8 CURVE",
"422 4 OFFCURVE",
"462 56 OFFCURVE",
"462 170 CURVE SMOOTH",
"466 620 OFFCURVE",
"466 978 OFFCURVE",
"462 1428 CURVE SMOOTH",
"462 1558 OFFCURVE",
"412 1610 OFFCURVE",
"286 1610 CURVE SMOOTH",
"160 1610 OFFCURVE",
"112 1558 OFFCURVE",
"110 1428 CURVE SMOOTH",
"102 978 OFFCURVE",
"102 620 OFFCURVE",
"110 170 CURVE SMOOTH",
"112 42 OFFCURVE",
"160 -10 OFFCURVE",
"286 -10 CURVE",
"294 -118 OFFCURVE",
"336 -160 OFFCURVE",
"432 -154 CURVE"
);
},
{
closed = 1;
nodes = (
"186 30 OFFCURVE",
"152 64 OFFCURVE",
"150 170 CURVE SMOOTH",
"142 628 OFFCURVE",
"140 988 OFFCURVE",
"150 1428 CURVE SMOOTH",
"152 1536 OFFCURVE",
"186 1570 OFFCURVE",
"286 1570 CURVE SMOOTH",
"386 1570 OFFCURVE",
"420 1536 OFFCURVE",
"422 1428 CURVE SMOOTH",
"428 988 OFFCURVE",
"432 628 OFFCURVE",
"422 170 CURVE SMOOTH",
"420 64 OFFCURVE",
"386 30 OFFCURVE",
"286 30 CURVE SMOOTH"
);
}
);
};
layerId = "3D06B89B-468F-44E0-A3D7-A5BC6911123E";
paths = (
{
closed = 1;
nodes = (
"432 -118 LINE",
"364 -124 OFFCURVE",
"332 -92 OFFCURVE",
"326 -8 CURVE",
"422 4 OFFCURVE",
"462 56 OFFCURVE",
"462 170 CURVE SMOOTH",
"466 620 OFFCURVE",
"466 978 OFFCURVE",
"462 1428 CURVE SMOOTH",
"462 1558 OFFCURVE",
"412 1610 OFFCURVE",
"286 1610 CURVE SMOOTH",
"160 1610 OFFCURVE",
"112 1558 OFFCURVE",
"110 1428 CURVE SMOOTH",
"102 978 OFFCURVE",
"102 620 OFFCURVE",
"110 170 CURVE SMOOTH",
"112 42 OFFCURVE",
"160 -10 OFFCURVE",
"286 -10 CURVE",
"294 -118 OFFCURVE",
"336 -160 OFFCURVE",
"432 -154 CURVE"
);
},
{
closed = 1;
nodes = (
"186 30 OFFCURVE",
"152 64 OFFCURVE",
"150 170 CURVE SMOOTH",
"142 628 OFFCURVE",
"140 988 OFFCURVE",
"150 1428 CURVE SMOOTH",
"152 1536 OFFCURVE",
"186 1570 OFFCURVE",
"286 1570 CURVE SMOOTH",
"386 1570 OFFCURVE",
"420 1536 OFFCURVE",
"422 1428 CURVE SMOOTH",
"428 988 OFFCURVE",
"432 628 OFFCURVE",
"422 170 CURVE SMOOTH",
"420 64 OFFCURVE",
"386 30 OFFCURVE",
"286 30 CURVE SMOOTH"
);
}
);
width = 569;
},
{
background = {
paths = (
{
closed = 1;
nodes = (
"547 -91 LINE",
"480 -97 OFFCURVE",
"446 -69 OFFCURVE",
"437 4 CURVE",
"533 29 OFFCURVE",
"574 95 OFFCURVE",
"575 223 CURVE SMOOTH",
"581 626 OFFCURVE",
"581 972 OFFCURVE",
"575 1376 CURVE SMOOTH",
"573 1545 OFFCURVE",
"506 1613 OFFCURVE",
"338 1613 CURVE SMOOTH",
"170 1613 OFFCURVE",
"104 1545 OFFCURVE",
"101 1376 CURVE SMOOTH",
"93 973 OFFCURVE",
"93 626 OFFCURVE",
"101 223 CURVE SMOOTH",
"104 55 OFFCURVE",
"170 -13 OFFCURVE",
"338 -13 CURVE",
"355 -138 OFFCURVE",
"418 -187 OFFCURVE",
"547 -178 CURVE"
);
},
{
closed = 1;
nodes = (
"244 79 OFFCURVE",
"208 113 OFFCURVE",
"206 209 CURVE SMOOTH",
"197 621 OFFCURVE",
"195 992 OFFCURVE",
"206 1390 CURVE SMOOTH",
"208 1487 OFFCURVE",
"244 1522 OFFCURVE",
"338 1522 CURVE SMOOTH",
"433 1522 OFFCURVE",
"468 1487 OFFCURVE",
"470 1390 CURVE SMOOTH",
"478 992 OFFCURVE",
"481 621 OFFCURVE",
"470 209 CURVE SMOOTH",
"468 113 OFFCURVE",
"433 79 OFFCURVE",
"338 79 CURVE SMOOTH"
);
}
);
};
layerId = "C9EB94EC-C68D-4931-B320-068DCAB9FADA";
paths = (
{
closed = 1;
nodes = (
"547 -91 LINE",
"480 -97 OFFCURVE",
"446 -69 OFFCURVE",
"437 4 CURVE",
"533 29 OFFCURVE",
"574 95 OFFCURVE",
"575 223 CURVE SMOOTH",
"581 626 OFFCURVE",
"581 972 OFFCURVE",
"575 1376 CURVE SMOOTH",
"573 1545 OFFCURVE",
"506 1613 OFFCURVE",
"338 1613 CURVE SMOOTH",
"170 1613 OFFCURVE",
"104 1545 OFFCURVE",
"101 1376 CURVE SMOOTH",
"93 973 OFFCURVE",
"93 626 OFFCURVE",
"101 223 CURVE SMOOTH",
"104 55 OFFCURVE",
"170 -13 OFFCURVE",
"338 -13 CURVE",
"355 -138 OFFCURVE",
"418 -187 OFFCURVE",
"547 -178 CURVE"
);
},
{
closed = 1;
nodes = (
"244 79 OFFCURVE",
"208 113 OFFCURVE",
"206 209 CURVE SMOOTH",
"197 621 OFFCURVE",
"195 992 OFFCURVE",
"206 1390 CURVE SMOOTH",
"208 1487 OFFCURVE",
"244 1522 OFFCURVE",
"338 1522 CURVE SMOOTH",
"433 1522 OFFCURVE",
"468 1487 OFFCURVE",
"470 1390 CURVE SMOOTH",
"478 992 OFFCURVE",
"481 621 OFFCURVE",
"470 209 CURVE SMOOTH",
"468 113 OFFCURVE",
"433 79 OFFCURVE",
"338 79 CURVE SMOOTH"
);
}
);
width = 674;
},
{
background = {
paths = (
{
closed = 1;
nodes = (
"590 -99 LINE",
"530 -105 OFFCURVE",
"508 -80 OFFCURVE",
"508 1 CURVE",
"632 25 OFFCURVE",
"685 102 OFFCURVE",
"688 253 CURVE SMOOTH",
"696 673 OFFCURVE",
"696 941 OFFCURVE",
"688 1346 CURVE SMOOTH",
"684 1536 OFFCURVE",
"602 1613 OFFCURVE",
"401 1613 CURVE SMOOTH",
"199 1613 OFFCURVE",
"117 1536 OFFCURVE",
"114 1346 CURVE SMOOTH",
"108 941 OFFCURVE",
"108 673 OFFCURVE",
"114 253 CURVE SMOOTH",
"117 70 OFFCURVE",
"192 -6 OFFCURVE",
"377 -13 CURVE",
"386 -164 OFFCURVE",
"450 -222 OFFCURVE",
"590 -213 CURVE"
);
},
{
closed = 1;
nodes = (
"287 106 OFFCURVE",
"251 138 OFFCURVE",
"249 249 CURVE SMOOTH",
"239 691 OFFCURVE",
"239 928 OFFCURVE",
"249 1350 CURVE SMOOTH",
"251 1461 OFFCURVE",
"287 1495 OFFCURVE",
"401 1495 CURVE SMOOTH",
"516 1495 OFFCURVE",
"551 1461 OFFCURVE",
"553 1350 CURVE SMOOTH",
"563 917 OFFCURVE",
"563 681 OFFCURVE",
"553 249 CURVE SMOOTH",
"551 138 OFFCURVE",
"516 106 OFFCURVE",
"401 106 CURVE SMOOTH"
);
}
);
};
layerId = "6F82CFD7-79D5-473B-9D61-BE5DF154BBF2";
paths = (
{
closed = 1;
nodes = (
"590 -99 LINE",
"530 -105 OFFCURVE",
"508 -80 OFFCURVE",
"508 1 CURVE",
"632 25 OFFCURVE",
"685 102 OFFCURVE",
"688 253 CURVE SMOOTH",
"696 673 OFFCURVE",
"696 941 OFFCURVE",
"688 1346 CURVE SMOOTH",
"684 1536 OFFCURVE",
"602 1613 OFFCURVE",
"401 1613 CURVE SMOOTH",
"199 1613 OFFCURVE",
"117 1536 OFFCURVE",
"114 1346 CURVE SMOOTH",
"108 941 OFFCURVE",
"108 673 OFFCURVE",
"114 253 CURVE SMOOTH",
"117 70 OFFCURVE",
"192 -6 OFFCURVE",
"377 -13 CURVE",
"386 -164 OFFCURVE",
"450 -222 OFFCURVE",
"590 -213 CURVE"
);
},
{
closed = 1;
nodes = (
"287 106 OFFCURVE",
"251 138 OFFCURVE",
"249 249 CURVE SMOOTH",
"239 691 OFFCURVE",
"239 928 OFFCURVE",
"249 1350 CURVE SMOOTH",
"251 1461 OFFCURVE",
"287 1495 OFFCURVE",
"401 1495 CURVE SMOOTH",
"516 1495 OFFCURVE",
"551 1461 OFFCURVE",
"553 1350 CURVE SMOOTH",
"563 917 OFFCURVE",
"563 681 OFFCURVE",
"553 249 CURVE SMOOTH",
"551 138 OFFCURVE",
"516 106 OFFCURVE",
"401 106 CURVE SMOOTH"
);
}
);
width = 804;
}
);
leftKerningGroup = O;
leftMetricsKey = O;
rightKerningGroup = O;
rightMetricsKey = O;
unicode = 0051;
},
